<svg width="430" height="932" viewBox="0 0 430 932" fill="none" xmlns="http://www.w3.org/2000/svg">
<g clip-path="url(#clip0_13_30354)">
<rect width="430" height="932" fill="white"/>
<g clip-path="url(#clip1_13_30354)">
<mask id="mask0_13_30354" style="mask-type:luminance" maskUnits="userSpaceOnUse" x="0" y="-2" width="430" height="990">
<path d="M0 -1.20584H429.308V987.2H0V-1.20584Z" fill="white"/>
</mask>
<g mask="url(#mask0_13_30354)">
<path d="M0 -1.20584H429.308V987.206H0V-1.20584Z" fill="white"/>
<path d="M0 -1.20584H429.308V987.206H0V-1.20584Z" fill="#560216"/>
</g>
<mask id="mask1_13_30354" style="mask-type:luminance" maskUnits="userSpaceOnUse" x="0" y="-2" width="430" height="34">
<path d="M0.459717 -1.20584H429.307V31.5156H0.459717V-1.20584Z" fill="white"/>
</mask>
<g mask="url(#mask1_13_30354)">
<path d="M0 -3.40414H767.798V31.999H0V-3.40414Z" fill="white"/>
</g>
<mask id="mask2_13_30354" style="mask-type:luminance" maskUnits="userSpaceOnUse" x="0" y="-2" width="430" height="34">
<path d="M0 -1.20584H0.914226V31.0265H0V-1.20584ZM0 31.0265H429.308V31.999H0V31.0265Z" fill="white"/>
</mask>
<g mask="url(#mask2_13_30354)">
<path d="M0 -3.40414H767.798V31.999H0V-3.40414Z" fill="black"/>
</g>
<mask id="mask3_13_30354" style="mask-type:luminance" maskUnits="userSpaceOnUse" x="44" y="11" width="19" height="6">
<path d="M44.3157 11.7999H62.1025V16.9043H44.3157V11.7999Z" fill="white"/>
</mask>
<g mask="url(#mask3_13_30354)">
<path d="M59.1921 16.9158C58.8784 16.9158 58.5754 16.8525 58.2887 16.7259C57.9966 16.5936 57.7424 16.4094 57.5206 16.1677C57.2988 15.926 57.1257 15.6498 57.0067 15.339C56.8876 15.0225 56.8281 14.7003 56.8281 14.3607C56.8281 14.0212 56.8876 13.6932 57.0067 13.3824C57.1257 13.0659 57.2988 12.7897 57.5206 12.548C57.7424 12.312 57.9966 12.1279 58.2887 11.9955C58.5754 11.8632 58.8784 11.7999 59.1921 11.7999C59.5059 11.7999 59.8034 11.8632 60.0956 11.9955C60.3823 12.1279 60.6419 12.312 60.8637 12.548C61.0801 12.7897 61.2532 13.0659 61.3722 13.3824C61.4912 13.6932 61.5507 14.0212 61.5507 14.3607C61.5507 14.7003 61.4912 15.0225 61.3722 15.339C61.2532 15.6498 61.0801 15.926 60.8583 16.1677C60.6365 16.4094 60.3823 16.5936 60.0956 16.7202C59.8034 16.8525 59.5059 16.9158 59.1921 16.9158ZM59.1921 12.7667C58.9974 12.7667 58.8081 12.8069 58.6295 12.8875C58.4456 12.9681 58.2887 13.0832 58.1481 13.2328C58.0129 13.3824 57.9047 13.5551 57.8289 13.7507C57.7532 13.9464 57.7153 14.1478 57.7153 14.3607C57.7153 14.5737 57.7532 14.7751 57.8289 14.9707C57.9047 15.1664 58.0129 15.339 58.1481 15.4887C58.2887 15.6383 58.4456 15.7534 58.6295 15.8339C58.8081 15.9145 58.9974 15.9548 59.1921 15.9548C59.3869 15.9548 59.5762 15.9145 59.7547 15.8339C59.9333 15.7534 60.0956 15.6383 60.2308 15.4887C60.3714 15.339 60.4742 15.1664 60.55 14.9707C60.6257 14.7751 60.6636 14.5737 60.6636 14.3607C60.6636 14.1478 60.6257 13.9464 60.55 13.7507C60.4742 13.5551 60.3714 13.3824 60.2308 13.2328C60.0956 13.0832 59.9333 12.9681 59.7547 12.8875C59.5762 12.8069 59.3869 12.7667 59.1921 12.7667ZM53.1063 16.9158C52.7926 16.9158 52.4896 16.8525 52.1975 16.7259C51.9108 16.5936 51.6565 16.4094 51.4348 16.1677C51.213 15.926 51.0398 15.6498 50.9208 15.339C50.8018 15.0225 50.7423 14.7003 50.7423 14.3607C50.7423 14.0212 50.8018 13.6932 50.9208 13.3824C51.0398 13.0659 51.213 12.7897 51.4348 12.548C51.6565 12.312 51.9108 12.1279 52.1975 11.9955C52.4896 11.8632 52.7926 11.7999 53.1063 11.7999C53.4147 11.7999 53.7176 11.8632 54.0097 11.9955C54.2964 12.1279 54.5507 12.312 54.7725 12.548C54.9943 12.7897 55.1674 13.0659 55.2864 13.3824C55.4054 13.6932 55.4649 14.0212 55.4649 14.3607C55.4649 14.7003 55.4054 15.0225 55.2864 15.339C55.1674 15.6498 54.9943 15.926 54.7725 16.1677C54.5507 16.4094 54.2964 16.5936 54.0097 16.7202C53.7176 16.8525 53.4147 16.9158 53.1063 16.9158ZM53.1063 12.7667C52.9062 12.7667 52.7222 12.8069 52.5383 12.8875C52.3598 12.9681 52.2029 13.0832 52.0623 13.2328C51.927 13.3824 51.8188 13.5551 51.7431 13.7507C51.6674 13.9464 51.6295 14.1478 51.6295 14.3607C51.6295 14.5737 51.6674 14.7751 51.7431 14.9707C51.8188 15.1664 51.927 15.339 52.0623 15.4887C52.2029 15.6383 52.3598 15.7534 52.5383 15.8339C52.7222 15.9145 52.9062 15.9548 53.1063 15.9548C53.3011 15.9548 53.485 15.9145 53.6689 15.8339C53.8474 15.7534 54.0097 15.6383 54.145 15.4887C54.2856 15.339 54.3884 15.1664 54.4641 14.9707C54.5399 14.7751 54.5777 14.5737 54.5777 14.3607C54.5777 14.1478 54.5399 13.9464 54.4641 13.7507C54.3884 13.5551 54.2856 13.3824 54.145 13.2328C54.0043 13.0832 53.8474 12.9681 53.6689 12.8875C53.485 12.8069 53.3011 12.7667 53.1063 12.7667ZM47.0151 16.9158C46.7067 16.9158 46.4038 16.8525 46.1117 16.7259C45.825 16.5936 45.5707 16.4094 45.3489 16.1677C45.1271 15.926 44.954 15.6498 44.835 15.339C44.716 15.0225 44.6565 14.7003 44.6565 14.3607C44.6565 14.0212 44.716 13.6932 44.835 13.3824C44.954 13.0659 45.1271 12.7897 45.3489 12.548C45.5707 12.312 45.825 12.1279 46.1117 11.9955C46.4038 11.8632 46.7067 11.7999 47.0151 11.7999C47.3288 11.7999 47.6318 11.8632 47.9239 11.9955C48.2106 12.1279 48.4649 12.312 48.6867 12.548C48.9085 12.7897 49.0816 13.0659 49.2006 13.3824C49.3196 13.6932 49.3791 14.0212 49.3791 14.3607C49.3791 14.7003 49.3196 15.0225 49.2006 15.339C49.0816 15.6498 48.9085 15.926 48.6867 16.1677C48.4649 16.4094 48.2106 16.5936 47.9185 16.7202C47.6318 16.8525 47.3288 16.9158 47.0151 16.9158ZM47.0151 12.7667C46.8203 12.7667 46.6364 12.8069 46.4525 12.8875C46.274 12.9681 46.1117 13.0832 45.9764 13.2328C45.8358 13.3824 45.733 13.5551 45.6573 13.7507C45.5815 13.9464 45.5437 14.1478 45.5437 14.3607C45.5437 14.5737 45.5815 14.7751 45.6573 14.9707C45.733 15.1664 45.8358 15.339 45.9764 15.4887C46.1117 15.6383 46.274 15.7534 46.4525 15.8339C46.6364 15.9145 46.8203 15.9548 47.0151 15.9548C47.2152 15.9548 47.3992 15.9145 47.5831 15.8339C47.7616 15.7534 47.9185 15.6383 48.0591 15.4887C48.1944 15.339 48.3026 15.1664 48.3783 14.9707C48.454 14.7751 48.4919 14.5737 48.4919 14.3607C48.4919 14.1478 48.454 13.9464 48.3783 13.7507C48.3026 13.5551 48.1944 13.3824 48.0591 13.2328C47.9185 13.0832 47.7616 12.9681 47.5831 12.8875C47.3992 12.8069 47.2152 12.7667 47.0151 12.7667Z" fill="black"/>
</g>
<path d="M103.234 206.151V196.99H108.492V197.888H104.272V201.11H107.843V202.008H104.272V206.151H103.234Z" fill="white"/>
<path d="M111.434 206.151V196.99H112.473V206.151H111.434Z" fill="white"/>
<path d="M115.917 206.151V196.99H118.708C119.368 196.99 119.92 197.105 120.352 197.335C120.785 197.565 121.099 197.888 121.304 198.302C121.505 198.716 121.607 199.171 121.607 199.66C121.607 200.247 121.461 200.765 121.175 201.225C120.883 201.686 120.428 202.019 119.811 202.215L121.694 206.151H120.482L118.73 202.376H116.955V206.151H115.917ZM116.955 201.502H118.621C119.281 201.502 119.768 201.335 120.071 200.995C120.374 200.661 120.526 200.224 120.526 199.683C120.526 199.148 120.374 198.716 120.071 198.394C119.779 198.072 119.298 197.911 118.621 197.911H116.955V201.502Z" fill="white"/>
<path d="M127.592 206.312C126.953 206.312 126.401 206.186 125.925 205.944C125.46 205.702 125.103 205.363 124.843 204.931C124.595 204.488 124.476 203.982 124.476 203.412H125.558C125.558 203.769 125.633 204.097 125.796 204.402C125.952 204.695 126.174 204.931 126.466 205.116C126.769 205.288 127.143 205.369 127.592 205.369C128.165 205.369 128.614 205.225 128.933 204.931C129.263 204.644 129.431 204.275 129.431 203.826C129.431 203.458 129.35 203.17 129.193 202.952C129.047 202.722 128.852 202.537 128.609 202.399C128.36 202.261 128.073 202.14 127.743 202.031C127.424 201.927 127.083 201.801 126.726 201.663C126.061 201.421 125.568 201.122 125.255 200.765C124.935 200.397 124.779 199.925 124.779 199.338C124.762 198.849 124.865 198.417 125.081 198.049C125.309 197.669 125.628 197.37 126.034 197.151C126.434 196.938 126.921 196.829 127.483 196.829C128.03 196.829 128.506 196.938 128.911 197.151C129.312 197.37 129.631 197.669 129.864 198.049C130.091 198.434 130.21 198.872 130.21 199.361H129.128C129.128 199.119 129.063 198.872 128.933 198.624C128.814 198.365 128.63 198.158 128.371 198.003C128.122 197.853 127.813 197.772 127.44 197.772C126.975 197.761 126.596 197.882 126.293 198.141C125.99 198.405 125.839 198.774 125.839 199.246C125.839 199.631 125.936 199.93 126.142 200.143C126.358 200.345 126.65 200.512 127.029 200.65C127.418 200.788 127.857 200.949 128.349 201.133C128.749 201.289 129.117 201.473 129.452 201.686C129.782 201.887 130.037 202.158 130.21 202.491C130.394 202.814 130.491 203.239 130.491 203.757C130.491 204.189 130.383 204.603 130.167 205C129.961 205.386 129.647 205.702 129.214 205.944C128.782 206.186 128.241 206.312 127.592 206.312Z" fill="white"/>
<path d="M135.598 206.151V197.888H133.045V196.99H139.212V197.888H136.637V206.151H135.598Z" fill="white"/>
<path d="M146.995 206.151V196.99H148.033L152.621 204.333V196.99H153.659V206.151H152.621L148.033 198.808V206.151H146.995Z" fill="white"/>
<path d="M156.563 206.151L159.744 196.99H160.847L164.006 206.151H162.903L162.124 203.803H158.445L157.645 206.151H156.563ZM158.748 202.906H161.799L160.285 198.371L158.748 202.906Z" fill="white"/>
<path d="M166.905 206.151V196.99H168.117L171.211 203.366L174.305 196.99H175.517V206.151H174.478V198.946L171.6 204.839H170.821L167.943 198.969V206.151H166.905Z" fill="white"/>
<path d="M178.959 206.151V196.99H184.282V197.888H179.998V201.087H183.914V201.962H179.998V205.254H184.282V206.151H178.959Z" fill="white"/>
<mask id="mask4_13_30354" style="mask-type:luminance" maskUnits="userSpaceOnUse" x="102" y="214" width="243" height="48">
<path d="M102.75 214.465H344.263V261.855H102.75V214.465Z" fill="white"/>
</mask>
<g mask="url(#mask4_13_30354)">
<path d="M102.323 214.016H344.739V262.31H102.323V214.016Z" fill="white"/>
</g>
<mask id="mask5_13_30354" style="mask-type:luminance" maskUnits="userSpaceOnUse" x="102" y="214" width="243" height="49">
<path d="M102.323 214.016H344.69V214.919H102.323V214.016ZM343.841 214.919H344.69V261.406H343.841V214.919ZM102.323 214.919H103.172V261.406H102.323V214.919ZM102.323 261.406H344.69V262.31H102.323V261.406Z" fill="white"/>
</mask>
<g mask="url(#mask5_13_30354)">
<path d="M102.323 214.016H344.739V262.31H102.323V214.016Z" fill="black"/>
</g>
<path d="M106.843 437.701V428.539H109.678C110.354 428.539 110.911 428.655 111.344 428.885C111.777 429.115 112.09 429.437 112.296 429.852C112.512 430.254 112.62 430.703 112.62 431.21C112.62 431.705 112.518 432.153 112.318 432.568C112.112 432.971 111.787 433.293 111.344 433.535C110.911 433.765 110.354 433.88 109.678 433.88H107.882V437.701H106.843ZM107.882 432.936H109.656C110.348 432.936 110.835 432.786 111.127 432.476C111.414 432.171 111.56 431.751 111.56 431.21C111.56 430.657 111.414 430.231 111.127 429.921C110.835 429.616 110.348 429.46 109.656 429.46H107.882V432.936Z" fill="white"/>
<path d="M115.057 437.701L118.237 428.539H119.341L122.5 437.701H121.397L120.618 435.353H116.939L116.139 437.701H115.057ZM117.242 434.455H120.293L118.778 429.921L117.242 434.455Z" fill="white"/>
<path d="M128.147 437.862C127.508 437.862 126.957 437.736 126.481 437.494C126.015 437.252 125.658 436.913 125.399 436.481C125.15 436.038 125.031 435.531 125.031 434.962H126.113C126.113 435.319 126.188 435.647 126.351 435.952C126.508 436.245 126.729 436.481 127.022 436.665C127.324 436.838 127.698 436.918 128.147 436.918C128.72 436.918 129.169 436.774 129.488 436.481C129.818 436.193 129.986 435.825 129.986 435.376C129.986 435.008 129.905 434.72 129.748 434.501C129.602 434.271 129.407 434.087 129.164 433.949C128.915 433.811 128.628 433.69 128.298 433.581C127.979 433.477 127.638 433.35 127.281 433.212C126.616 432.971 126.124 432.671 125.81 432.315C125.491 431.946 125.334 431.474 125.334 430.887C125.317 430.398 125.42 429.967 125.637 429.598C125.864 429.218 126.183 428.919 126.589 428.701C126.989 428.488 127.476 428.378 128.039 428.378C128.585 428.378 129.061 428.488 129.467 428.701C129.867 428.919 130.186 429.218 130.419 429.598C130.646 429.984 130.765 430.421 130.765 430.91H129.683C129.683 430.669 129.618 430.421 129.488 430.174C129.369 429.915 129.185 429.708 128.926 429.552C128.677 429.403 128.368 429.322 127.995 429.322C127.53 429.311 127.151 429.431 126.848 429.69C126.545 429.955 126.394 430.323 126.394 430.795C126.394 431.181 126.491 431.48 126.697 431.693C126.913 431.894 127.205 432.061 127.584 432.199C127.974 432.338 128.412 432.499 128.904 432.683C129.304 432.838 129.672 433.022 130.008 433.235C130.338 433.437 130.592 433.707 130.765 434.041C130.949 434.363 131.046 434.789 131.046 435.307C131.046 435.739 130.938 436.153 130.722 436.55C130.516 436.936 130.202 437.252 129.77 437.494C129.337 437.736 128.796 437.862 128.147 437.862Z" fill="white"/>
<path d="M136.889 437.862C136.251 437.862 135.699 437.736 135.223 437.494C134.758 437.252 134.401 436.913 134.141 436.481C133.892 436.038 133.773 435.531 133.773 434.962H134.855C134.855 435.319 134.931 435.647 135.093 435.952C135.25 436.245 135.472 436.481 135.764 436.665C136.067 436.838 136.44 436.918 136.889 436.918C137.463 436.918 137.912 436.774 138.231 436.481C138.561 436.193 138.728 435.825 138.728 435.376C138.728 435.008 138.647 434.72 138.49 434.501C138.344 434.271 138.15 434.087 137.906 433.949C137.657 433.811 137.371 433.69 137.041 433.581C136.721 433.477 136.381 433.35 136.024 433.212C135.358 432.971 134.866 432.671 134.552 432.315C134.233 431.946 134.076 431.474 134.076 430.887C134.06 430.398 134.163 429.967 134.379 429.598C134.606 429.218 134.925 428.919 135.331 428.701C135.731 428.488 136.218 428.378 136.781 428.378C137.327 428.378 137.803 428.488 138.209 428.701C138.609 428.919 138.929 429.218 139.161 429.598C139.388 429.984 139.507 430.421 139.507 430.91H138.425C138.425 430.669 138.361 430.421 138.231 430.174C138.112 429.915 137.928 429.708 137.668 429.552C137.419 429.403 137.111 429.322 136.738 429.322C136.272 429.311 135.894 429.431 135.591 429.69C135.288 429.955 135.136 430.323 135.136 430.795C135.136 431.181 135.234 431.48 135.439 431.693C135.656 431.894 135.948 432.061 136.327 432.199C136.716 432.338 137.154 432.499 137.646 432.683C138.047 432.838 138.415 433.022 138.75 433.235C139.08 433.437 139.334 433.707 139.507 434.041C139.691 434.363 139.789 434.789 139.789 435.307C139.789 435.739 139.681 436.153 139.464 436.55C139.259 436.936 138.945 437.252 138.512 437.494C138.079 437.736 137.538 437.862 136.889 437.862Z" fill="white"/>
<path d="M144.657 437.724L142.299 428.539H143.402L145.263 436.412L147.384 428.539H148.531L150.586 436.412L152.469 428.539H153.572L151.149 437.701H149.98L147.925 430.128L145.826 437.701L144.657 437.724Z" fill="white"/>
<path d="M160.331 437.862C159.477 437.862 158.736 437.666 158.103 437.264C157.464 436.867 156.967 436.314 156.61 435.606C156.263 434.887 156.09 434.058 156.09 433.12C156.09 432.188 156.263 431.365 156.61 430.657C156.967 429.938 157.464 429.38 158.103 428.977C158.736 428.58 159.477 428.378 160.331 428.378C161.181 428.378 161.922 428.58 162.56 428.977C163.193 429.38 163.685 429.938 164.032 430.657C164.389 431.365 164.573 432.188 164.573 433.12C164.573 434.058 164.389 434.887 164.032 435.606C163.685 436.314 163.193 436.867 162.56 437.264C161.922 437.666 161.181 437.862 160.331 437.862ZM160.331 436.895C160.964 436.895 161.522 436.746 161.998 436.435C162.474 436.13 162.842 435.698 163.101 435.146C163.372 434.582 163.512 433.903 163.512 433.12C163.512 432.338 163.372 431.67 163.101 431.118C162.842 430.554 162.474 430.122 161.998 429.828C161.522 429.523 160.964 429.368 160.331 429.368C159.693 429.368 159.141 429.523 158.665 429.828C158.189 430.122 157.811 430.554 157.54 431.118C157.28 431.67 157.151 432.338 157.151 433.12C157.151 433.903 157.28 434.582 157.54 435.146C157.811 435.698 158.189 436.13 158.665 436.435C159.141 436.746 159.693 436.895 160.331 436.895Z" fill="white"/>
<path d="M167.693 437.701V428.539H170.485C171.145 428.539 171.696 428.655 172.129 428.885C172.562 429.115 172.876 429.437 173.081 429.852C173.281 430.266 173.384 430.72 173.384 431.21C173.384 431.797 173.238 432.315 172.952 432.775C172.659 433.235 172.205 433.569 171.588 433.765L173.471 437.701H172.259L170.506 433.926H168.732V437.701H167.693ZM168.732 433.051H170.398C171.058 433.051 171.545 432.884 171.848 432.545C172.151 432.211 172.302 431.774 172.302 431.233C172.302 430.697 172.151 430.266 171.848 429.944C171.556 429.621 171.074 429.46 170.398 429.46H168.732V433.051Z" fill="white"/>
<path d="M176.62 437.701V428.539H179.26C180.786 428.539 181.906 428.954 182.614 429.782C183.334 430.6 183.696 431.716 183.696 433.143C183.696 434.559 183.334 435.67 182.614 436.481C181.906 437.298 180.786 437.701 179.26 437.701H176.62ZM177.659 436.78H179.239C180.072 436.78 180.737 436.636 181.229 436.343C181.732 436.055 182.095 435.641 182.311 435.1C182.528 434.547 182.636 433.897 182.636 433.143C182.636 432.378 182.528 431.716 182.311 431.164C182.095 430.611 181.732 430.191 181.229 429.898C180.737 429.61 180.072 429.46 179.239 429.46H177.659V436.78Z" fill="white"/>
<mask id="mask6_13_30354" style="mask-type:luminance" maskUnits="userSpaceOnUse" x="102" y="443" width="243" height="48">
<path d="M102.75 443.377H344.263V490.767H102.75V443.377Z" fill="white"/>
</mask>
<g mask="url(#mask6_13_30354)">
<path d="M102.323 442.928H344.739V491.222H102.323V442.928Z" fill="white"/>
</g>
<mask id="mask7_13_30354" style="mask-type:luminance" maskUnits="userSpaceOnUse" x="102" y="442" width="243" height="50">
<path d="M102.323 442.928H344.69V443.832H102.323V442.928ZM343.841 443.832H344.69V490.318H343.841V443.832ZM102.323 443.832H103.172V490.318H102.323V443.832ZM102.323 490.318H344.69V491.222H102.323V490.318Z" fill="white"/>
</mask>
<g mask="url(#mask7_13_30354)">
<path d="M102.323 442.928H344.739V491.222H102.323V442.928Z" fill="black"/>
</g>
<path d="M120.574 460.532L120.358 462.604L121.894 461.384L122.327 462.235L120.488 462.972L122.327 463.732L121.894 464.56L120.358 463.363L120.574 465.412H119.687L119.882 463.363L118.324 464.583L117.869 463.732L119.665 462.972L117.869 462.235L118.324 461.361L119.882 462.604L119.687 460.532H120.574Z" fill="#BDBDBD"/>
<path d="M126.496 460.532L126.28 462.604L127.816 461.384L128.249 462.235L126.41 462.972L128.249 463.732L127.816 464.56L126.28 463.363L126.496 465.412H125.609L125.804 463.363L124.246 464.583L123.792 463.732L125.587 462.972L123.792 462.235L124.246 461.361L125.804 462.604L125.609 460.532H126.496Z" fill="#BDBDBD"/>
<path d="M132.418 460.532L132.202 462.604L133.738 461.384L134.171 462.235L132.332 462.972L134.171 463.732L133.738 464.56L132.202 463.363L132.418 465.412H131.531L131.726 463.363L130.168 464.583L129.714 463.732L131.51 462.972L129.714 462.235L130.168 461.361L131.726 462.604L131.531 460.532H132.418Z" fill="#BDBDBD"/>
<path d="M138.341 460.532L138.124 462.604L139.661 461.384L140.093 462.235L138.254 462.972L140.093 463.732L139.661 464.56L138.124 463.363L138.341 465.412H137.453L137.648 463.363L136.09 464.583L135.636 463.732L137.432 462.972L135.636 462.235L136.09 461.361L137.648 462.604L137.453 460.532H138.341Z" fill="#BDBDBD"/>
<path d="M144.263 460.532L144.046 462.604L145.583 461.384L146.015 462.235L144.176 462.972L146.015 463.732L145.583 464.56L144.046 463.363L144.263 465.412H143.375L143.57 463.363L142.012 464.583L141.558 463.732L143.354 462.972L141.558 462.235L142.012 461.361L143.57 462.604L143.375 460.532H144.263Z" fill="#BDBDBD"/>
<path d="M150.185 460.532L149.968 462.604L151.505 461.384L151.938 462.235L150.098 462.972L151.938 463.732L151.505 464.56L149.968 463.363L150.185 465.412H149.298L149.492 463.363L147.934 464.583L147.48 463.732L149.276 462.972L147.48 462.235L147.934 461.361L149.492 462.604L149.298 460.532H150.185Z" fill="#BDBDBD"/>
<path d="M106.929 352.243V343.081H112.252V343.979H107.967V347.178H111.884V348.053H107.967V351.345H112.252V352.243H106.929Z" fill="white"/>
<path d="M115.499 352.243V343.081H116.71L119.805 349.457L122.899 343.081H124.111V352.243H123.072V345.038L120.194 350.93H119.415L116.537 345.061V352.243H115.499Z" fill="white"/>
<path d="M127.012 352.243L130.193 343.081H131.296L134.456 352.243H133.352L132.573 349.895H128.895L128.094 352.243H127.012ZM129.197 348.997H132.248L130.734 344.462L129.197 348.997Z" fill="white"/>
<path d="M137.354 352.243V343.081H138.393V352.243H137.354Z" fill="white"/>
<path d="M141.836 352.243V343.081H142.875V351.368H146.878V352.243H141.836Z" fill="white"/>
<mask id="mask8_13_30354" style="mask-type:luminance" maskUnits="userSpaceOnUse" x="102" y="362" width="243" height="48">
<path d="M102.75 362.454H344.263V409.844H102.75V362.454Z" fill="white"/>
</mask>
<g mask="url(#mask8_13_30354)">
<path d="M102.323 361.999H344.739V410.293H102.323V361.999Z" fill="white"/>
</g>
<mask id="mask9_13_30354" style="mask-type:luminance" maskUnits="userSpaceOnUse" x="102" y="361" width="243" height="50">
<path d="M102.323 361.999H344.69V362.903H102.323V361.999ZM343.841 362.903H344.69V409.389H343.841V362.903ZM102.323 362.903H103.172V409.389H102.323V362.903ZM102.323 409.389H344.69V410.293H102.323V409.389Z" fill="white"/>
</mask>
<g mask="url(#mask9_13_30354)">
<path d="M102.323 361.999H344.739V410.293H102.323V361.999Z" fill="black"/>
</g>
<path d="M118.994 379.514V383.22C119.438 382.363 120.174 381.931 121.202 381.931C121.948 381.931 122.576 382.196 123.084 382.714C123.587 383.22 123.841 383.968 123.841 384.946V389.205H122.976V385.108C122.976 384.325 122.792 383.738 122.435 383.335C122.089 382.921 121.602 382.714 120.985 382.714C120.363 382.714 119.871 382.921 119.514 383.335C119.168 383.738 118.994 384.325 118.994 385.108V389.205H118.129V379.514H118.994Z" fill="#BDBDBD"/>
<path d="M128.418 389.343C127.466 389.343 126.687 389.009 126.082 388.33C125.486 387.64 125.194 386.742 125.194 385.637C125.194 384.521 125.497 383.623 126.103 382.944C126.72 382.27 127.515 381.931 128.483 381.931C129.446 381.931 130.22 382.253 130.799 382.898C131.372 383.531 131.664 384.313 131.664 385.246C131.664 385.51 131.648 385.746 131.621 385.959H126.082C126.109 386.776 126.341 387.421 126.774 387.893C127.207 388.37 127.753 388.606 128.418 388.606C128.938 388.606 129.376 388.486 129.738 388.238C130.112 387.979 130.371 387.64 130.517 387.225H131.426C131.21 387.841 130.847 388.347 130.344 388.745C129.836 389.147 129.197 389.343 128.418 389.343ZM130.777 385.246C130.777 384.451 130.55 383.818 130.106 383.358C129.657 382.886 129.1 382.644 128.44 382.644C127.775 382.644 127.228 382.875 126.796 383.335C126.363 383.795 126.125 384.434 126.082 385.246H130.777Z" fill="#BDBDBD"/>
<path d="M133.076 389.205V379.514H133.941V389.205H133.076Z" fill="#BDBDBD"/>
<path d="M135.785 389.205V379.514H136.65V389.205H135.785Z" fill="#BDBDBD"/>
<path d="M141.306 388.606C141.999 388.606 142.594 388.342 143.102 387.801C143.622 387.266 143.881 386.535 143.881 385.614C143.881 384.693 143.632 383.974 143.146 383.45C142.67 382.915 142.074 382.644 141.371 382.644C140.679 382.644 140.095 382.915 139.619 383.45C139.153 383.974 138.926 384.705 138.926 385.637C138.926 386.575 139.148 387.306 139.597 387.824C140.04 388.347 140.614 388.606 141.306 388.606ZM141.306 389.343C140.338 389.343 139.554 389.009 138.948 388.33C138.353 387.64 138.061 386.742 138.061 385.637C138.061 384.532 138.374 383.646 139.013 382.967C139.662 382.276 140.462 381.931 141.415 381.931C142.377 381.931 143.178 382.276 143.816 382.967C144.449 383.646 144.768 384.532 144.768 385.637C144.768 386.73 144.428 387.617 143.751 388.307C143.086 388.998 142.269 389.343 141.306 389.343Z" fill="#BDBDBD"/>
<path d="M146.785 389.757C146.266 388.871 146.006 387.778 146.006 386.489C146.006 385.188 146.293 383.957 146.871 382.806C147.445 381.655 148.267 380.745 149.338 380.066C150.42 379.376 151.632 379.031 152.973 379.031C154.586 379.031 155.895 379.537 156.89 380.55C157.885 381.563 158.383 382.875 158.383 384.486C158.383 385.838 158.058 386.989 157.409 387.939C156.771 388.877 156.068 389.343 155.289 389.343C154.824 389.343 154.494 389.182 154.293 388.86C154.104 388.526 154.039 388.146 154.099 387.732C153.449 388.808 152.573 389.343 151.48 389.343C150.615 389.343 149.922 388.986 149.403 388.261C148.884 387.542 148.694 386.644 148.841 385.568C148.997 384.48 149.436 383.606 150.16 382.944C150.88 382.27 151.686 381.931 152.584 381.931C153.493 381.931 154.196 382.288 154.705 382.99C155.208 383.698 155.381 384.555 155.224 385.568L154.878 387.801C154.802 388.307 154.97 388.56 155.375 388.56C155.878 388.56 156.354 388.169 156.803 387.386C157.247 386.592 157.474 385.625 157.474 384.486C157.474 383.076 157.069 381.948 156.263 381.102C155.451 380.245 154.32 379.813 152.865 379.813C151.134 379.813 149.706 380.469 148.581 381.77C147.466 383.076 146.915 384.687 146.915 386.604C146.915 388.204 147.374 389.424 148.3 390.287C149.219 391.144 150.447 391.605 151.978 391.668L151.783 392.451C149.446 392.359 147.78 391.461 146.785 389.757ZM154.315 385.637C154.429 384.826 154.304 384.135 153.947 383.565C153.585 383.001 153.087 382.714 152.454 382.714C151.816 382.714 151.232 383.001 150.701 383.565C150.182 384.135 149.863 384.826 149.749 385.637C149.63 386.454 149.755 387.145 150.117 387.709C150.474 388.278 150.972 388.56 151.61 388.56C152.243 388.56 152.822 388.278 153.341 387.709C153.871 387.145 154.196 386.454 154.315 385.637Z" fill="#BDBDBD"/>
<path d="M160.917 382.046V383.243C161.274 382.368 161.967 381.931 162.995 381.931V382.875H162.735C162.14 382.875 161.685 383.053 161.372 383.404C161.069 383.744 160.917 384.325 160.917 385.154V389.205H160.052V382.046H160.917Z" fill="#BDBDBD"/>
<path d="M167.189 389.343C166.237 389.343 165.458 389.009 164.852 388.33C164.257 387.64 163.965 386.742 163.965 385.637C163.965 384.521 164.268 383.623 164.874 382.944C165.491 382.27 166.286 381.931 167.254 381.931C168.217 381.931 168.991 382.253 169.569 382.898C170.143 383.531 170.435 384.313 170.435 385.246C170.435 385.51 170.419 385.746 170.392 385.959H164.852C164.879 386.776 165.112 387.421 165.545 387.893C165.977 388.37 166.524 388.606 167.189 388.606C167.709 388.606 168.147 388.486 168.509 388.238C168.882 387.979 169.142 387.64 169.288 387.225H170.197C169.981 387.841 169.618 388.347 169.115 388.745C168.607 389.147 167.968 389.343 167.189 389.343ZM169.548 385.246C169.548 384.451 169.321 383.818 168.877 383.358C168.428 382.886 167.871 382.644 167.211 382.644C166.545 382.644 165.999 382.875 165.566 383.335C165.134 383.795 164.896 384.434 164.852 385.246H169.548Z" fill="#BDBDBD"/>
<path d="M176.542 387.755C177.029 387.22 177.278 386.512 177.278 385.637C177.278 384.762 177.029 384.06 176.542 383.519C176.05 382.984 175.46 382.714 174.768 382.714C174.086 382.714 173.502 382.978 173.015 383.496C172.539 384.003 172.301 384.693 172.301 385.568C172.301 386.443 172.539 387.168 173.015 387.732C173.502 388.284 174.086 388.56 174.768 388.56C175.46 388.56 176.05 388.296 176.542 387.755ZM174.66 389.343C173.719 389.343 172.94 388.992 172.323 388.284C171.717 387.582 171.414 386.684 171.414 385.591C171.414 384.486 171.717 383.606 172.323 382.944C172.94 382.27 173.719 381.931 174.66 381.931C175.266 381.931 175.796 382.092 176.261 382.414C176.721 382.725 177.062 383.122 177.278 383.611V382.046H178.144V389.205H177.278V387.64C177.062 388.135 176.721 388.537 176.261 388.86C175.796 389.182 175.266 389.343 174.66 389.343Z" fill="#BDBDBD"/>
<path d="M179.997 389.205V379.514H180.863V389.205H179.997Z" fill="#BDBDBD"/>
<path d="M182.706 389.205V379.514H183.572V389.205H182.706Z" fill="#BDBDBD"/>
<path d="M187.319 389.09L184.657 382.046H185.588L187.795 388.123L190.002 382.046H190.889L186.908 392.543H186.02L187.319 389.09Z" fill="#BDBDBD"/>
<path d="M194.815 389.343C193.873 389.343 193.094 388.992 192.478 388.284C191.872 387.582 191.569 386.684 191.569 385.591C191.569 384.486 191.872 383.606 192.478 382.944C193.094 382.27 193.873 381.931 194.815 381.931C195.42 381.931 195.951 382.092 196.416 382.414C196.876 382.725 197.216 383.122 197.433 383.611V382.046H198.298V389.458C198.298 390.425 197.995 391.208 197.39 391.806C196.784 392.405 196.048 392.704 195.182 392.704C194.317 392.704 193.581 392.474 192.975 392.013C192.38 391.564 192.034 391.012 191.937 390.356H192.802C192.9 390.799 193.17 391.167 193.603 391.461C194.036 391.766 194.566 391.921 195.204 391.921C195.837 391.921 196.362 391.697 196.784 391.254C197.216 390.822 197.433 390.223 197.433 389.458V387.64C197.216 388.135 196.876 388.537 196.416 388.86C195.951 389.182 195.42 389.343 194.815 389.343ZM196.697 387.755C197.184 387.22 197.433 386.512 197.433 385.637C197.433 384.762 197.184 384.06 196.697 383.519C196.205 382.984 195.615 382.714 194.923 382.714C194.241 382.714 193.657 382.978 193.17 383.496C192.694 384.003 192.456 384.693 192.456 385.568C192.456 386.443 192.694 387.168 193.17 387.732C193.657 388.284 194.241 388.56 194.923 388.56C195.615 388.56 196.205 388.296 196.697 387.755Z" fill="#BDBDBD"/>
<path d="M201.018 382.046V383.243C201.375 382.368 202.067 381.931 203.095 381.931V382.875H202.836C202.24 382.875 201.786 383.053 201.472 383.404C201.169 383.744 201.018 384.325 201.018 385.154V389.205H200.152V382.046H201.018Z" fill="#BDBDBD"/>
<path d="M207.29 389.343C206.338 389.343 205.559 389.009 204.953 388.33C204.358 387.64 204.066 386.742 204.066 385.637C204.066 384.521 204.369 383.623 204.974 382.944C205.591 382.27 206.386 381.931 207.355 381.931C208.318 381.931 209.091 382.253 209.67 382.898C210.243 383.531 210.536 384.313 210.536 385.246C210.536 385.51 210.519 385.746 210.492 385.959H204.953C204.98 386.776 205.213 387.421 205.645 387.893C206.078 388.37 206.624 388.606 207.29 388.606C207.809 388.606 208.247 388.486 208.61 388.238C208.983 387.979 209.243 387.64 209.389 387.225H210.298C210.081 387.841 209.719 388.347 209.216 388.745C208.707 389.147 208.069 389.343 207.29 389.343ZM209.648 385.246C209.648 384.451 209.421 383.818 208.978 383.358C208.529 382.886 207.971 382.644 207.311 382.644C206.646 382.644 206.1 382.875 205.667 383.335C205.234 383.795 204.996 384.434 204.953 385.246H209.648Z" fill="#BDBDBD"/>
<path d="M216.643 387.755C217.13 387.22 217.378 386.512 217.378 385.637C217.378 384.762 217.13 384.06 216.643 383.519C216.15 382.984 215.561 382.714 214.868 382.714C214.187 382.714 213.603 382.978 213.116 383.496C212.64 384.003 212.402 384.693 212.402 385.568C212.402 386.443 212.64 387.168 213.116 387.732C213.603 388.284 214.187 388.56 214.868 388.56C215.561 388.56 216.15 388.296 216.643 387.755ZM214.76 389.343C213.819 389.343 213.04 388.992 212.423 388.284C211.817 387.582 211.514 386.684 211.514 385.591C211.514 384.486 211.817 383.606 212.423 382.944C213.04 382.27 213.819 381.931 214.76 381.931C215.366 381.931 215.896 382.092 216.361 382.414C216.821 382.725 217.162 383.122 217.378 383.611V382.046H218.244V389.205H217.378V387.64C217.162 388.135 216.821 388.537 216.361 388.86C215.896 389.182 215.366 389.343 214.76 389.343Z" fill="#BDBDBD"/>
<path d="M223.084 382.783H221.223V387.524C221.223 387.881 221.288 388.134 221.418 388.284C221.548 388.422 221.786 388.491 222.132 388.491H223.084V389.205H221.937C220.882 389.205 220.357 388.647 220.357 387.524V382.783H219.427V382.046H220.357V380.25H221.223V382.046H223.084V382.783Z" fill="#BDBDBD"/>
<path d="M224.077 384.026C224.077 383.444 224.304 382.955 224.769 382.552C225.229 382.138 225.813 381.931 226.522 381.931C227.242 381.931 227.799 382.132 228.188 382.529C228.589 382.915 228.816 383.462 228.859 384.164H227.972C227.956 383.721 227.81 383.358 227.539 383.082C227.279 382.794 226.917 382.644 226.457 382.644C225.992 382.644 225.624 382.771 225.354 383.013C225.094 383.26 224.964 383.56 224.964 383.911C224.964 384.25 225.056 384.521 225.245 384.716C225.446 384.918 225.689 385.056 225.981 385.131C226.284 385.211 226.609 385.292 226.955 385.384C227.312 385.476 227.636 385.579 227.929 385.683C228.231 385.792 228.48 385.994 228.686 386.281C228.886 386.558 228.989 386.92 228.989 387.363C228.989 387.95 228.756 388.422 228.296 388.791C227.847 389.159 227.258 389.343 226.522 389.343C225.786 389.343 225.202 389.147 224.769 388.745C224.347 388.33 224.12 387.778 224.077 387.087H224.964C224.975 387.536 225.121 387.904 225.397 388.192C225.684 388.468 226.073 388.606 226.565 388.606C227.052 388.606 227.431 388.503 227.691 388.284C227.961 388.054 228.102 387.766 228.102 387.409C228.102 387.058 227.999 386.782 227.799 386.581C227.609 386.385 227.366 386.247 227.063 386.166C226.76 386.092 226.435 386.005 226.089 385.913C225.743 385.821 225.418 385.723 225.116 385.614C224.813 385.51 224.558 385.326 224.358 385.061C224.169 384.785 224.077 384.44 224.077 384.026Z" fill="#BDBDBD"/>
<path d="M231.71 380.043C231.71 380.228 231.65 380.389 231.537 380.527C231.418 380.653 231.266 380.711 231.082 380.711C230.909 380.711 230.758 380.653 230.628 380.527C230.509 380.389 230.455 380.228 230.455 380.043C230.455 379.848 230.509 379.687 230.628 379.56C230.758 379.422 230.909 379.353 231.082 379.353C231.266 379.353 231.418 379.422 231.537 379.56C231.65 379.687 231.71 379.848 231.71 380.043ZM230.649 389.205V382.046H231.515V389.205H230.649Z" fill="#BDBDBD"/>
<path d="M236.344 382.783H234.483V387.524C234.483 387.881 234.548 388.134 234.678 388.284C234.808 388.422 235.046 388.491 235.392 388.491H236.344V389.205H235.197C234.142 389.205 233.618 388.647 233.618 387.524V382.783H232.687V382.046H233.618V380.25H234.483V382.046H236.344V382.783Z" fill="#BDBDBD"/>
<path d="M240.323 389.343C239.371 389.343 238.592 389.009 237.986 388.33C237.391 387.64 237.099 386.742 237.099 385.637C237.099 384.521 237.402 383.623 238.008 382.944C238.625 382.27 239.42 381.931 240.388 381.931C241.351 381.931 242.125 382.253 242.703 382.898C243.277 383.531 243.569 384.313 243.569 385.246C243.569 385.51 243.553 385.746 243.526 385.959H237.986C238.013 386.776 238.246 387.421 238.679 387.893C239.112 388.37 239.658 388.606 240.323 388.606C240.843 388.606 241.281 388.486 241.643 388.238C242.016 387.979 242.276 387.64 242.422 387.225H243.331C243.115 387.841 242.752 388.347 242.249 388.745C241.741 389.147 241.102 389.343 240.323 389.343ZM242.682 385.246C242.682 384.451 242.455 383.818 242.011 383.358C241.562 382.886 241.005 382.644 240.345 382.644C239.68 382.644 239.133 382.875 238.7 383.335C238.268 383.795 238.03 384.434 237.986 385.246H242.682Z" fill="#BDBDBD"/>
<path d="M245.803 389.021C245.684 389.147 245.549 389.205 245.392 389.205C245.229 389.205 245.089 389.147 244.959 389.021C244.84 388.883 244.786 388.733 244.786 388.56C244.786 388.393 244.84 388.25 244.959 388.123C245.089 387.985 245.229 387.916 245.392 387.916C245.549 387.916 245.684 387.985 245.803 388.123C245.933 388.25 245.998 388.393 245.998 388.56C245.998 388.733 245.933 388.883 245.803 389.021Z" fill="#BDBDBD"/>
<path d="M248.119 388.33C247.524 387.64 247.232 386.742 247.232 385.637C247.232 384.521 247.524 383.623 248.119 382.944C248.725 382.27 249.504 381.931 250.456 381.931C252.041 381.931 253.042 382.685 253.464 384.187H252.555C252.409 383.698 252.155 383.324 251.798 383.059C251.435 382.783 250.986 382.644 250.456 382.644C249.764 382.644 249.201 382.909 248.768 383.427C248.335 383.934 248.119 384.67 248.119 385.637C248.119 386.592 248.335 387.329 248.768 387.847C249.201 388.353 249.764 388.606 250.456 388.606C250.986 388.606 251.435 388.48 251.798 388.215C252.155 387.939 252.409 387.565 252.555 387.087H253.464C253.247 387.766 252.885 388.307 252.382 388.722C251.89 389.136 251.246 389.343 250.456 389.343C249.504 389.343 248.725 389.009 248.119 388.33Z" fill="#BDBDBD"/>
<path d="M257.865 388.606C258.557 388.606 259.152 388.342 259.661 387.801C260.18 387.266 260.44 386.535 260.44 385.614C260.44 384.693 260.191 383.974 259.704 383.45C259.228 382.915 258.633 382.644 257.93 382.644C257.237 382.644 256.653 382.915 256.177 383.45C255.712 383.974 255.485 384.705 255.485 385.637C255.485 386.575 255.706 387.306 256.155 387.824C256.599 388.347 257.172 388.606 257.865 388.606ZM257.865 389.343C256.897 389.343 256.112 389.009 255.506 388.33C254.911 387.64 254.619 386.742 254.619 385.637C254.619 384.532 254.933 383.646 255.571 382.967C256.22 382.276 257.021 381.931 257.973 381.931C258.936 381.931 259.737 382.276 260.375 382.967C261.008 383.646 261.327 384.532 261.327 385.637C261.327 386.73 260.986 387.617 260.31 388.307C259.645 388.998 258.828 389.343 257.865 389.343Z" fill="#BDBDBD"/>
<path d="M263.625 382.046V383.22C264.068 382.363 264.804 381.931 265.832 381.931C266.362 381.931 266.838 382.069 267.26 382.345C267.693 382.61 268.007 383.001 268.212 383.519C268.439 383.013 268.775 382.621 269.208 382.345C269.64 382.069 270.138 381.931 270.701 381.931C271.436 381.931 272.053 382.196 272.562 382.714C273.065 383.22 273.319 383.968 273.319 384.946V389.205H272.475V385.108C272.475 384.325 272.291 383.738 271.934 383.335C271.572 382.921 271.079 382.714 270.463 382.714C269.84 382.714 269.348 382.921 268.991 383.335C268.645 383.738 268.472 384.325 268.472 385.108V389.205H267.606V385.108C267.606 384.325 267.422 383.738 267.065 383.335C266.719 382.921 266.232 382.714 265.616 382.714C264.993 382.714 264.501 382.921 264.144 383.335C263.798 383.738 263.625 384.325 263.625 385.108V389.205H262.759V382.046H263.625Z" fill="#BDBDBD"/>
<path d="M83.9465 115.66C81.1335 115.66 78.7533 114.664 76.8058 112.667C74.8692 110.659 73.9062 108.104 73.9062 105.002C73.9062 101.906 74.8692 99.351 76.8058 97.3368C78.7533 95.3284 81.1335 94.3214 83.9465 94.3214C86.0346 94.3214 87.8955 94.8681 89.5292 95.9557C91.1575 97.0491 92.3422 98.5971 93.0779 100.606H89.2047C88.1498 98.4878 86.3971 97.4289 83.9465 97.4289C81.9666 97.4289 80.3545 98.131 79.0995 99.5236C77.8445 100.905 77.2169 102.735 77.2169 105.002C77.2169 107.275 77.8445 109.1 79.0995 110.481C80.3545 111.862 81.9666 112.552 83.9465 112.552C86.3971 112.552 88.1498 111.505 89.2047 109.399H93.0779C92.3422 111.413 91.1575 112.961 89.5292 114.049C87.8955 115.125 86.0346 115.66 83.9465 115.66Z" fill="#FAFAFA"/>
<path d="M99.5466 98.9021V101.803C100.542 99.702 102.089 98.6489 104.199 98.6489V102.194H103.377C102.122 102.194 101.17 102.539 100.52 103.23C99.8712 103.909 99.5466 105.083 99.5466 106.752V115.476H96.3225V98.9021H99.5466Z" fill="#FAFAFA"/>
<path d="M113.221 115.752C110.955 115.752 109.115 114.969 107.703 113.404C106.286 111.839 105.583 109.767 105.583 107.189C105.583 104.599 106.297 102.528 107.725 100.974C109.164 99.4258 111.019 98.6489 113.286 98.6489C115.564 98.6489 117.403 99.397 118.804 100.882C120.216 102.372 120.924 104.323 120.924 106.729C120.924 107.316 120.887 107.851 120.816 108.34H108.893C108.964 109.738 109.397 110.843 110.192 111.655C110.998 112.455 112.009 112.852 113.221 112.852C114.963 112.852 116.196 112.086 116.921 110.55H120.405C119.929 112.069 119.069 113.324 117.83 114.302C116.586 115.269 115.05 115.752 113.221 115.752ZM117.57 106.015C117.554 104.651 117.127 103.563 116.294 102.746C115.472 101.935 114.46 101.526 113.264 101.526C112.08 101.526 111.084 101.935 110.278 102.746C109.483 103.563 109.029 104.651 108.915 106.015H117.57Z" fill="#FAFAFA"/>
<path d="M133.848 111.263C134.783 110.25 135.254 108.892 135.254 107.189C135.254 105.486 134.783 104.139 133.848 103.138C132.923 102.125 131.819 101.618 130.537 101.618C129.249 101.618 128.14 102.113 127.205 103.092C126.28 104.076 125.82 105.417 125.82 107.12C125.82 108.823 126.28 110.193 127.205 111.217C128.14 112.247 129.249 112.76 130.537 112.76C131.819 112.76 132.923 112.265 133.848 111.263ZM129.866 115.752C127.789 115.752 126.042 114.946 124.63 113.335C123.212 111.712 122.509 109.646 122.509 107.143C122.509 104.628 123.207 102.585 124.608 101.02C126.02 99.4431 127.773 98.6489 129.866 98.6489C131.089 98.6489 132.165 98.9482 133.09 99.5467C134.026 100.134 134.746 100.899 135.254 101.849V98.9021H138.522V115.476H135.254V112.368C134.735 113.398 134.01 114.221 133.09 114.831C132.165 115.447 131.089 115.752 129.866 115.752Z" fill="#FAFAFA"/>
<path d="M149.793 101.71H146.006V110.872C146.006 111.505 146.141 111.954 146.417 112.23C146.688 112.495 147.153 112.621 147.802 112.621H149.793V115.476H147.239C144.237 115.476 142.739 113.945 142.739 110.872V101.71H140.921V98.9021H142.739V94.7817H146.006V98.9021H149.793V101.71Z" fill="#FAFAFA"/>
<path d="M158.8 115.752C156.534 115.752 154.695 114.969 153.283 113.404C151.865 111.839 151.162 109.767 151.162 107.189C151.162 104.599 151.876 102.528 153.304 100.974C154.743 99.4258 156.599 98.6489 158.865 98.6489C161.143 98.6489 162.982 99.397 164.383 100.882C165.795 102.372 166.504 104.323 166.504 106.729C166.504 107.316 166.466 107.851 166.396 108.34H154.473C154.543 109.738 154.976 110.843 155.771 111.655C156.577 112.455 157.589 112.852 158.8 112.852C160.542 112.852 161.776 112.086 162.501 110.55H165.984C165.508 112.069 164.648 113.324 163.409 114.302C162.165 115.269 160.629 115.752 158.8 115.752ZM163.15 106.015C163.134 104.651 162.706 103.563 161.873 102.746C161.051 101.935 160.039 101.526 158.844 101.526C157.659 101.526 156.664 101.935 155.858 102.746C155.062 103.563 154.608 104.651 154.494 106.015H163.15Z" fill="#FAFAFA"/>
<path d="M180.363 98.9021V101.526C181.401 99.61 183.057 98.6489 185.34 98.6489C187.082 98.6489 188.526 99.2704 189.667 100.513C190.803 101.756 191.377 103.494 191.377 105.716V115.476H188.196V106.222C188.196 104.737 187.839 103.598 187.136 102.815C186.443 102.021 185.491 101.618 184.279 101.618C183.078 101.618 182.126 102.021 181.423 102.815C180.714 103.598 180.363 104.737 180.363 106.222V115.476H177.139V98.9021H180.363Z" fill="#FAFAFA"/>
<path d="M201.526 115.752C199.259 115.752 197.42 114.969 196.008 113.404C194.59 111.839 193.887 109.767 193.887 107.189C193.887 104.599 194.601 102.528 196.029 100.974C197.468 99.4258 199.324 98.6489 201.591 98.6489C203.868 98.6489 205.707 99.397 207.108 100.882C208.52 102.372 209.229 104.323 209.229 106.729C209.229 107.316 209.191 107.851 209.121 108.34H197.198C197.268 109.738 197.701 110.843 198.496 111.655C199.302 112.455 200.314 112.852 201.526 112.852C203.267 112.852 204.501 112.086 205.226 110.55H208.71C208.234 112.069 207.373 113.324 206.135 114.302C204.89 115.269 203.354 115.752 201.526 115.752ZM205.875 106.015C205.859 104.651 205.431 103.563 204.598 102.746C203.776 101.935 202.764 101.526 201.569 101.526C200.384 101.526 199.389 101.935 198.583 102.746C197.788 103.563 197.333 104.651 197.22 106.015H205.875Z" fill="#FAFAFA"/>
<path d="M229.639 98.9021H232.798L227.973 115.476H224.575L221.438 103.23L218.3 115.476H214.925L210.056 98.9021H213.345L216.591 112.23L219.901 98.9021H223.255L226.415 112.161L229.639 98.9021Z" fill="#FAFAFA"/>
<path d="M255.91 115.476L254.504 111.217H246.281L244.875 115.476H241.499L248.553 94.5515H252.275L259.307 115.476H255.91ZM247.168 108.524H253.638L250.414 98.695L247.168 108.524Z" fill="#FAFAFA"/>
<path d="M268.411 115.752C266.144 115.752 264.305 114.969 262.893 113.404C261.476 111.839 260.772 109.767 260.772 107.189C260.772 104.611 261.487 102.551 262.915 100.997C264.343 99.4316 266.171 98.6489 268.411 98.6489C270.299 98.6489 271.857 99.1266 273.085 100.076C274.324 101.031 275.162 102.39 275.595 104.15H272.111C271.532 102.401 270.299 101.526 268.411 101.526C267.096 101.526 266.041 102.027 265.252 103.023C264.473 104.007 264.083 105.393 264.083 107.189C264.083 108.973 264.473 110.36 265.252 111.355C266.041 112.357 267.096 112.852 268.411 112.852C270.272 112.852 271.505 111.988 272.111 110.25H275.595C275.13 111.925 274.28 113.26 273.041 114.256C271.797 115.257 270.256 115.752 268.411 115.752Z" fill="#FAFAFA"/>
<path d="M284.857 115.752C282.59 115.752 280.751 114.969 279.339 113.404C277.922 111.839 277.218 109.767 277.218 107.189C277.218 104.611 277.932 102.551 279.36 100.997C280.789 99.4316 282.617 98.6489 284.857 98.6489C286.745 98.6489 288.303 99.1266 289.531 100.076C290.769 101.031 291.608 102.39 292.041 104.15H288.557C287.978 102.401 286.745 101.526 284.857 101.526C283.542 101.526 282.487 102.027 281.697 103.023C280.918 104.007 280.529 105.393 280.529 107.189C280.529 108.973 280.918 110.36 281.697 111.355C282.487 112.357 283.542 112.852 284.857 112.852C286.718 112.852 287.951 111.988 288.557 110.25H292.041C291.575 111.925 290.726 113.26 289.487 114.256C288.243 115.257 286.701 115.752 284.857 115.752Z" fill="#FAFAFA"/>
<path d="M304.851 111.355C305.803 110.36 306.279 108.973 306.279 107.189C306.279 105.393 305.814 104.007 304.894 103.023C303.986 102.027 302.882 101.526 301.584 101.526C300.285 101.526 299.187 102.027 298.295 103.023C297.413 104.007 296.975 105.393 296.975 107.189C296.975 108.984 297.407 110.383 298.273 111.378C299.139 112.362 300.21 112.852 301.497 112.852C302.795 112.852 303.91 112.357 304.851 111.355ZM301.497 115.752C299.23 115.752 297.364 114.969 295.893 113.404C294.432 111.827 293.707 109.761 293.707 107.212C293.707 104.651 294.465 102.585 295.979 101.02C297.494 99.4431 299.377 98.6489 301.627 98.6489C303.888 98.6489 305.782 99.4431 307.296 101.02C308.822 102.585 309.59 104.645 309.59 107.189C309.59 109.721 308.811 111.787 307.253 113.381C305.695 114.964 303.775 115.752 301.497 115.752Z" fill="#FAFAFA"/>
<path d="M323.15 98.9021H326.374V115.476H323.15V112.852C322.122 114.756 320.466 115.706 318.173 115.706C316.409 115.706 314.959 115.096 313.823 113.864C312.682 112.639 312.114 110.912 312.114 108.685V98.9021H315.317V108.179C315.317 109.652 315.663 110.791 316.355 111.586C317.058 112.368 318.011 112.76 319.211 112.76C320.423 112.76 321.381 112.368 322.089 111.586C322.793 110.791 323.15 109.652 323.15 108.179V98.9021Z" fill="#FAFAFA"/>
<path d="M333.32 98.9021V101.526C334.359 99.61 336.014 98.6489 338.297 98.6489C340.039 98.6489 341.483 99.2704 342.625 100.513C343.761 101.756 344.334 103.494 344.334 105.716V115.476H341.153V106.222C341.153 104.737 340.796 103.598 340.093 102.815C339.4 102.021 338.448 101.618 337.237 101.618C336.036 101.618 335.084 102.021 334.38 102.815C333.672 103.598 333.32 104.737 333.32 106.222V115.476H330.096V98.9021H333.32Z" fill="#FAFAFA"/>
<path d="M355.478 101.71H351.691V110.872C351.691 111.505 351.827 111.954 352.103 112.23C352.373 112.495 352.838 112.621 353.487 112.621H355.478V115.476H352.925C349.923 115.476 348.424 113.945 348.424 110.872V101.71H346.606V98.9021H348.424V94.7817H351.691V98.9021H355.478V101.71Z" fill="#FAFAFA"/>
<path d="M146.992 148.078V141.034H147.988L148.096 142.392C148.296 141.92 148.604 141.552 149.026 141.287C149.443 141.011 149.962 140.873 150.584 140.873V142.116H150.26C149.87 142.116 149.508 142.196 149.178 142.346C148.859 142.484 148.599 142.732 148.399 143.083C148.193 143.439 148.096 143.923 148.096 144.533V148.078H146.992Z" fill="white"/>
<path d="M154.803 148.239C154.165 148.239 153.602 148.084 153.115 147.779C152.623 147.474 152.239 147.053 151.969 146.513C151.693 145.96 151.557 145.31 151.557 144.556C151.557 143.819 151.693 143.175 151.969 142.622C152.239 142.07 152.623 141.644 153.115 141.333C153.602 141.028 154.176 140.873 154.825 140.873C155.474 140.873 156.026 141.028 156.491 141.333C156.967 141.644 157.324 142.047 157.573 142.553C157.816 143.048 157.941 143.583 157.941 144.165C157.941 144.257 157.941 144.36 157.941 144.464C157.941 144.573 157.941 144.694 157.941 144.832H152.661C152.688 145.373 152.802 145.816 153.007 146.167C153.224 146.524 153.483 146.789 153.786 146.973C154.1 147.157 154.441 147.249 154.803 147.249C155.263 147.249 155.647 147.134 155.95 146.904C156.264 146.674 156.496 146.369 156.642 145.983H157.768C157.578 146.628 157.232 147.169 156.729 147.594C156.22 148.026 155.582 148.239 154.803 148.239ZM154.803 141.863C154.268 141.863 153.792 142.041 153.375 142.392C152.969 142.732 152.731 143.238 152.661 143.911H156.837C156.805 143.267 156.599 142.772 156.21 142.415C155.831 142.047 155.366 141.863 154.803 141.863Z" fill="white"/>
<path d="M161.621 148.239C161.069 148.239 160.615 148.135 160.258 147.94C159.895 147.744 159.619 147.479 159.435 147.157C159.262 146.823 159.176 146.461 159.176 146.075C159.176 145.356 159.425 144.803 159.933 144.418C160.452 144.038 161.156 143.842 162.054 143.842H163.85V143.75C163.85 143.14 163.698 142.668 163.395 142.346C163.092 142.024 162.687 141.863 162.184 141.863C161.735 141.863 161.35 141.989 161.037 142.231C160.734 142.461 160.539 142.801 160.452 143.244H159.306C159.349 142.726 159.506 142.294 159.782 141.955C160.068 141.604 160.42 141.333 160.842 141.149C161.258 140.965 161.707 140.873 162.184 140.873C163.103 140.873 163.796 141.138 164.261 141.656C164.737 142.179 164.975 142.876 164.975 143.75V148.078H163.958L163.893 146.812C163.704 147.215 163.428 147.548 163.071 147.825C162.708 148.101 162.227 148.239 161.621 148.239ZM161.794 147.249C162.227 147.249 162.595 147.134 162.898 146.904C163.211 146.662 163.449 146.346 163.612 145.96C163.769 145.58 163.85 145.177 163.85 144.763H162.14C161.491 144.763 161.026 144.89 160.755 145.131C160.479 145.362 160.344 145.661 160.344 146.029C160.344 146.397 160.463 146.697 160.712 146.927C160.972 147.146 161.329 147.249 161.794 147.249Z" fill="white"/>
<path d="M169.644 148.239C168.995 148.239 168.416 148.078 167.913 147.756C167.421 147.433 167.037 146.996 166.766 146.443C166.507 145.891 166.377 145.258 166.377 144.533C166.377 143.831 166.512 143.198 166.788 142.645C167.059 142.093 167.443 141.667 167.935 141.356C168.422 141.034 169.001 140.873 169.666 140.873C170.212 140.873 170.694 140.988 171.116 141.218C171.532 141.448 171.857 141.782 172.09 142.208V137.857H173.215V148.078H172.198L172.09 146.904C171.873 147.261 171.559 147.571 171.159 147.848C170.753 148.107 170.25 148.239 169.644 148.239ZM169.774 147.203C170.218 147.203 170.607 147.1 170.943 146.881C171.289 146.651 171.554 146.346 171.743 145.96C171.943 145.563 172.046 145.097 172.046 144.556C172.046 144.021 171.943 143.56 171.743 143.175C171.554 142.778 171.289 142.473 170.943 142.254C170.607 142.024 170.218 141.909 169.774 141.909C169.341 141.909 168.952 142.024 168.606 142.254C168.26 142.473 167.989 142.778 167.805 143.175C167.616 143.56 167.524 144.021 167.524 144.556C167.524 145.097 167.616 145.563 167.805 145.96C167.989 146.346 168.26 146.651 168.606 146.881C168.952 147.1 169.341 147.203 169.774 147.203Z" fill="white"/>
<path d="M175.757 151.208L177.401 147.387H177.012L174.372 141.034H175.584L177.791 146.513L180.106 141.034H181.275L176.925 151.208H175.757Z" fill="white"/>
<path d="M186.069 148.078V138.134H189.077C189.813 138.134 190.408 138.266 190.873 138.525C191.333 138.772 191.673 139.118 191.89 139.561C192.117 140.01 192.236 140.505 192.236 141.057C192.236 141.673 192.074 142.231 191.76 142.737C191.441 143.244 190.949 143.601 190.289 143.796L192.323 148.078H191.003L189.098 143.98H187.173V148.078H186.069ZM187.173 143.037H188.99C189.71 143.037 190.234 142.852 190.57 142.484C190.9 142.116 191.068 141.644 191.068 141.057C191.068 140.476 190.9 140.015 190.57 139.676C190.251 139.325 189.726 139.146 188.99 139.146H187.173V143.037Z" fill="white"/>
<path d="M106.929 512.466V503.305H109.569C111.094 503.305 112.214 503.719 112.923 504.548C113.642 505.365 114.004 506.481 114.004 507.908C114.004 509.324 113.642 510.435 112.923 511.246C112.214 512.063 111.094 512.466 109.569 512.466H106.929ZM107.967 511.545H109.547C110.38 511.545 111.045 511.402 111.538 511.108C112.041 510.82 112.403 510.406 112.62 509.865C112.836 509.313 112.944 508.662 112.944 507.908C112.944 507.143 112.836 506.481 112.62 505.929C112.403 505.376 112.041 504.956 111.538 504.663C111.045 504.375 110.38 504.225 109.547 504.225H107.967V511.545Z" fill="white"/>
<path d="M116.583 512.466L119.764 503.305H120.867L124.026 512.466H122.923L122.144 510.118H118.465L117.665 512.466H116.583ZM118.768 509.221H121.819L120.305 504.686L118.768 509.221Z" fill="white"/>
<path d="M128.937 512.466V504.202H126.384V503.305H132.551V504.202H129.976V512.466H128.937Z" fill="white"/>
<path d="M135.446 512.466V503.305H140.769V504.202H136.484V507.402H140.401V508.277H136.484V511.568H140.769V512.466H135.446Z" fill="white"/>
<path d="M152.82 512.627C151.966 512.627 151.225 512.432 150.592 512.029C149.953 511.632 149.456 511.079 149.099 510.371C148.752 509.652 148.579 508.823 148.579 507.885C148.579 506.953 148.752 506.13 149.099 505.422C149.456 504.703 149.953 504.145 150.592 503.742C151.225 503.345 151.966 503.144 152.82 503.144C153.67 503.144 154.411 503.345 155.049 503.742C155.682 504.145 156.174 504.703 156.521 505.422C156.878 506.13 157.062 506.953 157.062 507.885C157.062 508.823 156.878 509.652 156.521 510.371C156.174 511.079 155.682 511.632 155.049 512.029C154.411 512.432 153.67 512.627 152.82 512.627ZM152.82 511.661C153.453 511.661 154.011 511.511 154.487 511.2C154.963 510.895 155.331 510.464 155.59 509.911C155.861 509.347 156.001 508.668 156.001 507.885C156.001 507.103 155.861 506.435 155.59 505.883C155.331 505.319 154.963 504.887 154.487 504.594C154.011 504.289 153.453 504.133 152.82 504.133C152.182 504.133 151.63 504.289 151.154 504.594C150.678 504.887 150.3 505.319 150.029 505.883C149.769 506.435 149.64 507.103 149.64 507.885C149.64 508.668 149.769 509.347 150.029 509.911C150.3 510.464 150.678 510.895 151.154 511.2C151.63 511.511 152.182 511.661 152.82 511.661Z" fill="white"/>
<path d="M160.183 512.466V503.305H165.441V504.202H161.221V507.425H164.792V508.323H161.221V512.466H160.183Z" fill="white"/>
<path d="M173.271 512.466V503.305H176.301C176.907 503.305 177.404 503.408 177.794 503.604C178.194 503.805 178.497 504.087 178.703 504.456C178.903 504.812 179.006 505.204 179.006 505.63C179.006 506.228 178.854 506.7 178.551 507.034C178.248 507.373 177.886 507.609 177.469 507.747C177.783 507.811 178.075 507.949 178.335 508.162C178.605 508.363 178.816 508.622 178.962 508.944C179.119 509.255 179.2 509.589 179.2 509.957C179.2 510.418 179.092 510.843 178.876 511.223C178.659 511.609 178.34 511.914 177.924 512.144C177.502 512.363 176.999 512.466 176.409 512.466H173.271ZM174.31 507.31H176.236C176.782 507.31 177.199 507.172 177.491 506.896C177.794 506.619 177.945 506.24 177.945 505.745C177.945 505.284 177.794 504.916 177.491 504.64C177.199 504.364 176.766 504.225 176.193 504.225H174.31V507.31ZM174.31 511.545H176.301C176.874 511.545 177.323 511.402 177.642 511.108C177.972 510.82 178.14 510.412 178.14 509.888C178.14 509.37 177.967 508.956 177.621 508.645C177.285 508.34 176.831 508.185 176.258 508.185H174.31V511.545Z" fill="white"/>
<path d="M182.309 512.466V503.305H183.348V512.466H182.309Z" fill="white"/>
<path d="M186.792 512.466V503.305H189.583C190.243 503.305 190.795 503.42 191.227 503.65C191.66 503.88 191.974 504.202 192.179 504.617C192.38 505.031 192.482 505.486 192.482 505.975C192.482 506.562 192.336 507.08 192.05 507.54C191.758 508.001 191.303 508.334 190.686 508.53L192.569 512.466H191.357L189.605 508.691H187.83V512.466H186.792ZM187.83 507.816H189.496C190.156 507.816 190.643 507.65 190.946 507.31C191.249 506.976 191.401 506.539 191.401 505.998C191.401 505.463 191.249 505.031 190.946 504.709C190.654 504.387 190.173 504.225 189.496 504.225H187.83V507.816Z" fill="white"/>
<path d="M197.731 512.466V504.202H195.177V503.305H201.344V504.202H198.769V512.466H197.731Z" fill="white"/>
<path d="M204.239 512.466V503.305H205.278V507.356H209.735V503.305H210.774V512.466H209.735V508.254H205.278V512.466H204.239Z" fill="white"/>
<mask id="mask10_13_30354" style="mask-type:luminance" maskUnits="userSpaceOnUse" x="106" y="523" width="242" height="49">
<path d="M106.359 523.771H347.871V571.161H106.359V523.771Z" fill="white"/>
</mask>
<g mask="url(#mask10_13_30354)">
<path d="M105.937 523.316H348.353V571.61H105.937V523.316Z" fill="white"/>
</g>
<mask id="mask11_13_30354" style="mask-type:luminance" maskUnits="userSpaceOnUse" x="105" y="523" width="244" height="49">
<path d="M105.937 523.316H348.298V524.219H105.937V523.316ZM347.449 524.219H348.298V570.706H347.449V524.219ZM105.937 524.219H106.786V570.706H105.937V524.219ZM105.937 570.706H348.298V571.61H105.937V570.706Z" fill="white"/>
</mask>
<g mask="url(#mask11_13_30354)">
<path d="M105.937 523.316H348.352V571.61H105.937V523.316Z" fill="black"/>
</g>
<path d="M122.344 543.87C122.344 544.227 122.431 544.515 122.604 544.745C122.788 544.975 123.021 545.148 123.296 545.251C123.567 545.361 123.87 545.453 124.205 545.528C124.551 545.608 124.887 545.7 125.222 545.804C125.568 545.896 125.877 546.023 126.153 546.172C126.423 546.328 126.65 546.563 126.823 546.886C127.007 547.197 127.105 547.576 127.105 548.037C127.105 548.727 126.856 549.337 126.369 549.855C125.893 550.362 125.228 550.615 124.378 550.615C123.54 550.615 122.853 550.419 122.323 550.016C121.803 549.619 121.544 549.073 121.544 548.382H122.453C122.496 548.814 122.669 549.165 122.972 549.441C123.275 549.706 123.718 549.832 124.313 549.832C124.919 549.832 125.401 549.671 125.763 549.349C126.12 549.015 126.304 548.601 126.304 548.106C126.304 547.617 126.136 547.248 125.806 547.001C125.471 546.742 125.076 546.563 124.616 546.471C124.151 546.379 123.691 546.276 123.232 546.149C122.766 546.011 122.371 545.769 122.041 545.413C121.706 545.044 121.544 544.515 121.544 543.824C121.544 543.122 121.787 542.535 122.279 542.075C122.766 541.614 123.41 541.384 124.205 541.384C125.011 541.384 125.644 541.586 126.109 541.983C126.569 542.386 126.845 542.903 126.932 543.548H125.958C125.925 543.18 125.752 542.869 125.439 542.604C125.136 542.328 124.708 542.19 124.162 542.19C123.626 542.19 123.188 542.34 122.842 542.627C122.507 542.903 122.344 543.318 122.344 543.87Z" fill="black"/>
<path d="M131.56 550.661C130.608 550.661 129.829 550.327 129.223 549.648C128.628 548.957 128.336 548.06 128.336 546.955C128.336 545.838 128.639 544.941 129.245 544.262C129.861 543.588 130.657 543.249 131.625 543.249C132.588 543.249 133.361 543.571 133.94 544.216C134.514 544.849 134.806 545.631 134.806 546.564C134.806 546.828 134.79 547.064 134.763 547.277H129.223C129.25 548.094 129.483 548.739 129.916 549.211C130.348 549.688 130.895 549.924 131.56 549.924C132.079 549.924 132.518 549.803 132.88 549.556C133.253 549.297 133.513 548.957 133.659 548.543H134.568C134.351 549.159 133.989 549.665 133.486 550.062C132.977 550.465 132.339 550.661 131.56 550.661ZM133.919 546.564C133.919 545.769 133.691 545.136 133.248 544.676C132.799 544.204 132.242 543.962 131.582 543.962C130.916 543.962 130.37 544.193 129.937 544.653C129.504 545.113 129.266 545.752 129.223 546.564H133.919Z" fill="black"/>
<path d="M136.218 550.523V540.832H137.083V550.523H136.218Z" fill="black"/>
<path d="M141.718 550.661C140.765 550.661 139.986 550.327 139.381 549.648C138.786 548.957 138.493 548.06 138.493 546.955C138.493 545.838 138.796 544.941 139.402 544.262C140.019 543.588 140.814 543.249 141.782 543.249C142.745 543.249 143.519 543.571 144.098 544.216C144.671 544.849 144.963 545.631 144.963 546.564C144.963 546.828 144.947 547.064 144.92 547.277H139.381C139.408 548.094 139.64 548.739 140.073 549.211C140.506 549.688 141.052 549.924 141.718 549.924C142.237 549.924 142.675 549.803 143.037 549.556C143.411 549.297 143.67 548.957 143.816 548.543H144.725C144.509 549.159 144.146 549.665 143.643 550.062C143.135 550.465 142.497 550.661 141.718 550.661ZM144.076 546.564C144.076 545.769 143.849 545.136 143.405 544.676C142.956 544.204 142.399 543.962 141.739 543.962C141.074 543.962 140.527 544.193 140.095 544.653C139.662 545.113 139.424 545.752 139.381 546.564H144.076Z" fill="black"/>
<path d="M146.829 549.648C146.234 548.957 145.942 548.06 145.942 546.955C145.942 545.838 146.234 544.941 146.829 544.262C147.435 543.588 148.214 543.249 149.166 543.249C150.751 543.249 151.752 544.003 152.174 545.505H151.265C151.119 545.015 150.865 544.641 150.508 544.377C150.145 544.1 149.696 543.962 149.166 543.962C148.474 543.962 147.911 544.227 147.478 544.745C147.046 545.251 146.829 545.988 146.829 546.955C146.829 547.91 147.046 548.647 147.478 549.165C147.911 549.671 148.474 549.924 149.166 549.924C149.696 549.924 150.145 549.798 150.508 549.533C150.865 549.257 151.119 548.883 151.265 548.405H152.174C151.958 549.084 151.595 549.625 151.092 550.039C150.6 550.454 149.956 550.661 149.166 550.661C148.214 550.661 147.435 550.327 146.829 549.648Z" fill="black"/>
<path d="M156.748 544.101H154.888V548.842C154.888 549.199 154.952 549.452 155.082 549.602C155.212 549.74 155.45 549.809 155.796 549.809H156.748V550.523H155.602C154.547 550.523 154.022 549.965 154.022 548.842V544.101H153.092V543.364H154.022V541.568H154.888V543.364H156.748V544.101Z" fill="black"/>
<mask id="mask12_13_30354" style="mask-type:luminance" maskUnits="userSpaceOnUse" x="313" y="539" width="16" height="9">
<path d="M313.574 539.59H328.094V547.308H313.574V539.59Z" fill="white"/>
</mask>
<g mask="url(#mask12_13_30354)">
<path d="M320.796 547.279C320.688 547.279 320.601 547.244 320.526 547.17L313.682 540.258C313.612 540.183 313.574 540.097 313.574 539.988C313.574 539.884 313.612 539.792 313.682 539.717C313.758 539.642 313.85 539.602 313.953 539.602C314.061 539.602 314.148 539.642 314.223 539.717L320.796 546.352L327.369 539.717C327.439 539.642 327.531 539.602 327.634 539.602C327.742 539.602 327.829 539.642 327.904 539.717C327.98 539.792 328.018 539.884 328.018 539.988C328.018 540.097 327.98 540.183 327.904 540.258L321.067 547.17C320.991 547.244 320.899 547.279 320.796 547.279Z" fill="black"/>
</g>
<mask id="mask13_13_30354" style="mask-type:luminance" maskUnits="userSpaceOnUse" x="106" y="612" width="200" height="64">
<path d="M106.018 612.44H305.947V675.224H106.018V612.44Z" fill="white"/>
</mask>
<g mask="url(#mask13_13_30354)">
<path d="M106 614.44H305.886V677.224H106V614.44Z" fill="black"/>
<path d="M174.114 635.841L172.307 636.352C172.193 636.051 172.026 635.759 171.804 635.474C171.588 635.185 171.293 634.946 170.918 634.759C170.543 634.571 170.062 634.477 169.477 634.477C168.676 634.477 168.009 634.662 167.474 635.031C166.946 635.395 166.682 635.858 166.682 636.42C166.682 636.92 166.864 637.315 167.227 637.605C167.591 637.895 168.159 638.136 168.932 638.33L170.875 638.807C172.045 639.091 172.918 639.526 173.491 640.111C174.065 640.69 174.352 641.437 174.352 642.352C174.352 643.102 174.136 643.773 173.705 644.364C173.278 644.955 172.682 645.42 171.915 645.761C171.148 646.102 170.256 646.273 169.239 646.273C167.903 646.273 166.798 645.983 165.923 645.403C165.048 644.824 164.494 643.977 164.261 642.864L166.17 642.386C166.352 643.091 166.696 643.619 167.202 643.972C167.713 644.324 168.381 644.5 169.205 644.5C170.142 644.5 170.886 644.301 171.438 643.903C171.994 643.5 172.273 643.017 172.273 642.455C172.273 642 172.114 641.619 171.795 641.312C171.477 641 170.989 640.767 170.33 640.614L168.148 640.102C166.949 639.818 166.068 639.378 165.506 638.781C164.949 638.179 164.67 637.426 164.67 636.523C164.67 635.784 164.878 635.131 165.293 634.562C165.713 633.994 166.284 633.548 167.006 633.224C167.733 632.901 168.557 632.739 169.477 632.739C170.773 632.739 171.79 633.023 172.528 633.591C173.273 634.159 173.801 634.909 174.114 635.841ZM177.38 646V632.909H179.391V646H177.38ZM178.403 630.727C178.011 630.727 177.673 630.594 177.388 630.327C177.11 630.06 176.971 629.739 176.971 629.364C176.971 628.989 177.11 628.668 177.388 628.401C177.673 628.134 178.011 628 178.403 628C178.795 628 179.13 628.134 179.408 628.401C179.692 628.668 179.835 628.989 179.835 629.364C179.835 629.739 179.692 630.06 179.408 630.327C179.13 630.594 178.795 630.727 178.403 630.727ZM188.359 651.182C187.388 651.182 186.553 651.057 185.854 650.807C185.155 650.562 184.572 650.239 184.107 649.835C183.646 649.438 183.28 649.011 183.007 648.557L184.609 647.432C184.791 647.67 185.021 647.943 185.3 648.25C185.578 648.562 185.959 648.832 186.442 649.06C186.93 649.293 187.57 649.409 188.359 649.409C189.416 649.409 190.288 649.153 190.976 648.642C191.663 648.131 192.007 647.33 192.007 646.239V643.58H191.837C191.689 643.818 191.479 644.114 191.206 644.466C190.939 644.812 190.553 645.122 190.047 645.395C189.547 645.662 188.871 645.795 188.018 645.795C186.962 645.795 186.013 645.545 185.172 645.045C184.337 644.545 183.675 643.818 183.186 642.864C182.703 641.909 182.462 640.75 182.462 639.386C182.462 638.045 182.697 636.878 183.169 635.884C183.641 634.884 184.297 634.111 185.138 633.565C185.979 633.014 186.95 632.739 188.053 632.739C188.905 632.739 189.581 632.881 190.081 633.165C190.587 633.443 190.973 633.761 191.24 634.119C191.513 634.472 191.723 634.761 191.871 634.989H192.075V632.909H194.018V646.375C194.018 647.5 193.763 648.415 193.251 649.119C192.746 649.83 192.064 650.349 191.206 650.679C190.354 651.014 189.405 651.182 188.359 651.182ZM188.291 643.989C189.098 643.989 189.78 643.804 190.337 643.435C190.893 643.065 191.317 642.534 191.607 641.841C191.896 641.148 192.041 640.318 192.041 639.352C192.041 638.409 191.899 637.577 191.615 636.855C191.331 636.134 190.911 635.568 190.354 635.159C189.797 634.75 189.109 634.545 188.291 634.545C187.439 634.545 186.729 634.761 186.161 635.193C185.598 635.625 185.175 636.205 184.891 636.932C184.612 637.659 184.473 638.466 184.473 639.352C184.473 640.261 184.615 641.065 184.899 641.764C185.189 642.457 185.615 643.003 186.178 643.401C186.746 643.793 187.45 643.989 188.291 643.989ZM199.712 638.125V646H197.7V632.909H199.643V634.955H199.814C200.121 634.29 200.587 633.756 201.212 633.352C201.837 632.943 202.643 632.739 203.632 632.739C204.518 632.739 205.294 632.92 205.959 633.284C206.624 633.642 207.141 634.188 207.51 634.92C207.879 635.648 208.064 636.568 208.064 637.682V646H206.053V637.818C206.053 636.79 205.786 635.989 205.251 635.415C204.717 634.835 203.984 634.545 203.053 634.545C202.411 634.545 201.837 634.685 201.331 634.963C200.831 635.241 200.436 635.648 200.146 636.182C199.857 636.716 199.712 637.364 199.712 638.125ZM226.739 640.648V632.909H228.751V646H226.739V643.784H226.603C226.296 644.449 225.819 645.014 225.171 645.48C224.523 645.94 223.705 646.17 222.717 646.17C221.898 646.17 221.171 645.991 220.535 645.634C219.898 645.27 219.398 644.724 219.035 643.997C218.671 643.264 218.489 642.341 218.489 641.227V632.909H220.501V641.091C220.501 642.045 220.768 642.807 221.302 643.375C221.842 643.943 222.529 644.227 223.364 644.227C223.864 644.227 224.373 644.099 224.89 643.844C225.413 643.588 225.85 643.196 226.202 642.668C226.56 642.139 226.739 641.466 226.739 640.648ZM232.435 650.909V632.909H234.378V634.989H234.616C234.764 634.761 234.969 634.472 235.23 634.119C235.497 633.761 235.878 633.443 236.372 633.165C236.872 632.881 237.548 632.739 238.401 632.739C239.503 632.739 240.474 633.014 241.315 633.565C242.156 634.116 242.813 634.898 243.284 635.909C243.756 636.92 243.991 638.114 243.991 639.489C243.991 640.875 243.756 642.077 243.284 643.094C242.813 644.105 242.159 644.889 241.324 645.446C240.489 645.997 239.526 646.273 238.435 646.273C237.594 646.273 236.92 646.134 236.415 645.855C235.909 645.571 235.52 645.25 235.247 644.892C234.974 644.528 234.764 644.227 234.616 643.989H234.446V650.909H232.435ZM234.412 639.455C234.412 640.443 234.557 641.315 234.847 642.071C235.136 642.821 235.56 643.409 236.116 643.835C236.673 644.256 237.355 644.466 238.162 644.466C239.003 644.466 239.705 644.244 240.267 643.801C240.835 643.352 241.261 642.75 241.545 641.994C241.835 641.233 241.98 640.386 241.98 639.455C241.98 638.534 241.838 637.705 241.554 636.966C241.276 636.222 240.852 635.634 240.284 635.202C239.722 634.764 239.014 634.545 238.162 634.545C237.344 634.545 236.656 634.753 236.099 635.168C235.543 635.577 235.122 636.151 234.838 636.889C234.554 637.622 234.412 638.477 234.412 639.455Z" fill="white"/>
</g>
<mask id="mask14_13_30354" style="mask-type:luminance" maskUnits="userSpaceOnUse" x="163" y="652" width="87" height="4">
<path d="M197.305 652.107H232.695V655.054H197.305V652.107ZM240.55 652.107H249.275V655.054H240.55V652.107ZM163.414 652.107H181.742V655.054H163.414V652.107Z" fill="white"/>
</mask>
<g mask="url(#mask14_13_30354)">
<path d="M163.944 652.654H248.004V654.864H163.944V652.654Z" fill="white"/>
</g>
<mask id="mask15_13_30354" style="mask-type:luminance" maskUnits="userSpaceOnUse" x="102" y="287" width="243" height="49">
<path d="M102.75 287.694H344.263V335.084H102.75V287.694Z" fill="white"/>
</mask>
<g mask="url(#mask15_13_30354)">
<path d="M102.323 287.245H344.739V335.539H102.323V287.245Z" fill="white"/>
</g>
<mask id="mask16_13_30354" style="mask-type:luminance" maskUnits="userSpaceOnUse" x="102" y="287" width="243" height="49">
<path d="M102.323 287.245H344.69V288.148H102.323V287.245ZM343.841 288.148H344.69V334.635H343.841V288.148ZM102.323 288.148H103.172V334.635H102.323V288.148ZM102.323 334.635H344.69V335.539H102.323V334.635Z" fill="white"/>
</mask>
<g mask="url(#mask16_13_30354)">
<path d="M102.323 287.245H344.739V335.539H102.323V287.245Z" fill="black"/>
</g>
<path d="M103.234 278.398V269.236H104.272V277.523H108.275V278.398H103.234Z" fill="white"/>
<path d="M110.782 278.398L113.963 269.236H115.067L118.226 278.398H117.123L116.344 276.05H112.665L111.864 278.398H110.782ZM112.968 275.152H116.019L114.504 270.618L112.968 275.152Z" fill="white"/>
<path d="M123.873 278.559C123.234 278.559 122.682 278.433 122.206 278.191C121.741 277.949 121.384 277.61 121.124 277.178C120.876 276.735 120.757 276.229 120.757 275.659H121.839C121.839 276.016 121.914 276.344 122.077 276.649C122.233 276.942 122.455 277.178 122.747 277.362C123.05 277.535 123.424 277.615 123.873 277.615C124.446 277.615 124.895 277.472 125.214 277.178C125.544 276.89 125.712 276.522 125.712 276.073C125.712 275.705 125.631 275.417 125.474 275.198C125.328 274.968 125.133 274.784 124.89 274.646C124.641 274.508 124.354 274.387 124.024 274.278C123.705 274.174 123.364 274.047 123.007 273.909C122.342 273.668 121.849 273.368 121.536 273.012C121.216 272.643 121.06 272.171 121.06 271.584C121.043 271.095 121.146 270.664 121.362 270.295C121.59 269.916 121.909 269.616 122.315 269.398C122.715 269.185 123.202 269.075 123.764 269.075C124.311 269.075 124.787 269.185 125.192 269.398C125.593 269.616 125.912 269.916 126.145 270.295C126.372 270.681 126.491 271.118 126.491 271.607H125.409C125.409 271.366 125.344 271.118 125.214 270.871C125.095 270.612 124.911 270.405 124.652 270.249C124.403 270.1 124.094 270.019 123.721 270.019C123.256 270.008 122.877 270.128 122.574 270.387C122.271 270.652 122.12 271.02 122.12 271.492C122.12 271.878 122.217 272.177 122.423 272.39C122.639 272.592 122.931 272.758 123.31 272.897C123.699 273.035 124.138 273.196 124.63 273.38C125.03 273.535 125.398 273.719 125.733 273.932C126.063 274.134 126.318 274.404 126.491 274.738C126.675 275.06 126.772 275.486 126.772 276.004C126.772 276.436 126.664 276.85 126.448 277.247C126.242 277.633 125.928 277.949 125.495 278.191C125.063 278.433 124.522 278.559 123.873 278.559Z" fill="white"/>
<path d="M131.879 278.398V270.134H129.326V269.236H135.493V270.134H132.918V278.398H131.879Z" fill="white"/>
<path d="M143.276 278.398V269.236H144.315L148.902 276.58V269.236H149.941V278.398H148.902L144.315 271.055V278.398H143.276Z" fill="white"/>
<path d="M152.844 278.398L156.025 269.236H157.128L160.287 278.398H159.184L158.405 276.05H154.726L153.926 278.398H152.844ZM155.029 275.152H158.08L156.566 270.618L155.029 275.152Z" fill="white"/>
<path d="M163.186 278.398V269.236H164.398L167.492 275.613L170.586 269.236H171.798V278.398H170.759V271.193L167.881 277.086H167.102L164.224 271.216V278.398H163.186Z" fill="white"/>
<path d="M175.24 278.398V269.236H180.563V270.134H176.279V273.334H180.195V274.209H176.279V277.5H180.563V278.398H175.24Z" fill="white"/>
<g filter="url(#filter0_d_13_30354)">
<path d="M130 129H330V167H130V129Z" fill="#D9D9D9"/>
<path d="M130.5 129.5H329.5V166.5H130.5V129.5Z" stroke="black"/>
</g>
<path d="M158.415 153H157.307L160.511 144.273H161.602L164.807 153H163.699L161.091 145.653H161.023L158.415 153ZM158.824 149.591H163.29V150.528H158.824V149.591ZM167.036 144.273V153H166.03V144.273H167.036ZM168.877 153V146.455H169.849V147.443H169.917C170.037 147.119 170.252 146.857 170.565 146.655C170.877 146.453 171.23 146.352 171.622 146.352C171.696 146.352 171.788 146.354 171.899 146.357C172.01 146.359 172.093 146.364 172.15 146.369V147.392C172.116 147.384 172.038 147.371 171.916 147.354C171.797 147.334 171.67 147.324 171.537 147.324C171.218 147.324 170.934 147.391 170.684 147.524C170.437 147.655 170.241 147.837 170.096 148.07C169.954 148.3 169.883 148.562 169.883 148.858V153H168.877ZM175.887 153.136C175.257 153.136 174.713 152.997 174.255 152.719C173.801 152.438 173.45 152.045 173.203 151.543C172.958 151.037 172.836 150.449 172.836 149.778C172.836 149.108 172.958 148.517 173.203 148.006C173.45 147.491 173.794 147.091 174.234 146.804C174.677 146.514 175.194 146.369 175.785 146.369C176.126 146.369 176.463 146.426 176.795 146.54C177.127 146.653 177.43 146.838 177.703 147.094C177.975 147.347 178.193 147.682 178.355 148.099C178.517 148.517 178.598 149.031 178.598 149.642V150.068H173.552V149.199H177.575C177.575 148.83 177.501 148.5 177.353 148.21C177.208 147.92 177.001 147.692 176.731 147.524C176.464 147.357 176.149 147.273 175.785 147.273C175.385 147.273 175.038 147.372 174.745 147.571C174.456 147.767 174.233 148.023 174.076 148.338C173.92 148.653 173.842 148.991 173.842 149.352V149.932C173.842 150.426 173.927 150.845 174.098 151.189C174.271 151.53 174.511 151.79 174.818 151.969C175.125 152.145 175.481 152.233 175.887 152.233C176.152 152.233 176.39 152.196 176.603 152.122C176.819 152.045 177.005 151.932 177.162 151.781C177.318 151.628 177.439 151.437 177.524 151.21L178.495 151.483C178.393 151.812 178.221 152.102 177.98 152.352C177.738 152.599 177.44 152.793 177.085 152.932C176.73 153.068 176.331 153.136 175.887 153.136ZM182.054 153.153C181.639 153.153 181.262 153.075 180.924 152.919C180.586 152.76 180.318 152.531 180.119 152.233C179.92 151.932 179.821 151.568 179.821 151.142C179.821 150.767 179.895 150.463 180.042 150.23C180.19 149.994 180.387 149.81 180.635 149.676C180.882 149.543 181.154 149.443 181.453 149.378C181.754 149.31 182.056 149.256 182.36 149.216C182.758 149.165 183.081 149.126 183.328 149.101C183.578 149.072 183.76 149.026 183.873 148.96C183.99 148.895 184.048 148.781 184.048 148.619V148.585C184.048 148.165 183.933 147.838 183.703 147.605C183.475 147.372 183.13 147.256 182.667 147.256C182.187 147.256 181.811 147.361 181.538 147.571C181.265 147.781 181.074 148.006 180.963 148.244L180.008 147.903C180.179 147.506 180.406 147.196 180.69 146.974C180.977 146.75 181.289 146.594 181.627 146.506C181.968 146.415 182.304 146.369 182.633 146.369C182.843 146.369 183.085 146.395 183.358 146.446C183.633 146.494 183.899 146.595 184.154 146.749C184.413 146.902 184.627 147.134 184.798 147.443C184.968 147.753 185.054 148.168 185.054 148.688V153H184.048V152.114H183.997C183.929 152.256 183.815 152.408 183.656 152.57C183.497 152.732 183.285 152.869 183.021 152.983C182.757 153.097 182.434 153.153 182.054 153.153ZM182.207 152.25C182.605 152.25 182.94 152.172 183.213 152.016C183.488 151.859 183.696 151.658 183.835 151.411C183.977 151.163 184.048 150.903 184.048 150.631V149.71C184.005 149.761 183.912 149.808 183.767 149.851C183.625 149.891 183.46 149.926 183.272 149.957C183.088 149.986 182.907 150.011 182.731 150.034C182.558 150.054 182.417 150.071 182.309 150.085C182.048 150.119 181.804 150.175 181.576 150.251C181.352 150.325 181.17 150.437 181.031 150.588C180.895 150.736 180.826 150.937 180.826 151.193C180.826 151.543 180.956 151.807 181.214 151.986C181.475 152.162 181.806 152.25 182.207 152.25ZM189.361 153.136C188.815 153.136 188.334 152.999 187.916 152.723C187.499 152.445 187.172 152.053 186.936 151.547C186.7 151.038 186.582 150.438 186.582 149.744C186.582 149.057 186.7 148.46 186.936 147.955C187.172 147.449 187.5 147.058 187.92 146.783C188.341 146.507 188.827 146.369 189.378 146.369C189.804 146.369 190.141 146.44 190.388 146.582C190.638 146.722 190.828 146.881 190.959 147.06C191.092 147.236 191.196 147.381 191.27 147.494H191.355V144.273H192.361V153H191.389V151.994H191.27C191.196 152.114 191.091 152.264 190.955 152.446C190.818 152.625 190.624 152.786 190.371 152.928C190.118 153.067 189.781 153.136 189.361 153.136ZM189.497 152.233C189.901 152.233 190.241 152.128 190.52 151.918C190.798 151.705 191.01 151.411 191.155 151.036C191.3 150.658 191.372 150.222 191.372 149.727C191.372 149.239 191.301 148.811 191.159 148.445C191.017 148.075 190.807 147.788 190.528 147.584C190.25 147.376 189.906 147.273 189.497 147.273C189.071 147.273 188.716 147.382 188.432 147.601C188.151 147.817 187.939 148.111 187.797 148.483C187.658 148.852 187.588 149.267 187.588 149.727C187.588 150.193 187.659 150.616 187.801 150.997C187.946 151.375 188.159 151.676 188.44 151.901C188.724 152.122 189.077 152.233 189.497 152.233ZM194.99 155.455C194.82 155.455 194.668 155.44 194.534 155.412C194.401 155.386 194.308 155.361 194.257 155.335L194.513 154.449C194.757 154.511 194.973 154.534 195.161 154.517C195.348 154.5 195.514 154.416 195.659 154.266C195.807 154.118 195.942 153.878 196.064 153.545L196.251 153.034L193.831 146.455H194.922L196.729 151.67H196.797L198.604 146.455H199.695L196.916 153.955C196.791 154.293 196.636 154.572 196.452 154.794C196.267 155.018 196.053 155.185 195.808 155.293C195.567 155.401 195.294 155.455 194.99 155.455ZM204.533 153V144.273H207.482C208.164 144.273 208.724 144.389 209.161 144.622C209.599 144.852 209.923 145.169 210.133 145.572C210.343 145.976 210.448 146.435 210.448 146.949C210.448 147.463 210.343 147.919 210.133 148.317C209.923 148.714 209.6 149.027 209.165 149.254C208.731 149.479 208.175 149.591 207.499 149.591H205.113V148.636H207.465C207.931 148.636 208.306 148.568 208.59 148.432C208.877 148.295 209.085 148.102 209.212 147.852C209.343 147.599 209.408 147.298 209.408 146.949C209.408 146.599 209.343 146.294 209.212 146.033C209.082 145.771 208.873 145.57 208.586 145.428C208.299 145.283 207.92 145.21 207.448 145.21H205.59V153H204.533ZM208.641 149.08L210.789 153H209.562L207.448 149.08H208.641ZM214.747 153.136C214.116 153.136 213.572 152.997 213.115 152.719C212.66 152.438 212.309 152.045 212.062 151.543C211.818 151.037 211.696 150.449 211.696 149.778C211.696 149.108 211.818 148.517 212.062 148.006C212.309 147.491 212.653 147.091 213.093 146.804C213.537 146.514 214.054 146.369 214.645 146.369C214.985 146.369 215.322 146.426 215.654 146.54C215.987 146.653 216.289 146.838 216.562 147.094C216.835 147.347 217.052 147.682 217.214 148.099C217.376 148.517 217.457 149.031 217.457 149.642V150.068H212.412V149.199H216.434C216.434 148.83 216.36 148.5 216.213 148.21C216.068 147.92 215.86 147.692 215.591 147.524C215.324 147.357 215.008 147.273 214.645 147.273C214.244 147.273 213.897 147.372 213.605 147.571C213.315 147.767 213.092 148.023 212.936 148.338C212.779 148.653 212.701 148.991 212.701 149.352V149.932C212.701 150.426 212.787 150.845 212.957 151.189C213.13 151.53 213.37 151.79 213.677 151.969C213.984 152.145 214.341 152.233 214.747 152.233C215.011 152.233 215.25 152.196 215.463 152.122C215.679 152.045 215.865 151.932 216.021 151.781C216.177 151.628 216.298 151.437 216.383 151.21L217.355 151.483C217.252 151.812 217.081 152.102 216.839 152.352C216.598 152.599 216.299 152.793 215.944 152.932C215.589 153.068 215.19 153.136 214.747 153.136ZM221.629 155.591C221.143 155.591 220.725 155.528 220.376 155.403C220.027 155.281 219.735 155.119 219.502 154.918C219.272 154.719 219.089 154.506 218.953 154.278L219.754 153.716C219.845 153.835 219.96 153.972 220.099 154.125C220.238 154.281 220.429 154.416 220.67 154.53C220.914 154.646 221.234 154.705 221.629 154.705C222.157 154.705 222.593 154.577 222.937 154.321C223.281 154.065 223.453 153.665 223.453 153.119V151.79H223.368C223.294 151.909 223.189 152.057 223.052 152.233C222.919 152.406 222.725 152.561 222.473 152.697C222.223 152.831 221.885 152.898 221.458 152.898C220.93 152.898 220.456 152.773 220.035 152.523C219.618 152.273 219.287 151.909 219.042 151.432C218.801 150.955 218.68 150.375 218.68 149.693C218.68 149.023 218.798 148.439 219.034 147.942C219.27 147.442 219.598 147.055 220.018 146.783C220.439 146.507 220.924 146.369 221.475 146.369C221.902 146.369 222.24 146.44 222.49 146.582C222.743 146.722 222.936 146.881 223.069 147.06C223.206 147.236 223.311 147.381 223.385 147.494H223.487V146.455H224.458V153.188C224.458 153.75 224.331 154.207 224.075 154.56C223.822 154.915 223.481 155.175 223.052 155.339C222.626 155.507 222.152 155.591 221.629 155.591ZM221.595 151.994C221.998 151.994 222.339 151.902 222.618 151.717C222.896 151.533 223.108 151.267 223.252 150.92C223.397 150.574 223.47 150.159 223.47 149.676C223.47 149.205 223.399 148.788 223.257 148.428C223.115 148.067 222.904 147.784 222.626 147.58C222.348 147.375 222.004 147.273 221.595 147.273C221.169 147.273 220.814 147.381 220.529 147.597C220.248 147.812 220.037 148.102 219.895 148.466C219.755 148.83 219.686 149.233 219.686 149.676C219.686 150.131 219.757 150.533 219.899 150.882C220.044 151.229 220.257 151.501 220.538 151.7C220.822 151.896 221.174 151.994 221.595 151.994ZM226.299 153V146.455H227.305V153H226.299ZM226.811 145.364C226.615 145.364 226.446 145.297 226.304 145.163C226.164 145.03 226.095 144.869 226.095 144.682C226.095 144.494 226.164 144.334 226.304 144.2C226.446 144.067 226.615 144 226.811 144C227.007 144 227.174 144.067 227.314 144.2C227.456 144.334 227.527 144.494 227.527 144.682C227.527 144.869 227.456 145.03 227.314 145.163C227.174 145.297 227.007 145.364 226.811 145.364ZM233.783 147.92L232.88 148.176C232.823 148.026 232.739 147.879 232.629 147.737C232.521 147.592 232.373 147.473 232.185 147.379C231.998 147.286 231.758 147.239 231.465 147.239C231.065 147.239 230.731 147.331 230.464 147.516C230.2 147.697 230.067 147.929 230.067 148.21C230.067 148.46 230.158 148.658 230.34 148.803C230.522 148.947 230.806 149.068 231.192 149.165L232.164 149.403C232.749 149.545 233.185 149.763 233.472 150.055C233.759 150.345 233.903 150.719 233.903 151.176C233.903 151.551 233.795 151.886 233.579 152.182C233.366 152.477 233.067 152.71 232.684 152.881C232.3 153.051 231.854 153.136 231.346 153.136C230.678 153.136 230.126 152.991 229.688 152.702C229.251 152.412 228.974 151.989 228.857 151.432L229.812 151.193C229.903 151.545 230.075 151.81 230.327 151.986C230.583 152.162 230.917 152.25 231.329 152.25C231.798 152.25 232.17 152.151 232.445 151.952C232.724 151.75 232.863 151.509 232.863 151.227C232.863 151 232.783 150.81 232.624 150.656C232.465 150.5 232.221 150.384 231.891 150.307L230.8 150.051C230.201 149.909 229.761 149.689 229.479 149.391C229.201 149.089 229.062 148.713 229.062 148.261C229.062 147.892 229.165 147.565 229.373 147.281C229.583 146.997 229.869 146.774 230.229 146.612C230.593 146.45 231.005 146.369 231.465 146.369C232.113 146.369 232.621 146.511 232.991 146.795C233.363 147.08 233.627 147.455 233.783 147.92ZM238.263 146.455V147.307H234.871V146.455H238.263ZM235.86 144.886H236.865V151.125C236.865 151.409 236.907 151.622 236.989 151.764C237.074 151.903 237.182 151.997 237.313 152.045C237.446 152.091 237.587 152.114 237.735 152.114C237.846 152.114 237.936 152.108 238.007 152.097C238.078 152.082 238.135 152.071 238.178 152.062L238.382 152.966C238.314 152.991 238.219 153.017 238.097 153.043C237.975 153.071 237.82 153.085 237.632 153.085C237.348 153.085 237.07 153.024 236.797 152.902C236.527 152.78 236.303 152.594 236.124 152.344C235.948 152.094 235.86 151.778 235.86 151.398V144.886ZM242.45 153.136C241.819 153.136 241.275 152.997 240.818 152.719C240.363 152.438 240.012 152.045 239.765 151.543C239.521 151.037 239.399 150.449 239.399 149.778C239.399 149.108 239.521 148.517 239.765 148.006C240.012 147.491 240.356 147.091 240.797 146.804C241.24 146.514 241.757 146.369 242.348 146.369C242.689 146.369 243.025 146.426 243.358 146.54C243.69 146.653 243.993 146.838 244.265 147.094C244.538 147.347 244.755 147.682 244.917 148.099C245.079 148.517 245.16 149.031 245.16 149.642V150.068H240.115V149.199H244.137C244.137 148.83 244.064 148.5 243.916 148.21C243.771 147.92 243.564 147.692 243.294 147.524C243.027 147.357 242.711 147.273 242.348 147.273C241.947 147.273 241.6 147.372 241.308 147.571C241.018 147.767 240.795 148.023 240.639 148.338C240.483 148.653 240.404 148.991 240.404 149.352V149.932C240.404 150.426 240.49 150.845 240.66 151.189C240.833 151.53 241.074 151.79 241.38 151.969C241.687 152.145 242.044 152.233 242.45 152.233C242.714 152.233 242.953 152.196 243.166 152.122C243.382 152.045 243.568 151.932 243.724 151.781C243.88 151.628 244.001 151.437 244.086 151.21L245.058 151.483C244.956 151.812 244.784 152.102 244.542 152.352C244.301 152.599 244.002 152.793 243.647 152.932C243.292 153.068 242.893 153.136 242.45 153.136ZM246.69 153V146.455H247.662V147.443H247.73C247.849 147.119 248.065 146.857 248.377 146.655C248.69 146.453 249.042 146.352 249.434 146.352C249.508 146.352 249.6 146.354 249.711 146.357C249.822 146.359 249.906 146.364 249.963 146.369V147.392C249.929 147.384 249.85 147.371 249.728 147.354C249.609 147.334 249.483 147.324 249.349 147.324C249.031 147.324 248.747 147.391 248.497 147.524C248.25 147.655 248.054 147.837 247.909 148.07C247.767 148.3 247.696 148.562 247.696 148.858V153H246.69ZM253.7 153.136C253.069 153.136 252.525 152.997 252.068 152.719C251.613 152.438 251.262 152.045 251.015 151.543C250.771 151.037 250.649 150.449 250.649 149.778C250.649 149.108 250.771 148.517 251.015 148.006C251.262 147.491 251.606 147.091 252.047 146.804C252.49 146.514 253.007 146.369 253.598 146.369C253.939 146.369 254.275 146.426 254.608 146.54C254.94 146.653 255.243 146.838 255.515 147.094C255.788 147.347 256.005 147.682 256.167 148.099C256.329 148.517 256.41 149.031 256.41 149.642V150.068H251.365V149.199H255.387C255.387 148.83 255.314 148.5 255.166 148.21C255.021 147.92 254.814 147.692 254.544 147.524C254.277 147.357 253.961 147.273 253.598 147.273C253.197 147.273 252.85 147.372 252.558 147.571C252.268 147.767 252.045 148.023 251.889 148.338C251.733 148.653 251.654 148.991 251.654 149.352V149.932C251.654 150.426 251.74 150.845 251.91 151.189C252.083 151.53 252.324 151.79 252.63 151.969C252.937 152.145 253.294 152.233 253.7 152.233C253.964 152.233 254.203 152.196 254.416 152.122C254.632 152.045 254.818 151.932 254.974 151.781C255.13 151.628 255.251 151.437 255.336 151.21L256.308 151.483C256.206 151.812 256.034 152.102 255.792 152.352C255.551 152.599 255.252 152.793 254.897 152.932C254.542 153.068 254.143 153.136 253.7 153.136ZM260.412 153.136C259.866 153.136 259.385 152.999 258.967 152.723C258.549 152.445 258.223 152.053 257.987 151.547C257.751 151.038 257.633 150.438 257.633 149.744C257.633 149.057 257.751 148.46 257.987 147.955C258.223 147.449 258.551 147.058 258.971 146.783C259.392 146.507 259.877 146.369 260.429 146.369C260.855 146.369 261.191 146.44 261.439 146.582C261.689 146.722 261.879 146.881 262.01 147.06C262.143 147.236 262.247 147.381 262.321 147.494H262.406V144.273H263.412V153H262.44V151.994H262.321C262.247 152.114 262.142 152.264 262.005 152.446C261.869 152.625 261.674 152.786 261.422 152.928C261.169 153.067 260.832 153.136 260.412 153.136ZM260.548 152.233C260.951 152.233 261.292 152.128 261.571 151.918C261.849 151.705 262.061 151.411 262.206 151.036C262.35 150.658 262.423 150.222 262.423 149.727C262.423 149.239 262.352 148.811 262.21 148.445C262.068 148.075 261.858 147.788 261.579 147.584C261.301 147.376 260.957 147.273 260.548 147.273C260.122 147.273 259.767 147.382 259.483 147.601C259.201 147.817 258.99 148.111 258.848 148.483C258.708 148.852 258.639 149.267 258.639 149.727C258.639 150.193 258.71 150.616 258.852 150.997C258.997 151.375 259.21 151.676 259.491 151.901C259.775 152.122 260.127 152.233 260.548 152.233ZM266.706 150.545V150.494C266.711 149.952 266.768 149.52 266.876 149.199C266.984 148.878 267.137 148.618 267.336 148.419C267.535 148.22 267.774 148.037 268.052 147.869C268.22 147.767 268.37 147.646 268.504 147.507C268.637 147.365 268.743 147.202 268.819 147.017C268.899 146.832 268.939 146.628 268.939 146.403C268.939 146.125 268.873 145.884 268.743 145.679C268.612 145.474 268.437 145.317 268.218 145.206C268 145.095 267.757 145.04 267.49 145.04C267.257 145.04 267.032 145.088 266.816 145.185C266.6 145.281 266.42 145.433 266.275 145.641C266.13 145.848 266.047 146.119 266.024 146.455H264.95C264.973 145.972 265.098 145.558 265.325 145.214C265.555 144.871 265.858 144.608 266.233 144.426C266.61 144.244 267.029 144.153 267.49 144.153C267.99 144.153 268.424 144.253 268.794 144.452C269.166 144.651 269.453 144.923 269.654 145.27C269.859 145.616 269.961 146.011 269.961 146.455C269.961 146.767 269.913 147.05 269.816 147.303C269.723 147.555 269.586 147.781 269.407 147.98C269.231 148.179 269.018 148.355 268.768 148.509C268.518 148.665 268.318 148.83 268.167 149.003C268.017 149.173 267.907 149.376 267.839 149.612C267.771 149.848 267.734 150.142 267.728 150.494V150.545H266.706ZM267.251 153.068C267.041 153.068 266.86 152.993 266.71 152.842C266.559 152.692 266.484 152.511 266.484 152.301C266.484 152.091 266.559 151.911 266.71 151.76C266.86 151.609 267.041 151.534 267.251 151.534C267.461 151.534 267.642 151.609 267.792 151.76C267.943 151.911 268.018 152.091 268.018 152.301C268.018 152.44 267.983 152.568 267.912 152.685C267.843 152.801 267.751 152.895 267.635 152.966C267.521 153.034 267.393 153.068 267.251 153.068ZM274.987 153V144.273H276.043V152.062H280.1V153H274.987ZM284.259 153.136C283.668 153.136 283.15 152.996 282.704 152.714C282.261 152.433 281.914 152.04 281.664 151.534C281.417 151.028 281.293 150.437 281.293 149.761C281.293 149.08 281.417 148.484 281.664 147.976C281.914 147.467 282.261 147.072 282.704 146.791C283.15 146.51 283.668 146.369 284.259 146.369C284.85 146.369 285.367 146.51 285.81 146.791C286.256 147.072 286.603 147.467 286.85 147.976C287.1 148.484 287.225 149.08 287.225 149.761C287.225 150.437 287.1 151.028 286.85 151.534C286.603 152.04 286.256 152.433 285.81 152.714C285.367 152.996 284.85 153.136 284.259 153.136ZM284.259 152.233C284.708 152.233 285.077 152.118 285.367 151.888C285.657 151.658 285.871 151.355 286.011 150.98C286.15 150.605 286.219 150.199 286.219 149.761C286.219 149.324 286.15 148.916 286.011 148.538C285.871 148.161 285.657 147.855 285.367 147.622C285.077 147.389 284.708 147.273 284.259 147.273C283.81 147.273 283.441 147.389 283.151 147.622C282.862 147.855 282.647 148.161 282.508 148.538C282.369 148.916 282.299 149.324 282.299 149.761C282.299 150.199 282.369 150.605 282.508 150.98C282.647 151.355 282.862 151.658 283.151 151.888C283.441 152.118 283.81 152.233 284.259 152.233ZM291.402 155.591C290.917 155.591 290.499 155.528 290.15 155.403C289.8 155.281 289.509 155.119 289.276 154.918C289.046 154.719 288.863 154.506 288.726 154.278L289.527 153.716C289.618 153.835 289.733 153.972 289.873 154.125C290.012 154.281 290.202 154.416 290.444 154.53C290.688 154.646 291.007 154.705 291.402 154.705C291.931 154.705 292.367 154.577 292.711 154.321C293.054 154.065 293.226 153.665 293.226 153.119V151.79H293.141C293.067 151.909 292.962 152.057 292.826 152.233C292.692 152.406 292.499 152.561 292.246 152.697C291.996 152.831 291.658 152.898 291.232 152.898C290.703 152.898 290.229 152.773 289.809 152.523C289.391 152.273 289.06 151.909 288.816 151.432C288.574 150.955 288.453 150.375 288.453 149.693C288.453 149.023 288.571 148.439 288.807 147.942C289.043 147.442 289.371 147.055 289.792 146.783C290.212 146.507 290.698 146.369 291.249 146.369C291.675 146.369 292.013 146.44 292.263 146.582C292.516 146.722 292.709 146.881 292.843 147.06C292.979 147.236 293.084 147.381 293.158 147.494H293.26V146.455H294.232V153.188C294.232 153.75 294.104 154.207 293.848 154.56C293.596 154.915 293.255 155.175 292.826 155.339C292.4 155.507 291.925 155.591 291.402 155.591ZM291.368 151.994C291.772 151.994 292.113 151.902 292.391 151.717C292.669 151.533 292.881 151.267 293.026 150.92C293.171 150.574 293.243 150.159 293.243 149.676C293.243 149.205 293.172 148.788 293.03 148.428C292.888 148.067 292.678 147.784 292.4 147.58C292.121 147.375 291.777 147.273 291.368 147.273C290.942 147.273 290.587 147.381 290.303 147.597C290.022 147.812 289.81 148.102 289.668 148.466C289.529 148.83 289.459 149.233 289.459 149.676C289.459 150.131 289.53 150.533 289.672 150.882C289.817 151.229 290.03 151.501 290.311 151.7C290.596 151.896 290.948 151.994 291.368 151.994ZM296.073 153V146.455H297.078V153H296.073ZM296.584 145.364C296.388 145.364 296.219 145.297 296.077 145.163C295.938 145.03 295.868 144.869 295.868 144.682C295.868 144.494 295.938 144.334 296.077 144.2C296.219 144.067 296.388 144 296.584 144C296.78 144 296.948 144.067 297.087 144.2C297.229 144.334 297.3 144.494 297.3 144.682C297.3 144.869 297.229 145.03 297.087 145.163C296.948 145.297 296.78 145.364 296.584 145.364ZM299.926 149.062V153H298.92V146.455H299.892V147.477H299.977C300.131 147.145 300.364 146.878 300.676 146.676C300.989 146.472 301.392 146.369 301.886 146.369C302.33 146.369 302.717 146.46 303.05 146.642C303.382 146.821 303.641 147.094 303.825 147.46C304.01 147.824 304.102 148.284 304.102 148.841V153H303.097V148.909C303.097 148.395 302.963 147.994 302.696 147.707C302.429 147.418 302.063 147.273 301.597 147.273C301.276 147.273 300.989 147.342 300.736 147.482C300.486 147.621 300.288 147.824 300.143 148.091C299.999 148.358 299.926 148.682 299.926 149.062Z" fill="black"/>
</g>
</g>
<defs>
<filter id="filter0_d_13_30354" x="126" y="129" width="208" height="46" filterUnits="userSpaceOnUse" color-interpolation-filters="sRGB">
<feFlood flood-opacity="0" result="BackgroundImageFix"/>
<feColorMatrix in="SourceAlpha" type="matrix" values="0 0 0 0 0 0 0 0 0 0 0 0 0 0 0 0 0 0 127 0" result="hardAlpha"/>
<feOffset dy="4"/>
<feGaussianBlur stdDeviation="2"/>
<feComposite in2="hardAlpha" operator="out"/>
<feColorMatrix type="matrix" values="0 0 0 0 0 0 0 0 0 0 0 0 0 0 0 0 0 0 0.25 0"/>
<feBlend mode="normal" in2="BackgroundImageFix" result="effect1_dropShadow_13_30354"/>
<feBlend mode="normal" in="SourceGraphic" in2="effect1_dropShadow_13_30354" result="shape"/>
</filter>
<clipPath id="clip0_13_30354">
<rect width="430" height="932" fill="white"/>
</clipPath>
<clipPath id="clip1_13_30354">
<rect width="430" height="990" fill="white" transform="translate(0 -2)"/>
</clipPath>
</defs>
</svg>
