<svg width="430" height="932" viewBox="0 0 430 932" fill="none" xmlns="http://www.w3.org/2000/svg">
<g clip-path="url(#clip0_13_32179)">
<rect width="430" height="932" fill="white"/>
<g clip-path="url(#clip1_13_32179)">
<mask id="mask0_13_32179" style="mask-type:luminance" maskUnits="userSpaceOnUse" x="0" y="0" width="440" height="932">
<path d="M0 0.74762H439.291V931.247H0V0.74762Z" fill="white"/>
</mask>
<g mask="url(#mask0_13_32179)">
<path d="M0 0.74762H439.291V931.252H0V0.74762Z" fill="white"/>
<path d="M0 0.74762H439.291V931.252H0V0.74762Z" fill="#560216"/>
</g>
<mask id="mask1_13_32179" style="mask-type:luminance" maskUnits="userSpaceOnUse" x="0" y="1" width="440" height="30">
<path d="M0.420654 1.16479H439.291V30.4523H0.420654V1.16479Z" fill="white"/>
</mask>
<g mask="url(#mask1_13_32179)">
<path d="M0 0.74765H709.907V30.8641H0V0.74765Z" fill="white"/>
</g>
<mask id="mask2_13_32179" style="mask-type:luminance" maskUnits="userSpaceOnUse" x="0" y="0" width="440" height="31">
<path d="M0 0.74762H439.291V1.57651H0V0.74762ZM0 1.57651H0.84692V30.0351H0V1.57651ZM0 30.0351H439.291V30.864H0V30.0351Z" fill="white"/>
</mask>
<g mask="url(#mask2_13_32179)">
<path d="M0 0.74762H709.907V30.864H0V0.74762Z" fill="black"/>
</g>
<mask id="mask3_13_32179" style="mask-type:luminance" maskUnits="userSpaceOnUse" x="41" y="13" width="17" height="6">
<path d="M41.095 13.6848H57.4189V18.0243H41.095V13.6848Z" fill="white"/>
</mask>
<g mask="url(#mask3_13_32179)">
<path d="M54.7288 18.0352C54.4355 18.0352 54.1587 17.981 53.893 17.8672C53.6217 17.7589 53.3893 17.6018 53.1845 17.3959C52.9796 17.1954 52.8191 16.9571 52.7084 16.6916C52.5977 16.4261 52.5423 16.1498 52.5423 15.8573C52.5423 15.5702 52.5977 15.2939 52.7084 15.0284C52.8191 14.7575 52.9796 14.5246 53.1845 14.3187C53.3893 14.1183 53.6217 13.9611 53.893 13.8474C54.1587 13.739 54.4355 13.6848 54.7288 13.6848C55.0167 13.6848 55.2934 13.739 55.5647 13.8474C55.8304 13.9611 56.0684 14.1183 56.2732 14.3187C56.478 14.5246 56.633 14.7575 56.7437 15.0284C56.8544 15.2939 56.9098 15.5702 56.9098 15.8573C56.9098 16.1498 56.8544 16.4261 56.7437 16.6916C56.633 16.9571 56.478 17.1954 56.2732 17.3959C56.0684 17.6018 55.8304 17.7589 55.5647 17.8672C55.2934 17.981 55.0167 18.0352 54.7288 18.0352ZM54.7288 14.5029C54.3524 14.5029 54.0314 14.6329 53.7657 14.8984C53.5 15.1638 53.3671 15.4835 53.3671 15.8573C53.3671 16.2311 53.5 16.5562 53.7657 16.8162C54.0314 17.0817 54.3524 17.2171 54.7288 17.2171C55.1052 17.2171 55.4263 17.0817 55.692 16.8162C55.9577 16.5562 56.0906 16.2311 56.0906 15.8573C56.0906 15.4835 55.9577 15.1638 55.692 14.8984C55.4263 14.6329 55.1052 14.5029 54.7288 14.5029ZM49.0993 18.0352C48.8115 18.0352 48.5292 17.981 48.2635 17.8672C47.9978 17.7589 47.7597 17.6018 47.5549 17.3959C47.3501 17.1954 47.1951 16.9571 47.0844 16.6916C46.9737 16.4261 46.9183 16.1498 46.9183 15.8573C46.9183 15.5702 46.9737 15.2939 47.0844 15.0284C47.1951 14.7575 47.3501 14.5246 47.5549 14.3187C47.7597 14.1183 47.9978 13.9611 48.2635 13.8474C48.5292 13.739 48.8115 13.6848 49.0993 13.6848C49.3871 13.6848 49.6695 13.739 49.9352 13.8474C50.2009 13.9611 50.4389 14.1183 50.6437 14.3187C50.8485 14.5246 51.009 14.7575 51.1197 15.0284C51.2304 15.2939 51.2858 15.5702 51.2858 15.8573C51.2858 16.1498 51.2304 16.4261 51.1197 16.6916C51.009 16.9571 50.8485 17.1954 50.6437 17.3959C50.4389 17.6018 50.2009 17.7589 49.9352 17.8672C49.6695 17.981 49.3871 18.0352 49.0993 18.0352ZM49.0993 14.5029C48.7229 14.5029 48.4018 14.6329 48.1361 14.8984C47.8704 15.1638 47.7376 15.4835 47.7376 15.8573C47.7376 16.2311 47.8704 16.5562 48.1361 16.8162C48.4018 17.0817 48.7229 17.2171 49.0993 17.2171C49.4757 17.2171 49.7968 17.0817 50.0625 16.8162C50.3282 16.5562 50.461 16.2311 50.461 15.8573C50.461 15.4835 50.3282 15.1638 50.0625 14.8984C49.7968 14.6329 49.4757 14.5029 49.0993 14.5029ZM43.4698 18.0352C43.1819 18.0352 42.9052 17.981 42.6339 17.8672C42.3682 17.7589 42.1302 17.6018 41.9254 17.3959C41.7206 17.1954 41.5656 16.9571 41.4549 16.6916C41.3442 16.4261 41.2888 16.1498 41.2888 15.8573C41.2888 15.5702 41.3442 15.2939 41.4549 15.0284C41.5656 14.7575 41.7206 14.5246 41.9254 14.3187C42.1302 14.1183 42.3682 13.9611 42.6339 13.8474C42.9052 13.739 43.1819 13.6848 43.4698 13.6848C43.7632 13.6848 44.0399 13.739 44.3056 13.8474C44.5769 13.9611 44.8094 14.1183 45.0142 14.3187C45.219 14.5246 45.3795 14.7575 45.4902 15.0284C45.6009 15.2939 45.6563 15.5702 45.6563 15.8573C45.6563 16.1498 45.6009 16.4261 45.4902 16.6916C45.3795 16.9571 45.219 17.1954 45.0142 17.3959C44.8094 17.6018 44.5769 17.7589 44.3056 17.8672C44.0399 17.981 43.7632 18.0352 43.4698 18.0352ZM43.4698 14.5029C43.0989 14.5029 42.7778 14.6329 42.5066 14.8984C42.2409 15.1638 42.1081 15.4835 42.1081 15.8573C42.1081 16.2311 42.2409 16.5562 42.5066 16.8162C42.7778 17.0817 43.0989 17.2171 43.4698 17.2171C43.8462 17.2171 44.1672 17.0817 44.4329 16.8162C44.6986 16.5562 44.8315 16.2311 44.8315 15.8573C44.8315 15.4835 44.6986 15.1638 44.4329 14.8984C44.1672 14.6329 43.8462 14.5029 43.4698 14.5029Z" fill="black"/>
</g>
<mask id="mask4_13_32179" style="mask-type:luminance" maskUnits="userSpaceOnUse" x="89" y="317" width="292" height="53">
<path d="M89.469 317.309H380.715V369.886H89.469V317.309Z" fill="white"/>
</mask>
<g mask="url(#mask4_13_32179)">
<path d="M88.9597 316.805H381.291V370.39H88.9597V316.805Z" fill="white"/>
</g>
<mask id="mask5_13_32179" style="mask-type:luminance" maskUnits="userSpaceOnUse" x="88" y="316" width="294" height="55">
<path d="M88.96 316.805H381.23V317.807H88.96V316.805ZM380.206 317.807H381.23V369.388H380.206V317.807ZM88.96 317.807H89.984V369.388H88.96V317.807ZM88.96 369.388H381.23V370.39H88.96V369.388Z" fill="white"/>
</mask>
<g mask="url(#mask5_13_32179)">
<path d="M88.96 316.805H381.291V370.39H88.96V316.805Z" fill="black"/>
</g>
<path d="M109.042 336.22V340.337C109.585 339.383 110.487 338.907 111.744 338.907C112.64 338.907 113.393 339.199 114.002 339.774C114.605 340.353 114.91 341.182 114.91 342.266V346.99H113.869V342.461C113.869 341.583 113.653 340.917 113.227 340.467C112.795 340.006 112.209 339.774 111.456 339.774C110.714 339.774 110.127 340.006 109.684 340.467C109.253 340.917 109.042 341.583 109.042 342.461V346.99H108.002V336.22H109.042Z" fill="#BDBDBD"/>
<path d="M120.431 347.141C119.28 347.141 118.339 346.768 117.619 346.015C116.894 345.251 116.534 344.254 116.534 343.024C116.534 341.783 116.9 340.787 117.642 340.034C118.378 339.286 119.33 338.907 120.498 338.907C121.677 338.907 122.612 339.264 123.31 339.969C124.002 340.678 124.35 341.55 124.35 342.591C124.35 342.883 124.328 343.149 124.284 343.392H117.597C117.642 344.303 117.918 345.018 118.439 345.538C118.97 346.058 119.634 346.318 120.431 346.318C121.062 346.318 121.594 346.183 122.026 345.906C122.468 345.619 122.778 345.251 122.956 344.801H124.063C123.797 345.484 123.36 346.047 122.756 346.491C122.147 346.925 121.372 347.141 120.431 347.141ZM123.266 342.591C123.266 341.713 122.989 341.009 122.446 340.489C121.915 339.969 121.251 339.709 120.454 339.709C119.656 339.709 118.992 339.969 118.461 340.489C117.94 340.998 117.653 341.697 117.597 342.591H123.266Z" fill="#BDBDBD"/>
<path d="M126.026 346.99V336.22H127.067V346.99H126.026Z" fill="#BDBDBD"/>
<path d="M129.293 346.99V336.22H130.333V346.99H129.293Z" fill="#BDBDBD"/>
<path d="M135.969 346.318C136.811 346.318 137.53 346.025 138.139 345.429C138.759 344.839 139.069 344.037 139.069 343.024C139.069 342 138.77 341.193 138.183 340.597C137.608 340.006 136.899 339.709 136.058 339.709C135.216 339.709 134.508 340.006 133.932 340.597C133.367 341.177 133.091 341.984 133.091 343.024C133.091 344.064 133.356 344.877 133.888 345.451C134.43 346.031 135.128 346.318 135.969 346.318ZM135.969 347.141C134.801 347.141 133.855 346.768 133.135 346.015C132.41 345.251 132.05 344.254 132.05 343.024C132.05 341.8 132.432 340.808 133.201 340.055C133.982 339.291 134.951 338.907 136.102 338.907C137.264 338.907 138.233 339.291 139.003 340.055C139.766 340.808 140.154 341.8 140.154 343.024C140.154 344.238 139.744 345.229 138.936 345.993C138.122 346.762 137.132 347.141 135.969 347.141Z" fill="#BDBDBD"/>
<path d="M142.584 347.597C141.948 346.616 141.632 345.402 141.632 343.956C141.632 342.515 141.976 341.155 142.673 339.882C143.382 338.614 144.378 337.601 145.662 336.848C146.957 336.084 148.419 335.699 150.046 335.699C151.995 335.699 153.567 336.263 154.762 337.39C155.969 338.506 156.578 339.958 156.578 341.746C156.578 343.252 156.185 344.53 155.404 345.581C154.618 346.621 153.766 347.141 152.836 347.141C152.271 347.141 151.873 346.963 151.64 346.6C151.402 346.226 151.319 345.809 151.397 345.343C150.611 346.545 149.565 347.141 148.253 347.141C147.201 347.141 146.36 346.746 145.729 345.95C145.109 345.159 144.887 344.162 145.064 342.959C145.252 341.746 145.778 340.77 146.636 340.034C147.505 339.286 148.485 338.907 149.581 338.907C150.672 338.907 151.519 339.308 152.127 340.099C152.731 340.879 152.936 341.827 152.747 342.937L152.349 345.429C152.26 345.993 152.46 346.275 152.947 346.275C153.55 346.275 154.126 345.841 154.674 344.974C155.216 344.097 155.493 343.019 155.493 341.746C155.493 340.185 154.995 338.939 154.01 337.997C153.035 337.043 151.663 336.566 149.891 336.566C147.81 336.566 146.088 337.292 144.732 338.733C143.387 340.18 142.717 341.962 142.717 344.086C142.717 345.879 143.276 347.239 144.4 348.182C145.518 349.135 146.996 349.644 148.828 349.72L148.607 350.587C145.784 350.484 143.78 349.487 142.584 347.597ZM151.663 343.024C151.806 342.13 151.663 341.366 151.22 340.727C150.777 340.093 150.168 339.773 149.404 339.773C148.651 339.773 147.954 340.093 147.323 340.727C146.686 341.366 146.293 342.13 146.149 343.024C146.016 343.923 146.16 344.687 146.592 345.321C147.035 345.96 147.633 346.275 148.386 346.275C149.149 346.275 149.852 345.96 150.489 345.321C151.137 344.687 151.53 343.923 151.663 343.024Z" fill="#BDBDBD"/>
<path d="M159.598 339.058V340.359C160.041 339.394 160.882 338.907 162.122 338.907V339.969H161.812C161.103 339.969 160.555 340.158 160.173 340.532C159.786 340.911 159.598 341.561 159.598 342.482V346.99H158.557V339.058H159.598Z" fill="#BDBDBD"/>
<path d="M167.186 347.141C166.034 347.141 165.093 346.768 164.374 346.015C163.649 345.251 163.289 344.254 163.289 343.024C163.289 341.783 163.654 340.787 164.396 340.034C165.132 339.286 166.084 338.907 167.252 338.907C168.431 338.907 169.367 339.264 170.064 339.969C170.756 340.678 171.105 341.55 171.105 342.591C171.105 342.883 171.083 343.149 171.038 343.392H164.352C164.396 344.303 164.673 345.018 165.193 345.538C165.724 346.058 166.389 346.318 167.186 346.318C167.817 346.318 168.348 346.183 168.78 345.906C169.223 345.619 169.533 345.251 169.71 344.801H170.817C170.551 345.484 170.114 346.047 169.511 346.491C168.902 346.925 168.127 347.141 167.186 347.141ZM170.02 342.591C170.02 341.713 169.743 341.009 169.201 340.489C168.669 339.969 168.005 339.709 167.208 339.709C166.411 339.709 165.747 339.969 165.215 340.489C164.695 340.998 164.407 341.697 164.352 342.591H170.02Z" fill="#BDBDBD"/>
<path d="M178.471 345.364C179.058 344.774 179.357 343.994 179.357 343.024C179.357 342.06 179.058 341.28 178.471 340.684C177.879 340.077 177.165 339.774 176.323 339.774C175.493 339.774 174.785 340.066 174.198 340.64C173.622 341.204 173.334 341.978 173.334 342.959C173.334 343.929 173.628 344.725 174.22 345.343C174.807 345.95 175.515 346.253 176.346 346.253C177.17 346.253 177.879 345.96 178.471 345.364ZM176.191 347.141C175.05 347.141 174.115 346.751 173.379 345.971C172.637 345.18 172.271 344.173 172.271 342.959C172.271 341.746 172.637 340.77 173.379 340.034C174.115 339.286 175.05 338.907 176.191 338.907C176.927 338.907 177.569 339.08 178.117 339.427C178.676 339.774 179.091 340.223 179.357 340.77V339.058H180.397V346.99H179.357V345.234C179.091 345.798 178.676 346.264 178.117 346.621C177.569 346.968 176.927 347.141 176.191 347.141Z" fill="#BDBDBD"/>
<path d="M182.61 346.99V336.22H183.651V346.99H182.61Z" fill="#BDBDBD"/>
<path d="M185.876 346.99V336.22H186.917V346.99H185.876Z" fill="#BDBDBD"/>
<path d="M191.468 346.881L188.235 339.058H189.364L192.043 345.798L194.7 339.058H195.763L190.958 350.674H189.895L191.468 346.881Z" fill="#BDBDBD"/>
<path d="M200.496 347.141C199.355 347.141 198.42 346.751 197.684 345.971C196.942 345.18 196.577 344.173 196.577 342.959C196.577 341.746 196.942 340.77 197.684 340.034C198.42 339.286 199.355 338.907 200.496 338.907C201.232 338.907 201.874 339.08 202.422 339.427C202.981 339.774 203.396 340.223 203.662 340.77V339.058H204.703V347.271C204.703 348.339 204.332 349.206 203.596 349.872C202.87 350.549 201.985 350.89 200.939 350.89C199.887 350.89 199.001 350.636 198.282 350.132C197.556 349.623 197.141 348.994 197.042 348.247H198.06C198.193 348.75 198.514 349.168 199.034 349.504C199.566 349.85 200.208 350.024 200.961 350.024C201.725 350.024 202.367 349.774 202.887 349.287C203.402 348.794 203.662 348.122 203.662 347.271V345.234C203.396 345.798 202.981 346.264 202.422 346.621C201.874 346.968 201.232 347.141 200.496 347.141ZM202.776 345.364C203.363 344.774 203.662 343.994 203.662 343.024C203.662 342.06 203.363 341.28 202.776 340.684C202.184 340.077 201.47 339.774 200.629 339.774C199.798 339.774 199.09 340.066 198.503 340.64C197.927 341.204 197.639 341.978 197.639 342.959C197.639 343.929 197.933 344.725 198.525 345.343C199.112 345.95 199.82 346.253 200.651 346.253C201.476 346.253 202.184 345.96 202.776 345.364Z" fill="#BDBDBD"/>
<path d="M207.956 339.058V340.359C208.399 339.394 209.24 338.907 210.48 338.907V339.969H210.17C209.461 339.969 208.913 340.158 208.531 340.532C208.144 340.911 207.956 341.561 207.956 342.482V346.99H206.915V339.058H207.956Z" fill="#BDBDBD"/>
<path d="M215.544 347.141C214.393 347.141 213.452 346.768 212.732 346.015C212.007 345.251 211.647 344.254 211.647 343.024C211.647 341.783 212.012 340.787 212.754 340.034C213.49 339.286 214.442 338.907 215.61 338.907C216.789 338.907 217.725 339.264 218.422 339.969C219.114 340.678 219.463 341.55 219.463 342.591C219.463 342.883 219.441 343.149 219.397 343.392H212.71C212.754 344.303 213.031 345.018 213.551 345.538C214.083 346.058 214.747 346.318 215.544 346.318C216.175 346.318 216.706 346.183 217.138 345.906C217.581 345.619 217.891 345.251 218.068 344.801H219.175C218.909 345.484 218.472 346.047 217.869 346.491C217.26 346.925 216.485 347.141 215.544 347.141ZM218.378 342.591C218.378 341.713 218.101 341.009 217.559 340.489C217.027 339.969 216.363 339.709 215.566 339.709C214.769 339.709 214.105 339.969 213.573 340.489C213.053 340.998 212.765 341.697 212.71 342.591H218.378Z" fill="#BDBDBD"/>
<path d="M226.829 345.364C227.416 344.774 227.715 343.994 227.715 343.024C227.715 342.06 227.416 341.28 226.829 340.684C226.237 340.077 225.523 339.774 224.682 339.774C223.851 339.774 223.143 340.066 222.556 340.64C221.98 341.204 221.692 341.978 221.692 342.959C221.692 343.929 221.986 344.725 222.578 345.343C223.165 345.95 223.873 346.253 224.704 346.253C225.528 346.253 226.237 345.96 226.829 345.364ZM224.549 347.141C223.408 347.141 222.473 346.751 221.737 345.971C220.995 345.18 220.63 344.173 220.63 342.959C220.63 341.746 220.995 340.77 221.737 340.034C222.473 339.286 223.408 338.907 224.549 338.907C225.285 338.907 225.927 339.08 226.475 339.427C227.034 339.774 227.449 340.223 227.715 340.77V339.058H228.756V346.99H227.715V345.234C227.449 345.798 227.034 346.264 226.475 346.621C225.927 346.968 225.285 347.141 224.549 347.141Z" fill="#BDBDBD"/>
<path d="M234.577 339.86H232.341V345.104C232.341 345.511 232.418 345.792 232.584 345.95C232.745 346.112 233.027 346.188 233.425 346.188H234.577V346.99H233.204C231.931 346.99 231.3 346.361 231.3 345.104V339.86H230.171V339.058H231.3V337.065H232.341V339.058H234.577V339.86Z" fill="#BDBDBD"/>
<path d="M235.78 341.247C235.78 340.586 236.051 340.028 236.599 339.578C237.158 339.134 237.867 338.907 238.725 338.907C239.594 338.907 240.263 339.134 240.74 339.578C241.227 340.012 241.498 340.619 241.559 341.399H240.474C240.457 340.911 240.286 340.505 239.965 340.185C239.655 339.871 239.217 339.709 238.658 339.709C238.094 339.709 237.651 339.849 237.33 340.12C237.003 340.397 236.843 340.727 236.843 341.117C236.843 341.496 236.959 341.8 237.197 342.027C237.429 342.244 237.728 342.396 238.083 342.482C238.448 342.558 238.841 342.645 239.256 342.742C239.682 342.845 240.075 342.959 240.43 343.089C240.795 343.208 241.099 343.425 241.337 343.739C241.57 344.059 241.692 344.465 241.692 344.953C241.692 345.592 241.415 346.118 240.872 346.535C240.341 346.941 239.621 347.141 238.725 347.141C237.839 347.141 237.136 346.919 236.621 346.47C236.117 346.025 235.835 345.419 235.78 344.649H236.865C236.876 345.142 237.053 345.549 237.396 345.863C237.734 346.166 238.193 346.318 238.769 346.318C239.356 346.318 239.815 346.199 240.142 345.95C240.479 345.706 240.651 345.386 240.651 344.996C240.651 344.606 240.524 344.303 240.275 344.086C240.037 343.858 239.732 343.707 239.367 343.631C239.012 343.544 238.619 343.452 238.193 343.349C237.778 343.235 237.385 343.122 237.02 343.002C236.665 342.889 236.367 342.677 236.134 342.374C235.896 342.071 235.78 341.697 235.78 341.247Z" fill="#BDBDBD"/>
<path d="M244.998 336.805C244.998 337.011 244.921 337.189 244.777 337.346C244.628 337.493 244.445 337.563 244.224 337.563C244.013 337.563 243.836 337.493 243.692 337.346C243.543 337.189 243.471 337.011 243.471 336.805C243.471 336.604 243.543 336.431 243.692 336.285C243.836 336.127 244.013 336.046 244.224 336.046C244.445 336.046 244.628 336.127 244.777 336.285C244.921 336.431 244.998 336.604 244.998 336.805ZM243.692 346.99V339.058H244.733V346.99H243.692Z" fill="#BDBDBD"/>
<path d="M250.568 339.86H248.331V345.104C248.331 345.511 248.409 345.792 248.575 345.95C248.735 346.112 249.018 346.188 249.416 346.188H250.568V346.99H249.195C247.922 346.99 247.291 346.361 247.291 345.104V339.86H246.161V339.058H247.291V337.065H248.331V339.058H250.568V339.86Z" fill="#BDBDBD"/>
<path d="M255.379 347.141C254.228 347.141 253.287 346.768 252.567 346.015C251.842 345.251 251.482 344.254 251.482 343.024C251.482 341.783 251.848 340.787 252.59 340.034C253.326 339.286 254.278 338.907 255.446 338.907C256.625 338.907 257.56 339.264 258.258 339.969C258.95 340.678 259.298 341.55 259.298 342.591C259.298 342.883 259.276 343.149 259.232 343.392H252.545C252.59 344.303 252.866 345.018 253.387 345.538C253.918 346.058 254.582 346.318 255.379 346.318C256.01 346.318 256.542 346.183 256.974 345.906C257.416 345.619 257.726 345.251 257.904 344.801H259.011C258.745 345.484 258.308 346.047 257.704 346.491C257.095 346.925 256.32 347.141 255.379 347.141ZM258.214 342.591C258.214 341.713 257.937 341.009 257.394 340.489C256.863 339.969 256.199 339.709 255.402 339.709C254.604 339.709 253.94 339.969 253.409 340.489C252.888 340.998 252.601 341.697 252.545 342.591H258.214Z" fill="#BDBDBD"/>
<path d="M261.993 346.795C261.86 346.925 261.688 346.99 261.484 346.99C261.29 346.99 261.118 346.925 260.974 346.795C260.825 346.654 260.753 346.486 260.753 346.296C260.753 346.096 260.825 345.922 260.974 345.776C261.118 345.635 261.29 345.56 261.484 345.56C261.688 345.56 261.86 345.635 261.993 345.776C262.137 345.922 262.214 346.096 262.214 346.296C262.214 346.486 262.137 346.654 261.993 346.795Z" fill="#BDBDBD"/>
<path d="M264.787 346.015C264.062 345.251 263.702 344.254 263.702 343.024C263.702 341.8 264.062 340.808 264.787 340.055C265.506 339.291 266.447 338.907 267.599 338.907C269.503 338.907 270.71 339.741 271.23 341.399H270.123C269.946 340.868 269.641 340.456 269.215 340.164C268.783 339.86 268.246 339.709 267.599 339.709C266.757 339.709 266.071 340.001 265.54 340.575C265.019 341.139 264.765 341.957 264.765 343.024C264.765 344.081 265.019 344.899 265.54 345.473C266.071 346.036 266.757 346.318 267.599 346.318C268.246 346.318 268.783 346.177 269.215 345.885C269.641 345.581 269.946 345.164 270.123 344.628H271.23C270.975 345.397 270.549 346.009 269.946 346.47C269.337 346.919 268.556 347.141 267.599 347.141C266.447 347.141 265.506 346.768 264.787 346.015Z" fill="#BDBDBD"/>
<path d="M276.529 346.318C277.371 346.318 278.09 346.025 278.699 345.429C279.319 344.839 279.629 344.037 279.629 343.024C279.629 342 279.33 341.193 278.744 340.597C278.168 340.006 277.459 339.709 276.618 339.709C275.777 339.709 275.068 340.006 274.492 340.597C273.928 341.177 273.651 341.984 273.651 343.024C273.651 344.064 273.917 344.877 274.448 345.451C274.991 346.031 275.688 346.318 276.529 346.318ZM276.529 347.141C275.361 347.141 274.415 346.768 273.695 346.015C272.97 345.251 272.61 344.254 272.61 343.024C272.61 341.8 272.992 340.808 273.762 340.055C274.542 339.291 275.511 338.907 276.662 338.907C277.825 338.907 278.793 339.291 279.563 340.055C280.327 340.808 280.714 341.8 280.714 343.024C280.714 344.238 280.305 345.229 279.496 345.993C278.683 346.762 277.692 347.141 276.529 347.141Z" fill="#BDBDBD"/>
<path d="M283.455 339.058V340.337C283.997 339.383 284.899 338.907 286.156 338.907C286.787 338.907 287.357 339.058 287.861 339.362C288.376 339.665 288.758 340.109 289.012 340.684C289.289 340.12 289.688 339.687 290.208 339.383C290.723 339.069 291.321 338.907 292.001 338.907C292.898 338.907 293.651 339.199 294.26 339.774C294.863 340.353 295.168 341.182 295.168 342.266V346.99H294.149V342.461C294.149 341.583 293.928 340.917 293.485 340.467C293.053 340.006 292.466 339.774 291.714 339.774C290.972 339.774 290.391 340.006 289.964 340.467C289.533 340.917 289.322 341.583 289.322 342.461V346.99H288.282V342.461C288.282 341.583 288.066 340.917 287.64 340.467C287.208 340.006 286.621 339.774 285.868 339.774C285.126 339.774 284.54 340.006 284.097 340.467C283.665 340.917 283.455 341.583 283.455 342.461V346.99H282.414V339.058H283.455Z" fill="#BDBDBD"/>
<mask id="mask6_13_32179" style="mask-type:luminance" maskUnits="userSpaceOnUse" x="112" y="390" width="215" height="68">
<path d="M112.358 390.121H326.933V457.326H112.358V390.121Z" fill="white"/>
</mask>
<g mask="url(#mask6_13_32179)">
<path d="M112.358 390.121H326.95V457.326H112.358V390.121Z" fill="black"/>
</g>
<path d="M184.156 419.959C184.156 418.589 184.742 417.445 185.927 416.535C187.123 415.614 188.728 415.148 190.754 415.148C192.791 415.148 194.429 415.603 195.669 416.514C196.909 417.413 197.562 418.637 197.64 420.198H192.702C192.641 419.667 192.448 419.304 192.127 419.114C191.817 418.93 191.335 418.832 190.687 418.832C189.431 418.832 188.805 419.212 188.805 419.959C188.805 420.642 189.569 421.108 191.108 421.368C192.669 421.628 194.097 422.029 195.382 422.56C196.046 422.82 196.599 423.253 197.042 423.86C197.485 424.456 197.706 425.182 197.706 426.049C197.706 427.495 197.07 428.671 195.802 429.581C194.546 430.491 192.951 430.946 191.02 430.946C189.099 430.946 187.499 430.524 186.215 429.668C184.942 428.801 184.25 427.533 184.134 425.854H189.071C189.204 426.796 189.879 427.262 191.108 427.262C191.684 427.262 192.154 427.132 192.525 426.872C192.891 426.612 193.079 426.282 193.079 425.875C193.079 425.474 192.769 425.155 192.149 424.922C191.529 424.678 190.782 424.477 189.913 424.315C189.055 424.142 188.185 423.936 187.3 423.687C186.425 423.426 185.683 422.993 185.063 422.386C184.455 421.769 184.156 420.956 184.156 419.959Z" fill="white"/>
<path d="M207.608 430.946C205.316 430.946 203.434 430.226 201.962 428.779C200.484 427.322 199.748 425.393 199.748 422.993C199.748 420.598 200.478 418.691 201.94 417.272C203.401 415.858 205.289 415.148 207.608 415.148C209.922 415.148 211.842 415.853 213.365 417.25C214.898 418.654 215.667 420.598 215.667 423.08C215.667 423.616 215.629 424.115 215.557 424.575H204.707C204.796 425.258 205.106 425.81 205.637 426.244C206.169 426.677 206.733 426.894 207.342 426.894C207.962 426.894 208.416 426.84 208.715 426.72C209.025 426.607 209.246 426.493 209.379 426.374C209.523 426.244 209.711 426.043 209.933 425.767H215.158C214.715 427.316 213.813 428.562 212.457 429.516C211.095 430.469 209.479 430.946 207.608 430.946ZM210.641 421.628C210.564 420.907 210.243 420.322 209.667 419.873C209.102 419.412 208.438 419.179 207.674 419.179C206.905 419.179 206.257 419.412 205.726 419.873C205.194 420.322 204.862 420.907 204.729 421.628H210.641Z" fill="white"/>
<path d="M223.604 415.3V417.575C224.606 415.961 226.2 415.148 228.386 415.148C230.202 415.148 231.669 415.744 232.793 416.925C233.911 418.096 234.475 419.699 234.475 421.736V430.751H229.648V422.365C229.648 421.368 229.383 420.604 228.851 420.068C228.32 419.52 227.578 419.244 226.637 419.244C225.691 419.244 224.943 419.52 224.401 420.068C223.869 420.604 223.604 421.368 223.604 422.365V430.751H218.777V415.3H223.604Z" fill="white"/>
<path d="M248.163 425.854C248.855 425.193 249.204 424.25 249.204 423.036C249.204 421.812 248.855 420.869 248.163 420.219C247.466 419.569 246.663 419.244 245.75 419.244C244.848 419.244 244.051 419.58 243.359 420.241C242.661 420.907 242.318 421.845 242.318 423.058C242.318 424.272 242.661 425.214 243.359 425.875C244.051 426.525 244.848 426.85 245.75 426.85C246.663 426.85 247.466 426.52 248.163 425.854ZM239.462 428.736C238.072 427.262 237.38 425.371 237.38 423.058C237.38 420.75 238.072 418.854 239.462 417.38C240.862 415.896 242.567 415.148 244.576 415.148C246.58 415.148 248.125 415.88 249.204 417.337V410.273H254.053V430.751H249.204V428.519C248.036 430.139 246.47 430.946 244.51 430.946C242.545 430.946 240.862 430.209 239.462 428.736Z" fill="white"/>
<mask id="mask7_13_32179" style="mask-type:luminance" maskUnits="userSpaceOnUse" x="29" y="832" width="26" height="43">
<path d="M29.7585 832.273H54.0757V874.85H29.7585V832.273Z" fill="white"/>
</mask>
<g mask="url(#mask7_13_32179)">
<path fill-rule="evenodd" clip-rule="evenodd" d="M30.6275 855.314L49.7967 874.075C50.7377 874.991 52.2544 874.991 53.1899 874.075C54.1254 873.16 54.1254 871.697 53.1899 870.781L35.6869 853.656L53.1899 836.526C54.1254 835.61 54.1254 834.126 53.1899 833.21C52.2544 832.295 50.7377 832.295 49.7967 833.21L30.6054 851.998C29.6699 852.914 29.6699 854.398 30.6275 855.314Z" fill="#F8F8FF"/>
</g>
<path d="M90.0652 306.718V296.533H96.4863V297.552H91.3051V301.084H96.0434V302.081H91.3051V305.722H96.4863V306.718H90.0652Z" fill="white"/>
<path d="M100.4 306.718V296.533H101.839L105.603 303.641L109.301 296.533H110.784V306.718H109.522V298.722L106.046 305.266H105.116L101.64 298.744V306.718H100.4Z" fill="white"/>
<path d="M114.272 306.718L118.102 296.533H119.431L123.239 306.718H121.933L120.981 304.096H116.552L115.578 306.718H114.272ZM116.929 303.121H120.604L118.766 298.072L116.929 303.121Z" fill="white"/>
<path d="M126.755 306.718V296.533H127.995V306.718H126.755Z" fill="white"/>
<path d="M132.161 306.718V296.533H133.401V305.743H138.25V306.718H132.161Z" fill="white"/>
<path d="M53.4907 203.229V174.927H70.4956V178.546H58.229V187.149H67.7943V190.725H58.229V203.229H53.4907Z" fill="white"/>
<path d="M89.0631 197.659C90.447 196.305 91.1444 194.42 91.1444 192.003C91.1444 189.576 90.4636 187.691 89.1074 186.347C87.7623 185.004 86.1293 184.332 84.2141 184.332C82.3099 184.332 80.6991 185.004 79.3872 186.347C78.0864 187.691 77.4387 189.587 77.4387 192.025C77.4387 194.452 78.0697 196.337 79.3429 197.681C80.6271 199.025 82.2213 199.696 84.1255 199.696C86.0297 199.696 87.6737 199.019 89.0631 197.659ZM84.1255 203.597C80.7876 203.597 78.0365 202.535 75.8666 200.412C73.6968 198.277 72.6118 195.482 72.6118 192.025C72.6118 188.558 73.7244 185.762 75.9552 183.639C78.1971 181.504 80.9814 180.431 84.3026 180.431C87.635 180.431 90.4193 181.504 92.6501 183.639C94.8753 185.762 95.9935 188.552 95.9935 192.003C95.9935 195.444 94.8476 198.239 92.5615 200.39C90.2698 202.53 87.4578 203.597 84.1255 203.597Z" fill="white"/>
<path d="M104.687 180.8V184.7C106.159 181.856 108.451 180.431 111.551 180.431V185.221H110.355C108.495 185.221 107.084 185.686 106.126 186.607C105.163 187.534 104.687 189.138 104.687 191.418V203.229H99.9485V180.8H104.687Z" fill="white"/>
<path d="M124.404 203.597C121.348 203.597 118.78 202.508 116.699 200.325C114.628 198.131 113.599 195.335 113.599 191.938C113.599 188.531 114.623 185.762 116.677 183.639C118.741 181.504 121.315 180.431 124.404 180.431C126.203 180.431 127.792 180.838 129.164 181.645C130.537 182.441 131.6 183.487 132.353 184.787V180.8H137.136V203.597C137.136 206.745 136.139 209.318 134.146 211.312C132.165 213.305 129.524 214.302 126.22 214.302C122.926 214.302 120.252 213.587 118.204 212.157C116.151 210.737 114.983 208.809 114.706 206.371H119.422C119.776 207.525 120.54 208.462 121.725 209.188C122.904 209.909 124.382 210.272 126.153 210.272C127.925 210.272 129.397 209.697 130.582 208.56C131.761 207.416 132.353 205.764 132.353 203.597V199.025C131.567 200.412 130.499 201.528 129.142 202.362C127.781 203.185 126.203 203.597 124.404 203.597ZM130.294 197.508C131.667 196.137 132.353 194.3 132.353 192.003C132.353 189.696 131.667 187.859 130.294 186.499C128.921 185.145 127.288 184.462 125.4 184.462C123.507 184.462 121.88 185.128 120.507 186.456C119.134 187.789 118.448 189.609 118.448 191.917C118.448 194.214 119.134 196.067 120.507 197.464C121.88 198.868 123.507 199.566 125.4 199.566C127.288 199.566 128.921 198.884 130.294 197.508Z" fill="white"/>
<path d="M157.523 197.659C158.907 196.305 159.604 194.42 159.604 192.003C159.604 189.576 158.923 187.691 157.567 186.347C156.222 185.004 154.589 184.332 152.674 184.332C150.77 184.332 149.159 185.004 147.847 186.347C146.546 187.691 145.898 189.587 145.898 192.025C145.898 194.452 146.529 196.337 147.803 197.681C149.087 199.025 150.681 199.696 152.585 199.696C154.489 199.696 156.133 199.019 157.523 197.659ZM152.585 203.597C149.247 203.597 146.496 202.535 144.326 200.412C142.156 198.277 141.072 195.482 141.072 192.025C141.072 188.558 142.184 185.762 144.415 183.639C146.657 181.504 149.441 180.431 152.762 180.431C156.095 180.431 158.879 181.504 161.11 183.639C163.335 185.762 164.453 188.552 164.453 192.003C164.453 195.444 163.307 198.239 161.021 200.39C158.73 202.53 155.918 203.597 152.585 203.597Z" fill="white"/>
<path d="M179.523 184.57H173.944V197.009C173.944 197.849 174.143 198.45 174.541 198.808C174.94 199.171 175.626 199.35 176.601 199.35H179.523V203.229H175.781C171.364 203.229 169.161 201.159 169.161 197.009V184.57H166.46V180.8H169.161V175.209H173.944V180.8H179.523V184.57Z" fill="white"/>
<path d="M204.846 174.927C208.123 174.927 210.647 175.724 212.419 177.311C214.19 178.904 215.076 180.887 215.076 183.27C215.076 185.643 214.234 187.648 212.552 189.295C210.88 190.931 208.311 191.743 204.846 191.743H199.599V203.229H194.86V174.927H204.846ZM199.599 188.124H204.846C206.645 188.124 207.99 187.707 208.876 186.868C209.762 186.017 210.205 184.841 210.205 183.335C210.205 181.835 209.762 180.664 208.876 179.825C207.99 178.974 206.645 178.546 204.846 178.546H199.599V188.124Z" fill="white"/>
<path d="M233.981 197.508C235.354 196.137 236.041 194.3 236.041 192.003C236.041 189.696 235.354 187.859 233.981 186.499C232.609 185.145 230.976 184.462 229.088 184.462C227.195 184.462 225.568 185.128 224.195 186.456C222.822 187.789 222.136 189.609 222.136 191.917C222.136 194.214 222.822 196.067 224.195 197.464C225.568 198.868 227.195 199.566 229.088 199.566C230.976 199.566 232.609 198.884 233.981 197.508ZM228.092 203.597C225.036 203.597 222.468 202.508 220.386 200.325C218.316 198.131 217.287 195.335 217.287 191.938C217.287 188.531 218.311 185.762 220.364 183.639C222.429 181.504 225.003 180.431 228.092 180.431C229.891 180.431 231.479 180.838 232.852 181.645C234.225 182.441 235.288 183.487 236.041 184.787V180.8H240.823V203.229H236.041V199.025C235.255 200.412 234.186 201.528 232.83 202.362C231.468 203.185 229.891 203.597 228.092 203.597Z" fill="white"/>
<path d="M245.268 187.236C245.268 185.329 246.088 183.72 247.726 182.403C249.365 181.092 251.512 180.431 254.169 180.431C256.826 180.431 258.935 181.076 260.502 182.36C262.079 183.649 262.921 185.405 263.026 187.626H258.155C258.077 186.515 257.69 185.649 256.981 185.026C256.273 184.408 255.276 184.094 253.992 184.094C252.719 184.094 251.723 184.375 251.003 184.939C250.278 185.491 249.918 186.217 249.918 187.128C249.918 188.038 250.372 188.753 251.291 189.273C252.204 189.782 253.317 190.156 254.634 190.4C255.963 190.649 257.28 190.952 258.598 191.31C259.91 191.657 261.022 192.301 261.941 193.239C262.854 194.181 263.314 195.438 263.314 197.009C263.314 198.96 262.473 200.552 260.79 201.777C259.118 202.99 256.965 203.597 254.324 203.597C251.695 203.597 249.564 202.979 247.925 201.733C246.287 200.477 245.385 198.694 245.224 196.381H250.14C250.212 197.497 250.627 198.369 251.38 199.003C252.132 199.626 253.151 199.935 254.435 199.935C255.73 199.935 256.76 199.664 257.513 199.111C258.277 198.548 258.664 197.806 258.664 196.879C258.664 195.958 258.205 195.243 257.291 194.734C256.372 194.214 255.254 193.824 253.926 193.564C252.608 193.304 251.296 193.011 249.985 192.675C248.667 192.328 247.555 191.711 246.641 190.812C245.722 189.918 245.268 188.726 245.268 187.236Z" fill="white"/>
<path d="M266.73 187.236C266.73 185.329 267.549 183.72 269.188 182.403C270.826 181.092 272.974 180.431 275.631 180.431C278.288 180.431 280.397 181.076 281.963 182.36C283.541 183.649 284.382 185.405 284.487 187.626H279.616C279.539 186.515 279.151 185.649 278.443 185.026C277.734 184.408 276.738 184.094 275.454 184.094C274.181 184.094 273.184 184.375 272.465 184.939C271.739 185.491 271.38 186.217 271.38 187.128C271.38 188.038 271.833 188.753 272.752 189.273C273.666 189.782 274.778 190.156 276.096 190.4C277.424 190.649 278.742 190.952 280.059 191.31C281.371 191.657 282.484 192.301 283.403 193.239C284.316 194.181 284.775 195.438 284.775 197.009C284.775 198.96 283.934 200.552 282.251 201.777C280.579 202.99 278.426 203.597 275.786 203.597C273.156 203.597 271.025 202.979 269.387 201.733C267.748 200.477 266.846 198.694 266.686 196.381H271.601C271.673 197.497 272.088 198.369 272.841 199.003C273.594 199.626 274.612 199.935 275.896 199.935C277.192 199.935 278.221 199.664 278.974 199.111C279.738 198.548 280.126 197.806 280.126 196.879C280.126 195.958 279.666 195.243 278.753 194.734C277.834 194.214 276.716 193.824 275.387 193.564C274.07 193.304 272.758 193.011 271.446 192.675C270.129 192.328 269.016 191.711 268.103 190.812C267.184 189.918 266.73 188.726 266.73 187.236Z" fill="white"/>
<path d="M315.359 180.8H320.009L312.901 203.229H307.919L303.292 186.651L298.664 203.229H293.682L286.53 180.8H291.357L296.14 198.83L301.011 180.8H305.949L310.62 198.743L315.359 180.8Z" fill="white"/>
<path d="M337.697 197.659C339.081 196.305 339.779 194.42 339.779 192.003C339.779 189.576 339.098 187.691 337.742 186.347C336.397 185.004 334.764 184.332 332.848 184.332C330.944 184.332 329.333 185.004 328.021 186.347C326.721 187.691 326.073 189.587 326.073 192.025C326.073 194.452 326.704 196.337 327.977 197.681C329.261 199.025 330.856 199.696 332.76 199.696C334.664 199.696 336.308 199.019 337.697 197.659ZM332.76 203.597C329.422 203.597 326.671 202.535 324.501 200.412C322.331 198.277 321.246 195.482 321.246 192.025C321.246 188.558 322.359 185.762 324.589 183.639C326.831 181.504 329.616 180.431 332.937 180.431C336.269 180.431 339.054 181.504 341.284 183.639C343.51 185.762 344.628 188.552 344.628 192.003C344.628 195.444 343.482 198.239 341.196 200.39C338.904 202.53 336.092 203.597 332.76 203.597Z" fill="white"/>
<path d="M353.321 180.8V184.7C354.794 181.856 357.085 180.431 360.185 180.431V185.221H358.99C357.13 185.221 355.718 185.686 354.761 186.607C353.797 187.534 353.321 189.138 353.321 191.418V203.229H348.583V180.8H353.321Z" fill="white"/>
<path d="M378.928 197.508C380.301 196.137 380.987 194.3 380.987 192.003C380.987 189.696 380.301 187.859 378.928 186.499C377.555 185.145 375.923 184.462 374.035 184.462C372.142 184.462 370.514 185.128 369.142 186.456C367.769 187.789 367.082 189.609 367.082 191.917C367.082 194.214 367.769 196.067 369.142 197.464C370.514 198.868 372.142 199.566 374.035 199.566C375.923 199.566 377.555 198.884 378.928 197.508ZM373.039 203.597C369.983 203.597 367.415 202.508 365.333 200.325C363.263 198.131 362.233 195.335 362.233 191.938C362.233 188.531 363.257 185.762 365.311 183.639C367.376 181.504 369.95 180.431 373.039 180.431C374.838 180.431 376.426 180.838 377.799 181.645C379.172 182.441 380.235 183.487 380.987 184.787V173.107H385.77V203.229H380.987V199.025C380.201 200.412 379.133 201.528 377.777 202.362C376.415 203.185 374.838 203.597 373.039 203.597Z" fill="white"/>
<path d="M168.259 229.847V219.142H169.565L175.388 227.723V219.142H176.717V229.847H175.388L169.565 221.266V229.847H168.259Z" fill="white"/>
<path d="M182.418 230.021C181.676 230.021 181.023 229.858 180.447 229.544C179.871 229.213 179.418 228.753 179.096 228.157C178.77 227.566 178.609 226.867 178.609 226.055C178.609 225.264 178.77 224.57 179.096 223.974C179.418 223.384 179.871 222.923 180.447 222.588C181.023 222.257 181.687 222.089 182.44 222.089C183.193 222.089 183.84 222.257 184.388 222.588C184.931 222.923 185.352 223.357 185.65 223.888C185.944 224.424 186.093 225.004 186.093 225.621C186.093 225.741 186.082 225.854 186.071 225.968C186.071 226.087 186.071 226.217 186.071 226.358H179.894C179.921 226.938 180.06 227.42 180.314 227.81C180.563 228.189 180.873 228.471 181.244 228.655C181.61 228.845 182.003 228.937 182.418 228.937C182.96 228.937 183.414 228.823 183.768 228.59C184.134 228.346 184.399 228.016 184.565 227.593H185.872C185.662 228.287 185.263 228.867 184.676 229.327C184.084 229.793 183.331 230.021 182.418 230.021ZM182.418 223.173C181.798 223.173 181.244 223.362 180.757 223.736C180.27 224.099 179.988 224.641 179.916 225.361H184.787C184.754 224.668 184.51 224.137 184.056 223.758C183.613 223.368 183.065 223.173 182.418 223.173Z" fill="white"/>
<path d="M189.368 229.847L187.11 222.263H188.416L190.055 228.222L191.87 222.263H193.354L195.169 228.222L196.808 222.263H198.136L195.856 229.847H194.527L192.623 223.606L190.719 229.847H189.368Z" fill="white"/>
<path d="M203.782 229.847V219.142H207.369C208.221 219.142 208.924 219.288 209.472 219.575C210.031 219.852 210.447 220.22 210.712 220.681C210.978 221.146 211.111 221.672 211.111 222.263C211.111 222.858 210.978 223.384 210.712 223.844C210.458 224.31 210.054 224.684 209.495 224.971C208.947 225.248 208.238 225.383 207.369 225.383H205.088V229.847H203.782ZM205.088 224.3H207.347C208.216 224.3 208.836 224.121 209.207 223.758C209.572 223.4 209.76 222.902 209.76 222.263C209.76 221.629 209.572 221.13 209.207 220.767C208.836 220.41 208.216 220.226 207.347 220.226H205.088V224.3Z" fill="white"/>
<path d="M215.317 230.021C214.664 230.021 214.127 229.918 213.701 229.717C213.269 229.5 212.953 229.213 212.748 228.85C212.538 228.493 212.438 228.108 212.438 227.702C212.438 226.922 212.737 226.326 213.346 225.903C213.95 225.486 214.774 225.275 215.826 225.275H217.907V225.188C217.907 224.527 217.73 224.029 217.376 223.693C217.022 223.346 216.546 223.173 215.959 223.173C215.439 223.173 214.996 223.297 214.631 223.541C214.26 223.79 214.033 224.159 213.944 224.646H212.593C212.649 224.099 212.843 223.639 213.169 223.259C213.49 222.869 213.9 222.582 214.387 222.393C214.885 222.192 215.411 222.089 215.959 222.089C217.033 222.089 217.847 222.371 218.395 222.934C218.937 223.498 219.214 224.251 219.214 225.188V229.847H218.04L217.974 228.482C217.752 228.915 217.426 229.284 217 229.587C216.585 229.874 216.025 230.021 215.317 230.021ZM215.516 228.937C216.014 228.937 216.446 228.818 216.8 228.569C217.166 228.309 217.443 227.978 217.62 227.572C217.808 227.171 217.907 226.743 217.907 226.293V226.272H215.915C215.145 226.272 214.597 226.402 214.276 226.662C213.966 226.922 213.811 227.247 213.811 227.637C213.811 228.027 213.955 228.346 214.254 228.59C214.547 228.823 214.968 228.937 215.516 228.937Z" fill="white"/>
<path d="M224.156 230.021C223.226 230.021 222.451 229.798 221.831 229.349C221.222 228.888 220.867 228.265 220.768 227.485H222.096C222.185 227.875 222.395 228.216 222.738 228.504C223.093 228.796 223.563 228.937 224.156 228.937C224.715 228.937 225.119 228.829 225.373 228.612C225.639 228.384 225.772 228.108 225.772 227.788C225.772 227.328 225.6 227.025 225.263 226.878C224.919 226.721 224.443 226.575 223.823 226.445C223.408 226.374 222.993 226.266 222.583 226.12C222.168 225.963 221.82 225.746 221.543 225.47C221.26 225.183 221.122 224.809 221.122 224.343C221.122 223.682 221.371 223.14 221.875 222.718C222.373 222.3 223.059 222.089 223.934 222.089C224.742 222.089 225.418 222.295 225.949 222.696C226.48 223.102 226.779 223.671 226.857 224.408H225.573C225.512 224.018 225.335 223.714 225.041 223.498C224.759 223.281 224.382 223.173 223.912 223.173C223.436 223.173 223.076 223.276 222.827 223.476C222.572 223.666 222.451 223.92 222.451 224.235C222.451 224.538 222.611 224.776 222.938 224.95C223.259 225.123 223.702 225.269 224.266 225.383C224.753 225.486 225.207 225.616 225.639 225.773C226.065 225.919 226.419 226.136 226.702 226.423C226.979 226.716 227.122 227.133 227.122 227.68C227.122 228.363 226.857 228.926 226.325 229.37C225.794 229.804 225.069 230.021 224.156 230.021Z" fill="white"/>
<path d="M231.956 230.021C231.026 230.021 230.251 229.798 229.631 229.349C229.022 228.888 228.668 228.265 228.568 227.485H229.897C229.985 227.875 230.196 228.216 230.539 228.504C230.893 228.796 231.364 228.937 231.956 228.937C232.515 228.937 232.919 228.829 233.174 228.612C233.44 228.384 233.572 228.108 233.572 227.788C233.572 227.328 233.401 227.025 233.063 226.878C232.72 226.721 232.244 226.575 231.624 226.445C231.209 226.374 230.794 226.266 230.384 226.12C229.969 225.963 229.62 225.746 229.343 225.47C229.061 225.183 228.923 224.809 228.923 224.343C228.923 223.682 229.172 223.14 229.675 222.718C230.174 222.3 230.86 222.089 231.735 222.089C232.543 222.089 233.218 222.295 233.75 222.696C234.281 223.102 234.58 223.671 234.657 224.408H233.373C233.312 224.018 233.135 223.714 232.842 223.498C232.559 223.281 232.183 223.173 231.712 223.173C231.236 223.173 230.877 223.276 230.628 223.476C230.373 223.666 230.251 223.92 230.251 224.235C230.251 224.538 230.412 224.776 230.738 224.95C231.059 225.123 231.502 225.269 232.067 225.383C232.554 225.486 233.008 225.616 233.44 225.773C233.866 225.919 234.22 226.136 234.502 226.423C234.779 226.716 234.923 227.133 234.923 227.68C234.923 228.363 234.657 228.926 234.126 229.37C233.595 229.804 232.869 230.021 231.956 230.021Z" fill="white"/>
<path d="M238.339 229.847L236.081 222.263H237.387L239.026 228.222L240.841 222.263H242.325L244.14 228.222L245.779 222.263H247.107L244.827 229.847H243.498L241.594 223.606L239.69 229.847H238.339Z" fill="white"/>
<path d="M252.073 230.021C251.348 230.021 250.689 229.858 250.102 229.544C249.527 229.213 249.067 228.753 248.729 228.157C248.386 227.566 248.22 226.867 248.22 226.055C248.22 225.248 248.386 224.549 248.729 223.953C249.067 223.362 249.532 222.907 250.124 222.588C250.711 222.257 251.37 222.089 252.095 222.089C252.831 222.089 253.49 222.257 254.066 222.588C254.652 222.907 255.117 223.362 255.461 223.953C255.798 224.549 255.97 225.248 255.97 226.055C255.97 226.867 255.793 227.566 255.438 228.157C255.095 228.753 254.63 229.213 254.043 229.544C253.451 229.858 252.792 230.021 252.073 230.021ZM252.073 228.937C252.516 228.937 252.925 228.829 253.313 228.612C253.695 228.395 254.005 228.081 254.243 227.658C254.492 227.225 254.619 226.694 254.619 226.055C254.619 225.421 254.497 224.895 254.265 224.473C254.027 224.039 253.717 223.725 253.335 223.519C252.947 223.303 252.538 223.194 252.095 223.194C251.652 223.194 251.237 223.303 250.855 223.519C250.468 223.725 250.152 224.039 249.903 224.473C249.665 224.895 249.549 225.421 249.549 226.055C249.549 226.694 249.665 227.225 249.903 227.658C250.152 228.081 250.462 228.395 250.833 228.612C251.215 228.829 251.63 228.937 252.073 228.937Z" fill="white"/>
<path d="M257.788 229.847V222.263H258.962L259.072 223.714C259.305 223.227 259.67 222.837 260.157 222.544C260.655 222.241 261.264 222.089 261.973 222.089V223.433H261.619C261.159 223.433 260.738 223.514 260.357 223.671C259.969 223.834 259.659 224.099 259.427 224.473C259.205 224.852 259.094 225.372 259.094 226.033V229.847H257.788Z" fill="white"/>
<path d="M266.95 230.021C266.18 230.021 265.51 229.853 264.935 229.522C264.359 229.175 263.905 228.699 263.584 228.092C263.274 227.485 263.119 226.802 263.119 226.033C263.119 225.286 263.28 224.614 263.606 224.018C263.927 223.411 264.37 222.945 264.935 222.609C265.51 222.263 266.186 222.089 266.972 222.089C267.603 222.089 268.167 222.219 268.655 222.479C269.142 222.728 269.524 223.081 269.806 223.541V218.839H271.112V229.847H269.917L269.806 228.59C269.551 228.969 269.192 229.3 268.721 229.587C268.245 229.874 267.658 230.021 266.95 230.021ZM267.105 228.915C267.619 228.915 268.079 228.802 268.477 228.569C268.876 228.325 269.186 227.994 269.407 227.572C269.629 227.138 269.74 226.635 269.74 226.055C269.74 225.491 269.629 224.993 269.407 224.56C269.186 224.126 268.876 223.796 268.477 223.563C268.079 223.319 267.619 223.194 267.105 223.194C266.584 223.194 266.13 223.319 265.732 223.563C265.333 223.796 265.012 224.126 264.78 224.56C264.558 224.993 264.448 225.491 264.448 226.055C264.448 226.635 264.558 227.138 264.78 227.572C265.012 227.994 265.333 228.325 265.732 228.569C266.13 228.802 266.584 228.915 267.105 228.915Z" fill="white"/>
<mask id="mask8_13_32179" style="mask-type:luminance" maskUnits="userSpaceOnUse" x="-44" y="-94" width="528" height="1120">
<path d="M484 -93.2H-44V1025.2H484V-93.2Z" fill="black" fill-opacity="0.5"/>
</mask>
<g mask="url(#mask8_13_32179)">
<mask id="mask9_13_32179" style="mask-type:luminance" maskUnits="userSpaceOnUse" x="12" y="822" width="64" height="63">
<path d="M75.1047 822.435H12.7537V884.845H75.1047V822.435Z" fill="white"/>
</mask>
<g mask="url(#mask9_13_32179)">
<mask id="mask10_13_32179" style="mask-type:luminance" maskUnits="userSpaceOnUse" x="13" y="823" width="62" height="61">
<path d="M13.4399 823.805H74.4182V883.491H13.4399V823.805Z" fill="white"/>
</mask>
<g mask="url(#mask10_13_32179)">
<mask id="mask11_13_32179" style="mask-type:luminance" maskUnits="userSpaceOnUse" x="13" y="823" width="62" height="61">
<path d="M43.9291 823.805C27.0903 823.805 13.4399 837.165 13.4399 853.645C13.4399 870.131 27.0903 883.491 43.9291 883.491C60.7678 883.491 74.4182 870.131 74.4182 853.645C74.4182 837.165 60.7678 823.805 43.9291 823.805Z" fill="white"/>
</mask>
<g mask="url(#mask11_13_32179)">
<path d="M13.4399 823.805H74.4182V883.491H13.4399V823.805Z" fill="white"/>
</g>
</g>
</g>
</g>
</g>
</g>
<defs>
<clipPath id="clip0_13_32179">
<rect width="430" height="932" fill="white"/>
</clipPath>
<clipPath id="clip1_13_32179">
<rect width="440" height="932" fill="white"/>
</clipPath>
</defs>
</svg>
