<svg width="430" height="932" viewBox="0 0 430 932" fill="none" xmlns="http://www.w3.org/2000/svg">
<rect width="430" height="932" fill="#FEF4DF"/>
<path d="M72.34 35.92L62.38 64H53.82L43.86 35.92H51.14L58.1 57.12L65.1 35.92H72.34ZM85.3588 64.32C83.1721 64.32 81.1988 63.8533 79.4388 62.92C77.7054 61.9867 76.3321 60.6533 75.3188 58.92C74.3321 57.1867 73.8388 55.16 73.8388 52.84C73.8388 50.5467 74.3454 48.5333 75.3587 46.8C76.3721 45.04 77.7588 43.6933 79.5188 42.76C81.2788 41.8267 83.2521 41.36 85.4388 41.36C87.6254 41.36 89.5988 41.8267 91.3588 42.76C93.1188 43.6933 94.5054 45.04 95.5188 46.8C96.5321 48.5333 97.0388 50.5467 97.0388 52.84C97.0388 55.1333 96.5188 57.16 95.4788 58.92C94.4654 60.6533 93.0654 61.9867 91.2788 62.92C89.5188 63.8533 87.5454 64.32 85.3588 64.32ZM85.3588 58.4C86.6654 58.4 87.7721 57.92 88.6788 56.96C89.6121 56 90.0788 54.6267 90.0788 52.84C90.0788 51.0533 89.6254 49.68 88.7188 48.72C87.8388 47.76 86.7454 47.28 85.4388 47.28C84.1054 47.28 82.9988 47.76 82.1188 48.72C81.2388 49.6533 80.7988 51.0267 80.7988 52.84C80.7988 54.6267 81.2254 56 82.0788 56.96C82.9588 57.92 84.0521 58.4 85.3588 58.4ZM107.508 34.4V64H100.668V34.4H107.508ZM134.504 41.68V64H127.664V60.96C126.971 61.9467 126.024 62.7467 124.824 63.36C123.651 63.9467 122.344 64.24 120.904 64.24C119.198 64.24 117.691 63.8667 116.384 63.12C115.078 62.3467 114.064 61.24 113.344 59.8C112.624 58.36 112.264 56.6667 112.264 54.72V41.68H119.064V53.8C119.064 55.2933 119.451 56.4533 120.224 57.28C120.998 58.1067 122.038 58.52 123.344 58.52C124.678 58.52 125.731 58.1067 126.504 57.28C127.278 56.4533 127.664 55.2933 127.664 53.8V41.68H134.504ZM153.018 41.44C155.631 41.44 157.711 42.2933 159.258 44C160.831 45.68 161.618 48 161.618 50.96V64H154.818V51.88C154.818 50.3867 154.431 49.2267 153.658 48.4C152.884 47.5733 151.844 47.16 150.538 47.16C149.231 47.16 148.191 47.5733 147.418 48.4C146.644 49.2267 146.258 50.3867 146.258 51.88V64H139.418V41.68H146.258V44.64C146.951 43.6533 147.884 42.88 149.058 42.32C150.231 41.7333 151.551 41.44 153.018 41.44ZM178.811 58.2V64H175.331C172.851 64 170.917 63.4 169.531 62.2C168.144 60.9733 167.451 58.9867 167.451 56.24V47.36H164.731V41.68H167.451V36.24H174.291V41.68H178.771V47.36H174.291V56.32C174.291 56.9867 174.451 57.4667 174.771 57.76C175.091 58.0533 175.624 58.2 176.371 58.2H178.811ZM203.661 52.48C203.661 53.12 203.621 53.7867 203.541 54.48H188.061C188.167 55.8667 188.607 56.9333 189.381 57.68C190.181 58.4 191.154 58.76 192.301 58.76C194.007 58.76 195.194 58.04 195.861 56.6H203.141C202.767 58.0667 202.087 59.3867 201.101 60.56C200.141 61.7333 198.927 62.6533 197.461 63.32C195.994 63.9867 194.354 64.32 192.541 64.32C190.354 64.32 188.407 63.8533 186.701 62.92C184.994 61.9867 183.661 60.6533 182.701 58.92C181.741 57.1867 181.261 55.16 181.261 52.84C181.261 50.52 181.727 48.4933 182.661 46.76C183.621 45.0267 184.954 43.6933 186.661 42.76C188.367 41.8267 190.327 41.36 192.541 41.36C194.701 41.36 196.621 41.8133 198.301 42.72C199.981 43.6267 201.287 44.92 202.221 46.6C203.181 48.28 203.661 50.24 203.661 52.48ZM196.661 50.68C196.661 49.5067 196.261 48.5733 195.461 47.88C194.661 47.1867 193.661 46.84 192.461 46.84C191.314 46.84 190.341 47.1733 189.541 47.84C188.767 48.5067 188.287 49.4533 188.101 50.68H196.661ZM228.309 52.48C228.309 53.12 228.269 53.7867 228.189 54.48H212.709C212.816 55.8667 213.256 56.9333 214.029 57.68C214.829 58.4 215.802 58.76 216.949 58.76C218.656 58.76 219.842 58.04 220.509 56.6H227.789C227.416 58.0667 226.736 59.3867 225.749 60.56C224.789 61.7333 223.576 62.6533 222.109 63.32C220.642 63.9867 219.002 64.32 217.189 64.32C215.002 64.32 213.056 63.8533 211.349 62.92C209.642 61.9867 208.309 60.6533 207.349 58.92C206.389 57.1867 205.909 55.16 205.909 52.84C205.909 50.52 206.376 48.4933 207.309 46.76C208.269 45.0267 209.602 43.6933 211.309 42.76C213.016 41.8267 214.976 41.36 217.189 41.36C219.349 41.36 221.269 41.8133 222.949 42.72C224.629 43.6267 225.936 44.92 226.869 46.6C227.829 48.28 228.309 50.24 228.309 52.48ZM221.309 50.68C221.309 49.5067 220.909 48.5733 220.109 47.88C219.309 47.1867 218.309 46.84 217.109 46.84C215.962 46.84 214.989 47.1733 214.189 47.84C213.416 48.5067 212.936 49.4533 212.749 50.68H221.309ZM238.758 45.4C239.558 44.1733 240.558 43.2133 241.758 42.52C242.958 41.8 244.291 41.44 245.758 41.44V48.68H243.878C242.171 48.68 240.891 49.0533 240.038 49.8C239.184 50.52 238.758 51.8 238.758 53.64V64H231.918V41.68H238.758V45.4ZM289.303 35.92V64H282.463V47.16L276.183 64H270.663L264.343 47.12V64H257.503V35.92H265.583L273.463 55.36L281.263 35.92H289.303ZM292.862 52.8C292.862 50.5067 293.289 48.4933 294.142 46.76C295.022 45.0267 296.209 43.6933 297.702 42.76C299.196 41.8267 300.862 41.36 302.702 41.36C304.276 41.36 305.649 41.68 306.822 42.32C308.022 42.96 308.942 43.8 309.582 44.84V41.68H316.422V64H309.582V60.84C308.916 61.88 307.982 62.72 306.782 63.36C305.609 64 304.236 64.32 302.662 64.32C300.849 64.32 299.196 63.8533 297.702 62.92C296.209 61.96 295.022 60.6133 294.142 58.88C293.289 57.12 292.862 55.0933 292.862 52.8ZM309.582 52.84C309.582 51.1333 309.102 49.7867 308.142 48.8C307.209 47.8133 306.062 47.32 304.702 47.32C303.342 47.32 302.182 47.8133 301.222 48.8C300.289 49.76 299.822 51.0933 299.822 52.8C299.822 54.5067 300.289 55.8667 301.222 56.88C302.182 57.8667 303.342 58.36 304.702 58.36C306.062 58.36 307.209 57.8667 308.142 56.88C309.102 55.8933 309.582 54.5467 309.582 52.84ZM333.811 58.2V64H330.331C327.851 64 325.917 63.4 324.531 62.2C323.144 60.9733 322.451 58.9867 322.451 56.24V47.36H319.731V41.68H322.451V36.24H329.291V41.68H333.771V47.36H329.291V56.32C329.291 56.9867 329.451 57.4667 329.771 57.76C330.091 58.0533 330.624 58.2 331.371 58.2H333.811ZM336.261 52.84C336.261 50.52 336.727 48.4933 337.661 46.76C338.621 45.0267 339.941 43.6933 341.621 42.76C343.327 41.8267 345.274 41.36 347.461 41.36C350.261 41.36 352.594 42.0933 354.461 43.56C356.354 45.0267 357.594 47.0933 358.181 49.76H350.901C350.287 48.0533 349.101 47.2 347.341 47.2C346.087 47.2 345.087 47.6933 344.341 48.68C343.594 49.64 343.221 51.0267 343.221 52.84C343.221 54.6533 343.594 56.0533 344.341 57.04C345.087 58 346.087 58.48 347.341 58.48C349.101 58.48 350.287 57.6267 350.901 55.92H358.181C357.594 58.5333 356.354 60.5867 354.461 62.08C352.567 63.5733 350.234 64.32 347.461 64.32C345.274 64.32 343.327 63.8533 341.621 62.92C339.941 61.9867 338.621 60.6533 337.661 58.92C336.727 57.1867 336.261 55.16 336.261 52.84ZM375.559 41.44C378.119 41.44 380.173 42.2933 381.719 44C383.266 45.68 384.039 48 384.039 50.96V64H377.239V51.88C377.239 50.3867 376.853 49.2267 376.079 48.4C375.306 47.5733 374.266 47.16 372.959 47.16C371.653 47.16 370.613 47.5733 369.839 48.4C369.066 49.2267 368.679 50.3867 368.679 51.88V64H361.839V34.4H368.679V44.68C369.373 43.6933 370.319 42.9067 371.519 42.32C372.719 41.7333 374.066 41.44 375.559 41.44Z" fill="black"/>
<path d="M29.886 85.214V95H28.906V90.422H23.6V95H22.62V85.214H23.6V89.61H28.906V85.214H29.886ZM39.038 90.786C39.038 91.122 39.0286 91.3787 39.01 91.556H32.668C32.696 92.1347 32.836 92.6293 33.088 93.04C33.34 93.4507 33.6713 93.7633 34.082 93.978C34.4926 94.1833 34.9406 94.286 35.426 94.286C36.0606 94.286 36.5926 94.132 37.022 93.824C37.4606 93.516 37.75 93.1007 37.89 92.578H38.926C38.7393 93.3247 38.338 93.936 37.722 94.412C37.1153 94.8787 36.35 95.112 35.426 95.112C34.7073 95.112 34.0633 94.9533 33.494 94.636C32.9246 94.3093 32.4766 93.852 32.15 93.264C31.8326 92.6667 31.674 91.9713 31.674 91.178C31.674 90.3847 31.8326 89.6893 32.15 89.092C32.4673 88.4947 32.9106 88.0373 33.48 87.72C34.0493 87.4027 34.698 87.244 35.426 87.244C36.154 87.244 36.7886 87.4027 37.33 87.72C37.8806 88.0373 38.3006 88.4667 38.59 89.008C38.8886 89.54 39.038 90.1327 39.038 90.786ZM38.044 90.758C38.0533 90.1887 37.9366 89.7033 37.694 89.302C37.4606 88.9007 37.1386 88.5973 36.728 88.392C36.3173 88.1867 35.8693 88.084 35.384 88.084C34.656 88.084 34.0353 88.3173 33.522 88.784C33.0086 89.2507 32.724 89.9087 32.668 90.758H38.044ZM41.8109 84.64V95H40.8309V84.64H41.8109ZM44.9962 89.036C45.2388 88.5227 45.6215 88.098 46.1442 87.762C46.6762 87.4167 47.3062 87.244 48.0342 87.244C48.7248 87.244 49.3455 87.4073 49.8962 87.734C50.4562 88.0513 50.8902 88.5087 51.1982 89.106C51.5155 89.694 51.6742 90.38 51.6742 91.164C51.6742 91.948 51.5155 92.6387 51.1982 93.236C50.8902 93.8333 50.4562 94.2953 49.8962 94.622C49.3455 94.9487 48.7248 95.112 48.0342 95.112C47.3155 95.112 46.6902 94.944 46.1582 94.608C45.6262 94.2627 45.2388 93.8333 44.9962 93.32V98.612H44.0302V87.356H44.9962V89.036ZM50.6802 91.164C50.6802 90.5293 50.5542 89.9833 50.3022 89.526C50.0595 89.0593 49.7235 88.7047 49.2942 88.462C48.8648 88.2193 48.3795 88.098 47.8382 88.098C47.3155 88.098 46.8348 88.224 46.3962 88.476C45.9668 88.728 45.6262 89.0873 45.3742 89.554C45.1222 90.0207 44.9962 90.562 44.9962 91.178C44.9962 91.794 45.1222 92.3353 45.3742 92.802C45.6262 93.2687 45.9668 93.628 46.3962 93.88C46.8348 94.132 47.3155 94.258 47.8382 94.258C48.3795 94.258 48.8648 94.1367 49.2942 93.894C49.7235 93.642 50.0595 93.2827 50.3022 92.816C50.5542 92.34 50.6802 91.7893 50.6802 91.164ZM58.2572 85.214V91.374C58.2572 92.3447 58.4859 93.0633 58.9432 93.53C59.4099 93.9967 60.0446 94.23 60.8472 94.23C61.6499 94.23 62.2752 94.0013 62.7232 93.544C63.1806 93.0773 63.4092 92.354 63.4092 91.374V85.214H64.3892V91.36C64.3892 92.6013 64.0579 93.5347 63.3952 94.16C62.7419 94.7853 61.8879 95.098 60.8332 95.098C59.7786 95.098 58.9199 94.7853 58.2572 94.16C57.6039 93.5347 57.2772 92.6013 57.2772 91.36V85.214H58.2572ZM69.2071 95.112C68.3297 95.112 67.6111 94.9113 67.0511 94.51C66.5004 94.0993 66.1924 93.544 66.1271 92.844H67.1351C67.1817 93.2733 67.3824 93.6233 67.7371 93.894C68.1011 94.1553 68.5864 94.286 69.1931 94.286C69.7251 94.286 70.1404 94.16 70.4391 93.908C70.7471 93.656 70.9011 93.3433 70.9011 92.97C70.9011 92.7087 70.8171 92.494 70.6491 92.326C70.4811 92.158 70.2664 92.0273 70.0051 91.934C69.7531 91.8313 69.4077 91.724 68.9691 91.612C68.3997 91.4627 67.9377 91.3133 67.5831 91.164C67.2284 91.0147 66.9251 90.7953 66.6731 90.506C66.4304 90.2073 66.3091 89.8107 66.3091 89.316C66.3091 88.9427 66.4211 88.5973 66.6451 88.28C66.8691 87.9627 67.1864 87.7107 67.5971 87.524C68.0077 87.3373 68.4744 87.244 68.9971 87.244C69.8184 87.244 70.4811 87.454 70.9851 87.874C71.4891 88.2847 71.7597 88.854 71.7971 89.582H70.8171C70.7891 89.134 70.6117 88.7747 70.2851 88.504C69.9677 88.224 69.5291 88.084 68.9691 88.084C68.4744 88.084 68.0731 88.2007 67.7651 88.434C67.4571 88.6673 67.3031 88.9567 67.3031 89.302C67.3031 89.6007 67.3917 89.848 67.5691 90.044C67.7557 90.2307 67.9844 90.38 68.2551 90.492C68.5257 90.5947 68.8897 90.7113 69.3471 90.842C69.8977 90.9913 70.3364 91.136 70.6631 91.276C70.9897 91.416 71.2697 91.6213 71.5031 91.892C71.7364 92.1627 71.8577 92.522 71.8671 92.97C71.8671 93.3807 71.7551 93.7493 71.5311 94.076C71.3071 94.3933 70.9944 94.6453 70.5931 94.832C70.1917 95.0187 69.7297 95.112 69.2071 95.112ZM82.8456 85.214V86.026H78.5336V89.68H82.1736V90.492H78.5336V95H77.5536V85.214H82.8456ZM84.9479 85.914C84.7519 85.914 84.5839 85.844 84.4439 85.704C84.3039 85.564 84.2339 85.3913 84.2339 85.186C84.2339 84.9807 84.3039 84.8127 84.4439 84.682C84.5839 84.542 84.7519 84.472 84.9479 84.472C85.1439 84.472 85.3119 84.542 85.4519 84.682C85.5919 84.8127 85.6619 84.9807 85.6619 85.186C85.6619 85.3913 85.5919 85.564 85.4519 85.704C85.3119 85.844 85.1439 85.914 84.9479 85.914ZM85.4379 87.356V95H84.4579V87.356H85.4379ZM91.2411 87.216C92.1558 87.216 92.9024 87.5007 93.4811 88.07C94.0598 88.63 94.3491 89.4467 94.3491 90.52V95H93.3831V90.632C93.3831 89.8013 93.1731 89.1667 92.7531 88.728C92.3424 88.2893 91.7778 88.07 91.0591 88.07C90.3218 88.07 89.7338 88.3033 89.2951 88.77C88.8564 89.2367 88.6371 89.9227 88.6371 90.828V95H87.6571V87.356H88.6371V88.658C88.8798 88.1913 89.2298 87.8367 89.6871 87.594C90.1444 87.342 90.6624 87.216 91.2411 87.216ZM96.0685 91.164C96.0685 90.38 96.2272 89.694 96.5445 89.106C96.8618 88.5087 97.2958 88.0513 97.8465 87.734C98.4065 87.4073 99.0365 87.244 99.7365 87.244C100.408 87.244 101.015 87.4073 101.556 87.734C102.098 88.0607 102.494 88.4853 102.746 89.008V84.64H103.726V95H102.746V93.292C102.513 93.824 102.13 94.2627 101.598 94.608C101.066 94.944 100.441 95.112 99.7225 95.112C99.0225 95.112 98.3925 94.9487 97.8325 94.622C97.2818 94.2953 96.8478 93.8333 96.5305 93.236C96.2225 92.6387 96.0685 91.948 96.0685 91.164ZM102.746 91.178C102.746 90.562 102.62 90.0207 102.368 89.554C102.116 89.0873 101.771 88.728 101.332 88.476C100.903 88.224 100.427 88.098 99.9045 88.098C99.3632 88.098 98.8778 88.2193 98.4485 88.462C98.0192 88.7047 97.6785 89.0593 97.4265 89.526C97.1838 89.9833 97.0625 90.5293 97.0625 91.164C97.0625 91.7893 97.1838 92.34 97.4265 92.816C97.6785 93.2827 98.0192 93.642 98.4485 93.894C98.8778 94.1367 99.3632 94.258 99.9045 94.258C100.427 94.258 100.903 94.132 101.332 93.88C101.771 93.628 102.116 93.2687 102.368 92.802C102.62 92.3353 102.746 91.794 102.746 91.178ZM111.08 88.182V92.928C111.08 93.3947 111.168 93.7167 111.346 93.894C111.523 94.0713 111.836 94.16 112.284 94.16H113.18V95H112.13C111.439 95 110.926 94.8413 110.59 94.524C110.254 94.1973 110.086 93.6653 110.086 92.928V88.182H109.022V87.356H110.086V85.438H111.08V87.356H113.18V88.182H111.08ZM118.436 87.216C119.014 87.216 119.532 87.3373 119.99 87.58C120.456 87.8227 120.82 88.196 121.082 88.7C121.352 89.1947 121.488 89.8013 121.488 90.52V95H120.522V90.632C120.522 89.8013 120.312 89.1667 119.892 88.728C119.481 88.2893 118.916 88.07 118.198 88.07C117.46 88.07 116.872 88.3033 116.434 88.77C115.995 89.2367 115.776 89.9227 115.776 90.828V95H114.796V84.64H115.776V88.658C116.018 88.2007 116.373 87.846 116.84 87.594C117.316 87.342 117.848 87.216 118.436 87.216ZM130.571 90.786C130.571 91.122 130.562 91.3787 130.543 91.556H124.201C124.229 92.1347 124.369 92.6293 124.621 93.04C124.873 93.4507 125.204 93.7633 125.615 93.978C126.026 94.1833 126.474 94.286 126.959 94.286C127.594 94.286 128.126 94.132 128.555 93.824C128.994 93.516 129.283 93.1007 129.423 92.578H130.459C130.272 93.3247 129.871 93.936 129.255 94.412C128.648 94.8787 127.883 95.112 126.959 95.112C126.24 95.112 125.596 94.9533 125.027 94.636C124.458 94.3093 124.01 93.852 123.683 93.264C123.366 92.6667 123.207 91.9713 123.207 91.178C123.207 90.3847 123.366 89.6893 123.683 89.092C124 88.4947 124.444 88.0373 125.013 87.72C125.582 87.4027 126.231 87.244 126.959 87.244C127.687 87.244 128.322 87.4027 128.863 87.72C129.414 88.0373 129.834 88.4667 130.123 89.008C130.422 89.54 130.571 90.1327 130.571 90.786ZM129.577 90.758C129.586 90.1887 129.47 89.7033 129.227 89.302C128.994 88.9007 128.672 88.5973 128.261 88.392C127.85 88.1867 127.402 88.084 126.917 88.084C126.189 88.084 125.568 88.3173 125.055 88.784C124.542 89.2507 124.257 89.9087 124.201 90.758H129.577ZM142.464 88.028C142.464 88.868 142.189 89.5447 141.638 90.058C141.087 90.5713 140.261 90.828 139.16 90.828H137.186V95H136.206V85.214H139.16C140.252 85.214 141.073 85.4707 141.624 85.984C142.184 86.4973 142.464 87.1787 142.464 88.028ZM139.16 89.988C140.691 89.988 141.456 89.3347 141.456 88.028C141.456 87.3747 141.274 86.88 140.91 86.544C140.546 86.208 139.963 86.04 139.16 86.04H137.186V89.988H139.16ZM151.024 90.786C151.024 91.122 151.015 91.3787 150.996 91.556H144.654C144.682 92.1347 144.822 92.6293 145.074 93.04C145.326 93.4507 145.658 93.7633 146.068 93.978C146.479 94.1833 146.927 94.286 147.412 94.286C148.047 94.286 148.579 94.132 149.008 93.824C149.447 93.516 149.736 93.1007 149.876 92.578H150.912C150.726 93.3247 150.324 93.936 149.708 94.412C149.102 94.8787 148.336 95.112 147.412 95.112C146.694 95.112 146.05 94.9533 145.48 94.636C144.911 94.3093 144.463 93.852 144.136 93.264C143.819 92.6667 143.66 91.9713 143.66 91.178C143.66 90.3847 143.819 89.6893 144.136 89.092C144.454 88.4947 144.897 88.0373 145.466 87.72C146.036 87.4027 146.684 87.244 147.412 87.244C148.14 87.244 148.775 87.4027 149.316 87.72C149.867 88.0373 150.287 88.4667 150.576 89.008C150.875 89.54 151.024 90.1327 151.024 90.786ZM150.03 90.758C150.04 90.1887 149.923 89.7033 149.68 89.302C149.447 88.9007 149.125 88.5973 148.714 88.392C148.304 88.1867 147.856 88.084 147.37 88.084C146.642 88.084 146.022 88.3173 145.508 88.784C144.995 89.2507 144.71 89.9087 144.654 90.758H150.03ZM153.797 88.714C154.012 88.238 154.339 87.8693 154.777 87.608C155.225 87.3467 155.771 87.216 156.415 87.216V88.238H156.149C155.44 88.238 154.871 88.4293 154.441 88.812C154.012 89.1947 153.797 89.834 153.797 90.73V95H152.817V87.356H153.797V88.714ZM160.9 88.182H159.122V95H158.142V88.182H157.078V87.356H158.142V86.824C158.142 85.9933 158.352 85.382 158.772 84.99C159.201 84.598 159.892 84.402 160.844 84.402V85.242C160.209 85.242 159.761 85.3633 159.5 85.606C159.248 85.8487 159.122 86.2547 159.122 86.824V87.356H160.9V88.182ZM169.358 90.786C169.358 91.122 169.349 91.3787 169.33 91.556H162.988C163.016 92.1347 163.156 92.6293 163.408 93.04C163.66 93.4507 163.992 93.7633 164.402 93.978C164.813 94.1833 165.261 94.286 165.746 94.286C166.381 94.286 166.913 94.132 167.342 93.824C167.781 93.516 168.07 93.1007 168.21 92.578H169.246C169.06 93.3247 168.658 93.936 168.042 94.412C167.436 94.8787 166.67 95.112 165.746 95.112C165.028 95.112 164.384 94.9533 163.814 94.636C163.245 94.3093 162.797 93.852 162.47 93.264C162.153 92.6667 161.994 91.9713 161.994 91.178C161.994 90.3847 162.153 89.6893 162.47 89.092C162.788 88.4947 163.231 88.0373 163.8 87.72C164.37 87.4027 165.018 87.244 165.746 87.244C166.474 87.244 167.109 87.4027 167.65 87.72C168.201 88.0373 168.621 88.4667 168.91 89.008C169.209 89.54 169.358 90.1327 169.358 90.786ZM168.364 90.758C168.374 90.1887 168.257 89.7033 168.014 89.302C167.781 88.9007 167.459 88.5973 167.048 88.392C166.638 88.1867 166.19 88.084 165.704 88.084C164.976 88.084 164.356 88.3173 163.842 88.784C163.329 89.2507 163.044 89.9087 162.988 90.758H168.364ZM170.703 91.178C170.703 90.3847 170.862 89.694 171.179 89.106C171.497 88.5087 171.935 88.0513 172.495 87.734C173.055 87.4073 173.695 87.244 174.413 87.244C175.356 87.244 176.131 87.4773 176.737 87.944C177.353 88.4107 177.75 89.0453 177.927 89.848H176.877C176.747 89.2973 176.462 88.868 176.023 88.56C175.594 88.2427 175.057 88.084 174.413 88.084C173.9 88.084 173.438 88.2007 173.027 88.434C172.617 88.6673 172.29 89.0173 172.047 89.484C171.814 89.9413 171.697 90.506 171.697 91.178C171.697 91.85 171.814 92.4193 172.047 92.886C172.29 93.3527 172.617 93.7027 173.027 93.936C173.438 94.1693 173.9 94.286 174.413 94.286C175.057 94.286 175.594 94.132 176.023 93.824C176.462 93.5067 176.747 93.068 176.877 92.508H177.927C177.75 93.292 177.353 93.922 176.737 94.398C176.121 94.874 175.347 95.112 174.413 95.112C173.695 95.112 173.055 94.9533 172.495 94.636C171.935 94.3093 171.497 93.852 171.179 93.264C170.862 92.6667 170.703 91.9713 170.703 91.178ZM181.011 88.182V92.928C181.011 93.3947 181.1 93.7167 181.277 93.894C181.455 94.0713 181.767 94.16 182.215 94.16H183.111V95H182.061C181.371 95 180.857 94.8413 180.521 94.524C180.185 94.1973 180.017 93.6653 180.017 92.928V88.182H178.953V87.356H180.017V85.438H181.011V87.356H183.111V88.182H181.011ZM196.325 85.214L192.615 95H191.495L187.785 85.214H188.849L192.055 93.936L195.289 85.214H196.325ZM201.144 95.112C200.425 95.112 199.776 94.9533 199.198 94.636C198.628 94.3093 198.176 93.852 197.84 93.264C197.513 92.6667 197.35 91.9713 197.35 91.178C197.35 90.3847 197.518 89.694 197.854 89.106C198.19 88.5087 198.647 88.0513 199.226 87.734C199.804 87.4073 200.453 87.244 201.172 87.244C201.89 87.244 202.539 87.4073 203.118 87.734C203.706 88.0513 204.163 88.5087 204.49 89.106C204.826 89.694 204.994 90.3847 204.994 91.178C204.994 91.962 204.826 92.6527 204.49 93.25C204.154 93.8473 203.692 94.3093 203.104 94.636C202.516 94.9533 201.862 95.112 201.144 95.112ZM201.144 94.258C201.648 94.258 202.114 94.146 202.544 93.922C202.973 93.6887 203.318 93.3433 203.58 92.886C203.85 92.4193 203.986 91.85 203.986 91.178C203.986 90.506 203.855 89.9413 203.594 89.484C203.332 89.0173 202.987 88.672 202.558 88.448C202.128 88.2147 201.662 88.098 201.158 88.098C200.654 88.098 200.187 88.2147 199.758 88.448C199.328 88.672 198.983 89.0173 198.722 89.484C198.47 89.9413 198.344 90.506 198.344 91.178C198.344 91.85 198.47 92.4193 198.722 92.886C198.983 93.3433 199.324 93.6887 199.744 93.922C200.173 94.146 200.64 94.258 201.144 94.258ZM207.76 84.64V95H206.78V84.64H207.76ZM216.601 87.356V95H215.621V93.656C215.397 94.132 215.052 94.496 214.585 94.748C214.119 95 213.596 95.126 213.017 95.126C212.103 95.126 211.356 94.846 210.777 94.286C210.199 93.7167 209.909 92.8953 209.909 91.822V87.356H210.875V91.71C210.875 92.5407 211.081 93.1753 211.491 93.614C211.911 94.0527 212.481 94.272 213.199 94.272C213.937 94.272 214.525 94.0387 214.963 93.572C215.402 93.1053 215.621 92.4193 215.621 91.514V87.356H216.601ZM222.423 87.216C223.337 87.216 224.084 87.5007 224.663 88.07C225.241 88.63 225.531 89.4467 225.531 90.52V95H224.565V90.632C224.565 89.8013 224.355 89.1667 223.935 88.728C223.524 88.2893 222.959 88.07 222.241 88.07C221.503 88.07 220.915 88.3033 220.477 88.77C220.038 89.2367 219.819 89.9227 219.819 90.828V95H218.839V87.356H219.819V88.658C220.061 88.1913 220.411 87.8367 220.869 87.594C221.326 87.342 221.844 87.216 222.423 87.216ZM228.972 88.182V92.928C228.972 93.3947 229.061 93.7167 229.238 93.894C229.415 94.0713 229.728 94.16 230.176 94.16H231.072V95H230.022C229.331 95 228.818 94.8413 228.482 94.524C228.146 94.1973 227.978 93.6653 227.978 92.928V88.182H226.914V87.356H227.978V85.438H228.972V87.356H231.072V88.182H228.972ZM239.604 90.786C239.604 91.122 239.595 91.3787 239.576 91.556H233.234C233.262 92.1347 233.402 92.6293 233.654 93.04C233.906 93.4507 234.238 93.7633 234.648 93.978C235.059 94.1833 235.507 94.286 235.992 94.286C236.627 94.286 237.159 94.132 237.588 93.824C238.027 93.516 238.316 93.1007 238.456 92.578H239.492C239.306 93.3247 238.904 93.936 238.288 94.412C237.682 94.8787 236.916 95.112 235.992 95.112C235.274 95.112 234.63 94.9533 234.06 94.636C233.491 94.3093 233.043 93.852 232.716 93.264C232.399 92.6667 232.24 91.9713 232.24 91.178C232.24 90.3847 232.399 89.6893 232.716 89.092C233.034 88.4947 233.477 88.0373 234.046 87.72C234.616 87.4027 235.264 87.244 235.992 87.244C236.72 87.244 237.355 87.4027 237.896 87.72C238.447 88.0373 238.867 88.4667 239.156 89.008C239.455 89.54 239.604 90.1327 239.604 90.786ZM238.61 90.758C238.62 90.1887 238.503 89.7033 238.26 89.302C238.027 88.9007 237.705 88.5973 237.294 88.392C236.884 88.1867 236.436 88.084 235.95 88.084C235.222 88.084 234.602 88.3173 234.088 88.784C233.575 89.2507 233.29 89.9087 233.234 90.758H238.61ZM248.313 90.786C248.313 91.122 248.304 91.3787 248.285 91.556H241.943C241.971 92.1347 242.111 92.6293 242.363 93.04C242.615 93.4507 242.947 93.7633 243.357 93.978C243.768 94.1833 244.216 94.286 244.701 94.286C245.336 94.286 245.868 94.132 246.297 93.824C246.736 93.516 247.025 93.1007 247.165 92.578H248.201C248.015 93.3247 247.613 93.936 246.997 94.412C246.391 94.8787 245.625 95.112 244.701 95.112C243.983 95.112 243.339 94.9533 242.769 94.636C242.2 94.3093 241.752 93.852 241.425 93.264C241.108 92.6667 240.949 91.9713 240.949 91.178C240.949 90.3847 241.108 89.6893 241.425 89.092C241.743 88.4947 242.186 88.0373 242.755 87.72C243.325 87.4027 243.973 87.244 244.701 87.244C245.429 87.244 246.064 87.4027 246.605 87.72C247.156 88.0373 247.576 88.4667 247.865 89.008C248.164 89.54 248.313 90.1327 248.313 90.786ZM247.319 90.758C247.329 90.1887 247.212 89.7033 246.969 89.302C246.736 88.9007 246.414 88.5973 246.003 88.392C245.593 88.1867 245.145 88.084 244.659 88.084C243.931 88.084 243.311 88.3173 242.797 88.784C242.284 89.2507 241.999 89.9087 241.943 90.758H247.319ZM251.086 88.714C251.301 88.238 251.628 87.8693 252.066 87.608C252.514 87.3467 253.06 87.216 253.704 87.216V88.238H253.438C252.729 88.238 252.16 88.4293 251.73 88.812C251.301 89.1947 251.086 89.834 251.086 90.73V95H250.106V87.356H251.086V88.714ZM263.416 95.098C262.511 95.098 261.69 94.888 260.952 94.468C260.215 94.0387 259.632 93.446 259.202 92.69C258.782 91.9247 258.572 91.0613 258.572 90.1C258.572 89.1387 258.782 88.28 259.202 87.524C259.632 86.7587 260.215 86.166 260.952 85.746C261.69 85.3167 262.511 85.102 263.416 85.102C264.331 85.102 265.157 85.3167 265.894 85.746C266.632 86.166 267.21 86.7587 267.63 87.524C268.05 88.28 268.26 89.1387 268.26 90.1C268.26 91.0613 268.05 91.9247 267.63 92.69C267.21 93.446 266.632 94.0387 265.894 94.468C265.157 94.888 264.331 95.098 263.416 95.098ZM263.416 94.244C264.144 94.244 264.798 94.076 265.376 93.74C265.955 93.404 266.412 92.9233 266.748 92.298C267.084 91.6633 267.252 90.9307 267.252 90.1C267.252 89.2693 267.084 88.5413 266.748 87.916C266.412 87.2907 265.955 86.81 265.376 86.474C264.798 86.138 264.144 85.97 263.416 85.97C262.688 85.97 262.035 86.138 261.456 86.474C260.878 86.81 260.42 87.2907 260.084 87.916C259.748 88.5413 259.58 89.2693 259.58 90.1C259.58 90.9307 259.748 91.6633 260.084 92.298C260.42 92.9233 260.878 93.404 261.456 93.74C262.035 94.076 262.688 94.244 263.416 94.244ZM271.02 89.036C271.262 88.5227 271.645 88.098 272.168 87.762C272.7 87.4167 273.33 87.244 274.058 87.244C274.748 87.244 275.369 87.4073 275.92 87.734C276.48 88.0513 276.914 88.5087 277.222 89.106C277.539 89.694 277.698 90.38 277.698 91.164C277.698 91.948 277.539 92.6387 277.222 93.236C276.914 93.8333 276.48 94.2953 275.92 94.622C275.369 94.9487 274.748 95.112 274.058 95.112C273.339 95.112 272.714 94.944 272.182 94.608C271.65 94.2627 271.262 93.8333 271.02 93.32V98.612H270.054V87.356H271.02V89.036ZM276.704 91.164C276.704 90.5293 276.578 89.9833 276.326 89.526C276.083 89.0593 275.747 88.7047 275.318 88.462C274.888 88.2193 274.403 88.098 273.862 88.098C273.339 88.098 272.858 88.224 272.42 88.476C271.99 88.728 271.65 89.0873 271.398 89.554C271.146 90.0207 271.02 90.562 271.02 91.178C271.02 91.794 271.146 92.3353 271.398 92.802C271.65 93.2687 271.99 93.628 272.42 93.88C272.858 94.132 273.339 94.258 273.862 94.258C274.403 94.258 274.888 94.1367 275.318 93.894C275.747 93.642 276.083 93.2827 276.326 92.816C276.578 92.34 276.704 91.7893 276.704 91.164ZM280.467 89.036C280.71 88.5227 281.092 88.098 281.615 87.762C282.147 87.4167 282.777 87.244 283.505 87.244C284.196 87.244 284.816 87.4073 285.367 87.734C285.927 88.0513 286.361 88.5087 286.669 89.106C286.986 89.694 287.145 90.38 287.145 91.164C287.145 91.948 286.986 92.6387 286.669 93.236C286.361 93.8333 285.927 94.2953 285.367 94.622C284.816 94.9487 284.196 95.112 283.505 95.112C282.786 95.112 282.161 94.944 281.629 94.608C281.097 94.2627 280.71 93.8333 280.467 93.32V98.612H279.501V87.356H280.467V89.036ZM286.151 91.164C286.151 90.5293 286.025 89.9833 285.773 89.526C285.53 89.0593 285.194 88.7047 284.765 88.462C284.336 88.2193 283.85 88.098 283.309 88.098C282.786 88.098 282.306 88.224 281.867 88.476C281.438 88.728 281.097 89.0873 280.845 89.554C280.593 90.0207 280.467 90.562 280.467 91.178C280.467 91.794 280.593 92.3353 280.845 92.802C281.097 93.2687 281.438 93.628 281.867 93.88C282.306 94.132 282.786 94.258 283.309 94.258C283.85 94.258 284.336 94.1367 284.765 93.894C285.194 93.642 285.53 93.2827 285.773 92.816C286.025 92.34 286.151 91.7893 286.151 91.164ZM292.294 95.112C291.575 95.112 290.927 94.9533 290.348 94.636C289.779 94.3093 289.326 93.852 288.99 93.264C288.663 92.6667 288.5 91.9713 288.5 91.178C288.5 90.3847 288.668 89.694 289.004 89.106C289.34 88.5087 289.797 88.0513 290.376 87.734C290.955 87.4073 291.603 87.244 292.322 87.244C293.041 87.244 293.689 87.4073 294.268 87.734C294.856 88.0513 295.313 88.5087 295.64 89.106C295.976 89.694 296.144 90.3847 296.144 91.178C296.144 91.962 295.976 92.6527 295.64 93.25C295.304 93.8473 294.842 94.3093 294.254 94.636C293.666 94.9533 293.013 95.112 292.294 95.112ZM292.294 94.258C292.798 94.258 293.265 94.146 293.694 93.922C294.123 93.6887 294.469 93.3433 294.73 92.886C295.001 92.4193 295.136 91.85 295.136 91.178C295.136 90.506 295.005 89.9413 294.744 89.484C294.483 89.0173 294.137 88.672 293.708 88.448C293.279 88.2147 292.812 88.098 292.308 88.098C291.804 88.098 291.337 88.2147 290.908 88.448C290.479 88.672 290.133 89.0173 289.872 89.484C289.62 89.9413 289.494 90.506 289.494 91.178C289.494 91.85 289.62 92.4193 289.872 92.886C290.133 93.3433 290.474 93.6887 290.894 93.922C291.323 94.146 291.79 94.258 292.294 94.258ZM298.911 88.714C299.125 88.238 299.452 87.8693 299.891 87.608C300.339 87.3467 300.885 87.216 301.529 87.216V88.238H301.263C300.553 88.238 299.984 88.4293 299.555 88.812C299.125 89.1947 298.911 89.834 298.911 90.73V95H297.931V87.356H298.911V88.714ZM304.277 88.182V92.928C304.277 93.3947 304.365 93.7167 304.543 93.894C304.72 94.0713 305.033 94.16 305.481 94.16H306.377V95H305.327C304.636 95 304.123 94.8413 303.787 94.524C303.451 94.1973 303.283 93.6653 303.283 92.928V88.182H302.219V87.356H303.283V85.438H304.277V87.356H306.377V88.182H304.277ZM314.615 87.356V95H313.635V93.656C313.411 94.132 313.066 94.496 312.599 94.748C312.132 95 311.61 95.126 311.031 95.126C310.116 95.126 309.37 94.846 308.791 94.286C308.212 93.7167 307.923 92.8953 307.923 91.822V87.356H308.889V91.71C308.889 92.5407 309.094 93.1753 309.505 93.614C309.925 94.0527 310.494 94.272 311.213 94.272C311.95 94.272 312.538 94.0387 312.977 93.572C313.416 93.1053 313.635 92.4193 313.635 91.514V87.356H314.615ZM320.436 87.216C321.351 87.216 322.098 87.5007 322.676 88.07C323.255 88.63 323.544 89.4467 323.544 90.52V95H322.578V90.632C322.578 89.8013 322.368 89.1667 321.948 88.728C321.538 88.2893 320.973 88.07 320.254 88.07C319.517 88.07 318.929 88.3033 318.49 88.77C318.052 89.2367 317.832 89.9227 317.832 90.828V95H316.852V87.356H317.832V88.658C318.075 88.1913 318.425 87.8367 318.882 87.594C319.34 87.342 319.858 87.216 320.436 87.216ZM326.202 85.914C326.006 85.914 325.838 85.844 325.698 85.704C325.558 85.564 325.488 85.3913 325.488 85.186C325.488 84.9807 325.558 84.8127 325.698 84.682C325.838 84.542 326.006 84.472 326.202 84.472C326.398 84.472 326.566 84.542 326.706 84.682C326.846 84.8127 326.916 84.9807 326.916 85.186C326.916 85.3913 326.846 85.564 326.706 85.704C326.566 85.844 326.398 85.914 326.202 85.914ZM326.692 87.356V95H325.712V87.356H326.692ZM330.185 88.182V92.928C330.185 93.3947 330.274 93.7167 330.451 93.894C330.628 94.0713 330.941 94.16 331.389 94.16H332.285V95H331.235C330.544 95 330.031 94.8413 329.695 94.524C329.359 94.1973 329.191 93.6653 329.191 92.928V88.182H328.127V87.356H329.191V85.438H330.185V87.356H332.285V88.182H330.185ZM334.391 85.914C334.195 85.914 334.027 85.844 333.887 85.704C333.747 85.564 333.677 85.3913 333.677 85.186C333.677 84.9807 333.747 84.8127 333.887 84.682C334.027 84.542 334.195 84.472 334.391 84.472C334.587 84.472 334.755 84.542 334.895 84.682C335.035 84.8127 335.105 84.9807 335.105 85.186C335.105 85.3913 335.035 85.564 334.895 85.704C334.755 85.844 334.587 85.914 334.391 85.914ZM334.881 87.356V95H333.901V87.356H334.881ZM344.016 90.786C344.016 91.122 344.007 91.3787 343.988 91.556H337.646C337.674 92.1347 337.814 92.6293 338.066 93.04C338.318 93.4507 338.65 93.7633 339.06 93.978C339.471 94.1833 339.919 94.286 340.404 94.286C341.039 94.286 341.571 94.132 342 93.824C342.439 93.516 342.728 93.1007 342.868 92.578H343.904C343.718 93.3247 343.316 93.936 342.7 94.412C342.094 94.8787 341.328 95.112 340.404 95.112C339.686 95.112 339.042 94.9533 338.472 94.636C337.903 94.3093 337.455 93.852 337.128 93.264C336.811 92.6667 336.652 91.9713 336.652 91.178C336.652 90.3847 336.811 89.6893 337.128 89.092C337.446 88.4947 337.889 88.0373 338.458 87.72C339.028 87.4027 339.676 87.244 340.404 87.244C341.132 87.244 341.767 87.4027 342.308 87.72C342.859 88.0373 343.279 88.4667 343.568 89.008C343.867 89.54 344.016 90.1327 344.016 90.786ZM343.022 90.758C343.032 90.1887 342.915 89.7033 342.672 89.302C342.439 88.9007 342.117 88.5973 341.706 88.392C341.296 88.1867 340.848 88.084 340.362 88.084C339.634 88.084 339.014 88.3173 338.5 88.784C337.987 89.2507 337.702 89.9087 337.646 90.758H343.022ZM348.441 95.112C347.564 95.112 346.845 94.9113 346.285 94.51C345.735 94.0993 345.427 93.544 345.361 92.844H346.369C346.416 93.2733 346.617 93.6233 346.971 93.894C347.335 94.1553 347.821 94.286 348.427 94.286C348.959 94.286 349.375 94.16 349.673 93.908C349.981 93.656 350.135 93.3433 350.135 92.97C350.135 92.7087 350.051 92.494 349.883 92.326C349.715 92.158 349.501 92.0273 349.239 91.934C348.987 91.8313 348.642 91.724 348.203 91.612C347.634 91.4627 347.172 91.3133 346.817 91.164C346.463 91.0147 346.159 90.7953 345.907 90.506C345.665 90.2073 345.543 89.8107 345.543 89.316C345.543 88.9427 345.655 88.5973 345.879 88.28C346.103 87.9627 346.421 87.7107 346.831 87.524C347.242 87.3373 347.709 87.244 348.231 87.244C349.053 87.244 349.715 87.454 350.219 87.874C350.723 88.2847 350.994 88.854 351.031 89.582H350.051C350.023 89.134 349.846 88.7747 349.519 88.504C349.202 88.224 348.763 88.084 348.203 88.084C347.709 88.084 347.307 88.2007 346.999 88.434C346.691 88.6673 346.537 88.9567 346.537 89.302C346.537 89.6007 346.626 89.848 346.803 90.044C346.99 90.2307 347.219 90.38 347.489 90.492C347.76 90.5947 348.124 90.7113 348.581 90.842C349.132 90.9913 349.571 91.136 349.897 91.276C350.224 91.416 350.504 91.6213 350.737 91.892C350.971 92.1627 351.092 92.522 351.101 92.97C351.101 93.3807 350.989 93.7493 350.765 94.076C350.541 94.3933 350.229 94.6453 349.827 94.832C349.426 95.0187 348.964 95.112 348.441 95.112ZM359.798 88.182H358.02V95H357.04V88.182H355.976V87.356H357.04V86.824C357.04 85.9933 357.25 85.382 357.67 84.99C358.099 84.598 358.79 84.402 359.742 84.402V85.242C359.107 85.242 358.659 85.3633 358.398 85.606C358.146 85.8487 358.02 86.2547 358.02 86.824V87.356H359.798V88.182ZM364.687 95.112C363.968 95.112 363.319 94.9533 362.741 94.636C362.171 94.3093 361.719 93.852 361.383 93.264C361.056 92.6667 360.893 91.9713 360.893 91.178C360.893 90.3847 361.061 89.694 361.397 89.106C361.733 88.5087 362.19 88.0513 362.769 87.734C363.347 87.4073 363.996 87.244 364.715 87.244C365.433 87.244 366.082 87.4073 366.661 87.734C367.249 88.0513 367.706 88.5087 368.033 89.106C368.369 89.694 368.537 90.3847 368.537 91.178C368.537 91.962 368.369 92.6527 368.033 93.25C367.697 93.8473 367.235 94.3093 366.647 94.636C366.059 94.9533 365.405 95.112 364.687 95.112ZM364.687 94.258C365.191 94.258 365.657 94.146 366.087 93.922C366.516 93.6887 366.861 93.3433 367.123 92.886C367.393 92.4193 367.529 91.85 367.529 91.178C367.529 90.506 367.398 89.9413 367.137 89.484C366.875 89.0173 366.53 88.672 366.101 88.448C365.671 88.2147 365.205 88.098 364.701 88.098C364.197 88.098 363.73 88.2147 363.301 88.448C362.871 88.672 362.526 89.0173 362.265 89.484C362.013 89.9413 361.887 90.506 361.887 91.178C361.887 91.85 362.013 92.4193 362.265 92.886C362.526 93.3433 362.867 93.6887 363.287 93.922C363.716 94.146 364.183 94.258 364.687 94.258ZM371.303 88.714C371.518 88.238 371.844 87.8693 372.283 87.608C372.731 87.3467 373.277 87.216 373.921 87.216V88.238H373.655C372.946 88.238 372.376 88.4293 371.947 88.812C371.518 89.1947 371.303 89.834 371.303 90.73V95H370.323V87.356H371.303V88.714ZM385.705 85.214L382.569 91.192V95H381.589V91.192L378.425 85.214H379.531L382.079 90.296L384.613 85.214H385.705ZM390.486 95.112C389.767 95.112 389.118 94.9533 388.54 94.636C387.97 94.3093 387.518 93.852 387.182 93.264C386.855 92.6667 386.692 91.9713 386.692 91.178C386.692 90.3847 386.86 89.694 387.196 89.106C387.532 88.5087 387.989 88.0513 388.568 87.734C389.146 87.4073 389.795 87.244 390.514 87.244C391.232 87.244 391.881 87.4073 392.46 87.734C393.048 88.0513 393.505 88.5087 393.832 89.106C394.168 89.694 394.336 90.3847 394.336 91.178C394.336 91.962 394.168 92.6527 393.832 93.25C393.496 93.8473 393.034 94.3093 392.446 94.636C391.858 94.9533 391.204 95.112 390.486 95.112ZM390.486 94.258C390.99 94.258 391.456 94.146 391.886 93.922C392.315 93.6887 392.66 93.3433 392.922 92.886C393.192 92.4193 393.328 91.85 393.328 91.178C393.328 90.506 393.197 89.9413 392.936 89.484C392.674 89.0173 392.329 88.672 391.9 88.448C391.47 88.2147 391.004 88.098 390.5 88.098C389.996 88.098 389.529 88.2147 389.1 88.448C388.67 88.672 388.325 89.0173 388.064 89.484C387.812 89.9413 387.686 90.506 387.686 91.178C387.686 91.85 387.812 92.4193 388.064 92.886C388.325 93.3433 388.666 93.6887 389.086 93.922C389.515 94.146 389.982 94.258 390.486 94.258ZM402.744 87.356V95H401.764V93.656C401.54 94.132 401.195 94.496 400.728 94.748C400.261 95 399.739 95.126 399.16 95.126C398.245 95.126 397.499 94.846 396.92 94.286C396.341 93.7167 396.052 92.8953 396.052 91.822V87.356H397.018V91.71C397.018 92.5407 397.223 93.1753 397.634 93.614C398.054 94.0527 398.623 94.272 399.342 94.272C400.079 94.272 400.667 94.0387 401.106 93.572C401.545 93.1053 401.764 92.4193 401.764 91.514V87.356H402.744ZM406.297 85.214L406.171 92.41H405.345L405.233 85.214H406.297ZM405.807 95.07C405.602 95.07 405.429 95 405.289 94.86C405.159 94.72 405.093 94.5473 405.093 94.342C405.093 94.1367 405.159 93.9687 405.289 93.838C405.429 93.698 405.602 93.628 405.807 93.628C406.003 93.628 406.167 93.698 406.297 93.838C406.437 93.9687 406.507 94.1367 406.507 94.342C406.507 94.5473 406.437 94.72 406.297 94.86C406.167 95 406.003 95.07 405.807 95.07Z" fill="black"/>
<path d="M215 307.833C238.012 307.833 258.845 298.506 273.925 283.425C289.006 268.345 298.333 247.512 298.333 224.5C298.333 201.488 289.006 180.655 273.925 165.574C258.845 150.494 238.012 141.167 215 141.167C191.988 141.167 171.155 150.494 156.074 165.574C140.994 180.655 131.667 201.488 131.667 224.5C131.667 247.512 140.994 268.345 156.074 283.425C171.155 298.506 191.988 307.833 215 307.833Z" fill="#2F88FF" stroke="black" stroke-width="2" stroke-linejoin="round"/>
<path d="M181.667 224.5L206.667 249.5L256.667 199.5" stroke="white" stroke-width="2" stroke-linecap="round" stroke-linejoin="round"/>
<path d="M181.667 224.5L206.667 249.5L256.667 199.5" stroke="black" stroke-width="2" stroke-linecap="round" stroke-linejoin="round"/>
<g clip-path="url(#clip0_124_207)">
<rect width="410" height="256.666" transform="translate(10 358)" fill="#FEF4DF"/>
<path d="M18.38 386.04V388.3H14.66V400H11.86V388.3H8.14V386.04H18.38ZM26.663 388.76C27.503 388.76 28.2496 388.947 28.903 389.32C29.5563 389.68 30.063 390.22 30.423 390.94C30.7963 391.647 30.983 392.5 30.983 393.5V400H28.183V393.88C28.183 393 27.963 392.327 27.523 391.86C27.083 391.38 26.483 391.14 25.723 391.14C24.9496 391.14 24.3363 391.38 23.883 391.86C23.443 392.327 23.223 393 23.223 393.88V400H20.423V385.2H23.223V390.3C23.583 389.82 24.063 389.447 24.663 389.18C25.263 388.9 25.9296 388.76 26.663 388.76ZM32.9256 394.42C32.9256 393.3 33.1456 392.307 33.5856 391.44C34.039 390.573 34.6456 389.907 35.4056 389.44C36.179 388.973 37.039 388.74 37.9856 388.74C38.8123 388.74 39.5323 388.907 40.1456 389.24C40.7723 389.573 41.2723 389.993 41.6456 390.5V388.92H44.4656V400H41.6456V398.38C41.2856 398.9 40.7856 399.333 40.1456 399.68C39.519 400.013 38.7923 400.18 37.9656 400.18C37.0323 400.18 36.179 399.94 35.4056 399.46C34.6456 398.98 34.039 398.307 33.5856 397.44C33.1456 396.56 32.9256 395.553 32.9256 394.42ZM41.6456 394.46C41.6456 393.78 41.5123 393.2 41.2456 392.72C40.979 392.227 40.619 391.853 40.1656 391.6C39.7123 391.333 39.2256 391.2 38.7056 391.2C38.1856 391.2 37.7056 391.327 37.2656 391.58C36.8256 391.833 36.4656 392.207 36.1856 392.7C35.919 393.18 35.7856 393.753 35.7856 394.42C35.7856 395.087 35.919 395.673 36.1856 396.18C36.4656 396.673 36.8256 397.053 37.2656 397.32C37.719 397.587 38.199 397.72 38.7056 397.72C39.2256 397.72 39.7123 397.593 40.1656 397.34C40.619 397.073 40.979 396.7 41.2456 396.22C41.5123 395.727 41.6456 395.14 41.6456 394.46ZM53.3403 388.76C54.6603 388.76 55.727 389.18 56.5403 390.02C57.3536 390.847 57.7603 392.007 57.7603 393.5V400H54.9603V393.88C54.9603 393 54.7403 392.327 54.3003 391.86C53.8603 391.38 53.2603 391.14 52.5003 391.14C51.727 391.14 51.1136 391.38 50.6603 391.86C50.2203 392.327 50.0003 393 50.0003 393.88V400H47.2003V388.92H50.0003V390.3C50.3736 389.82 50.847 389.447 51.4203 389.18C52.007 388.9 52.647 388.76 53.3403 388.76ZM66.983 400L63.223 395.28V400H60.423V385.2H63.223V393.62L66.943 388.92H70.583L65.703 394.48L70.623 400H66.983ZM87.4683 388.92L80.6083 405.24H77.6283L80.0283 399.72L75.5883 388.92H78.7283L81.5883 396.66L84.4883 388.92H87.4683ZM93.8977 400.18C92.831 400.18 91.871 399.947 91.0177 399.48C90.1643 399 89.491 398.327 88.9977 397.46C88.5177 396.593 88.2777 395.593 88.2777 394.46C88.2777 393.327 88.5243 392.327 89.0177 391.46C89.5243 390.593 90.211 389.927 91.0777 389.46C91.9443 388.98 92.911 388.74 93.9777 388.74C95.0443 388.74 96.011 388.98 96.8777 389.46C97.7443 389.927 98.4243 390.593 98.9177 391.46C99.4243 392.327 99.6777 393.327 99.6777 394.46C99.6777 395.593 99.4177 396.593 98.8977 397.46C98.391 398.327 97.6977 399 96.8177 399.48C95.951 399.947 94.9777 400.18 93.8977 400.18ZM93.8977 397.74C94.4043 397.74 94.8777 397.62 95.3177 397.38C95.771 397.127 96.131 396.753 96.3977 396.26C96.6643 395.767 96.7977 395.167 96.7977 394.46C96.7977 393.407 96.5177 392.6 95.9577 392.04C95.411 391.467 94.7377 391.18 93.9377 391.18C93.1377 391.18 92.4643 391.467 91.9177 392.04C91.3843 392.6 91.1177 393.407 91.1177 394.46C91.1177 395.513 91.3777 396.327 91.8977 396.9C92.431 397.46 93.0977 397.74 93.8977 397.74ZM112.192 388.92V400H109.372V398.6C109.012 399.08 108.538 399.46 107.952 399.74C107.378 400.007 106.752 400.14 106.072 400.14C105.205 400.14 104.438 399.96 103.772 399.6C103.105 399.227 102.578 398.687 102.192 397.98C101.818 397.26 101.632 396.407 101.632 395.42V388.92H104.432V395.02C104.432 395.9 104.652 396.58 105.092 397.06C105.532 397.527 106.132 397.76 106.892 397.76C107.665 397.76 108.272 397.527 108.712 397.06C109.152 396.58 109.372 395.9 109.372 395.02V388.92H112.192ZM124.8 391.22H122.86V400H120.02V391.22H118.76V388.92H120.02V388.36C120.02 387 120.407 386 121.18 385.36C121.953 384.72 123.12 384.42 124.68 384.46V386.82C124 386.807 123.527 386.92 123.26 387.16C122.993 387.4 122.86 387.833 122.86 388.46V388.92H124.8V391.22ZM131.534 400.18C130.468 400.18 129.508 399.947 128.654 399.48C127.801 399 127.128 398.327 126.634 397.46C126.154 396.593 125.914 395.593 125.914 394.46C125.914 393.327 126.161 392.327 126.654 391.46C127.161 390.593 127.848 389.927 128.714 389.46C129.581 388.98 130.548 388.74 131.614 388.74C132.681 388.74 133.648 388.98 134.514 389.46C135.381 389.927 136.061 390.593 136.554 391.46C137.061 392.327 137.314 393.327 137.314 394.46C137.314 395.593 137.054 396.593 136.534 397.46C136.028 398.327 135.334 399 134.454 399.48C133.588 399.947 132.614 400.18 131.534 400.18ZM131.534 397.74C132.041 397.74 132.514 397.62 132.954 397.38C133.408 397.127 133.768 396.753 134.034 396.26C134.301 395.767 134.434 395.167 134.434 394.46C134.434 393.407 134.154 392.6 133.594 392.04C133.048 391.467 132.374 391.18 131.574 391.18C130.774 391.18 130.101 391.467 129.554 392.04C129.021 392.6 128.754 393.407 128.754 394.46C128.754 395.513 129.014 396.327 129.534 396.9C130.068 397.46 130.734 397.74 131.534 397.74ZM142.168 390.64C142.528 390.053 142.995 389.593 143.568 389.26C144.155 388.927 144.822 388.76 145.568 388.76V391.7H144.828C143.948 391.7 143.282 391.907 142.828 392.32C142.388 392.733 142.168 393.453 142.168 394.48V400H139.368V388.92H142.168V390.64ZM157.3 391.22H155.36V400H152.52V391.22H151.26V388.92H152.52V388.36C152.52 387 152.907 386 153.68 385.36C154.453 384.72 155.62 384.42 157.18 384.46V386.82C156.5 386.807 156.027 386.92 155.76 387.16C155.493 387.4 155.36 387.833 155.36 388.46V388.92H157.3V391.22ZM160.534 387.6C160.041 387.6 159.628 387.447 159.294 387.14C158.974 386.82 158.814 386.427 158.814 385.96C158.814 385.493 158.974 385.107 159.294 384.8C159.628 384.48 160.041 384.32 160.534 384.32C161.028 384.32 161.434 384.48 161.754 384.8C162.088 385.107 162.254 385.493 162.254 385.96C162.254 386.427 162.088 386.82 161.754 387.14C161.434 387.447 161.028 387.6 160.534 387.6ZM161.914 388.92V400H159.114V388.92H161.914ZM167.481 385.2V400H164.681V385.2H167.481ZM173.047 385.2V400H170.247V385.2H173.047ZM177.234 387.6C176.74 387.6 176.327 387.447 175.994 387.14C175.674 386.82 175.514 386.427 175.514 385.96C175.514 385.493 175.674 385.107 175.994 384.8C176.327 384.48 176.74 384.32 177.234 384.32C177.727 384.32 178.134 384.48 178.454 384.8C178.787 385.107 178.954 385.493 178.954 385.96C178.954 386.427 178.787 386.82 178.454 387.14C178.134 387.447 177.727 387.6 177.234 387.6ZM178.614 388.92V400H175.814V388.92H178.614ZM187.52 388.76C188.84 388.76 189.907 389.18 190.72 390.02C191.533 390.847 191.94 392.007 191.94 393.5V400H189.14V393.88C189.14 393 188.92 392.327 188.48 391.86C188.04 391.38 187.44 391.14 186.68 391.14C185.907 391.14 185.293 391.38 184.84 391.86C184.4 392.327 184.18 393 184.18 393.88V400H181.38V388.92H184.18V390.3C184.553 389.82 185.027 389.447 185.6 389.18C186.187 388.9 186.827 388.76 187.52 388.76ZM198.943 388.74C199.769 388.74 200.496 388.907 201.123 389.24C201.749 389.56 202.243 389.98 202.603 390.5V388.92H205.423V400.08C205.423 401.107 205.216 402.02 204.803 402.82C204.389 403.633 203.769 404.273 202.943 404.74C202.116 405.22 201.116 405.46 199.943 405.46C198.369 405.46 197.076 405.093 196.063 404.36C195.063 403.627 194.496 402.627 194.363 401.36H197.143C197.289 401.867 197.603 402.267 198.083 402.56C198.576 402.867 199.169 403.02 199.863 403.02C200.676 403.02 201.336 402.773 201.843 402.28C202.349 401.8 202.603 401.067 202.603 400.08V398.36C202.243 398.88 201.743 399.313 201.103 399.66C200.476 400.007 199.756 400.18 198.943 400.18C198.009 400.18 197.156 399.94 196.383 399.46C195.609 398.98 194.996 398.307 194.543 397.44C194.103 396.56 193.883 395.553 193.883 394.42C193.883 393.3 194.103 392.307 194.543 391.44C194.996 390.573 195.603 389.907 196.363 389.44C197.136 388.973 197.996 388.74 198.943 388.74ZM202.603 394.46C202.603 393.78 202.469 393.2 202.203 392.72C201.936 392.227 201.576 391.853 201.123 391.6C200.669 391.333 200.183 391.2 199.663 391.2C199.143 391.2 198.663 391.327 198.223 391.58C197.783 391.833 197.423 392.207 197.143 392.7C196.876 393.18 196.743 393.753 196.743 394.42C196.743 395.087 196.876 395.673 197.143 396.18C197.423 396.673 197.783 397.053 198.223 397.32C198.676 397.587 199.156 397.72 199.663 397.72C200.183 397.72 200.669 397.593 201.123 397.34C201.576 397.073 201.936 396.7 202.203 396.22C202.469 395.727 202.603 395.14 202.603 394.46ZM217.843 400.18C216.776 400.18 215.816 399.947 214.963 399.48C214.11 399 213.436 398.327 212.943 397.46C212.463 396.593 212.223 395.593 212.223 394.46C212.223 393.327 212.47 392.327 212.963 391.46C213.47 390.593 214.156 389.927 215.023 389.46C215.89 388.98 216.856 388.74 217.923 388.74C218.99 388.74 219.956 388.98 220.823 389.46C221.69 389.927 222.37 390.593 222.863 391.46C223.37 392.327 223.623 393.327 223.623 394.46C223.623 395.593 223.363 396.593 222.843 397.46C222.336 398.327 221.643 399 220.763 399.48C219.896 399.947 218.923 400.18 217.843 400.18ZM217.843 397.74C218.35 397.74 218.823 397.62 219.263 397.38C219.716 397.127 220.076 396.753 220.343 396.26C220.61 395.767 220.743 395.167 220.743 394.46C220.743 393.407 220.463 392.6 219.903 392.04C219.356 391.467 218.683 391.18 217.883 391.18C217.083 391.18 216.41 391.467 215.863 392.04C215.33 392.6 215.063 393.407 215.063 394.46C215.063 395.513 215.323 396.327 215.843 396.9C216.376 397.46 217.043 397.74 217.843 397.74ZM236.137 388.92V400H233.317V398.6C232.957 399.08 232.484 399.46 231.897 399.74C231.324 400.007 230.697 400.14 230.017 400.14C229.15 400.14 228.384 399.96 227.717 399.6C227.05 399.227 226.524 398.687 226.137 397.98C225.764 397.26 225.577 396.407 225.577 395.42V388.92H228.377V395.02C228.377 395.9 228.597 396.58 229.037 397.06C229.477 397.527 230.077 397.76 230.837 397.76C231.61 397.76 232.217 397.527 232.657 397.06C233.097 396.58 233.317 395.9 233.317 395.02V388.92H236.137ZM242.16 391.22V396.58C242.16 396.953 242.246 397.227 242.42 397.4C242.606 397.56 242.913 397.64 243.34 397.64H244.64V400H242.88C240.52 400 239.34 398.853 239.34 396.56V391.22H238.02V388.92H239.34V386.18H242.16V388.92H244.64V391.22H242.16ZM262.019 388.92L255.159 405.24H252.179L254.579 399.72L250.139 388.92H253.279L256.139 396.66L259.039 388.92H262.019ZM268.448 400.18C267.382 400.18 266.422 399.947 265.568 399.48C264.715 399 264.042 398.327 263.548 397.46C263.068 396.593 262.828 395.593 262.828 394.46C262.828 393.327 263.075 392.327 263.568 391.46C264.075 390.593 264.762 389.927 265.628 389.46C266.495 388.98 267.462 388.74 268.528 388.74C269.595 388.74 270.562 388.98 271.428 389.46C272.295 389.927 272.975 390.593 273.468 391.46C273.975 392.327 274.228 393.327 274.228 394.46C274.228 395.593 273.968 396.593 273.448 397.46C272.942 398.327 272.248 399 271.368 399.48C270.502 399.947 269.528 400.18 268.448 400.18ZM268.448 397.74C268.955 397.74 269.428 397.62 269.868 397.38C270.322 397.127 270.682 396.753 270.948 396.26C271.215 395.767 271.348 395.167 271.348 394.46C271.348 393.407 271.068 392.6 270.508 392.04C269.962 391.467 269.288 391.18 268.488 391.18C267.688 391.18 267.015 391.467 266.468 392.04C265.935 392.6 265.668 393.407 265.668 394.46C265.668 395.513 265.928 396.327 266.448 396.9C266.982 397.46 267.648 397.74 268.448 397.74ZM286.742 388.92V400H283.922V398.6C283.562 399.08 283.089 399.46 282.502 399.74C281.929 400.007 281.302 400.14 280.622 400.14C279.756 400.14 278.989 399.96 278.322 399.6C277.656 399.227 277.129 398.687 276.742 397.98C276.369 397.26 276.182 396.407 276.182 395.42V388.92H278.982V395.02C278.982 395.9 279.202 396.58 279.642 397.06C280.082 397.527 280.682 397.76 281.442 397.76C282.216 397.76 282.822 397.527 283.262 397.06C283.702 396.58 283.922 395.9 283.922 395.02V388.92H286.742ZM292.305 390.64C292.665 390.053 293.132 389.593 293.705 389.26C294.292 388.927 294.958 388.76 295.705 388.76V391.7H294.965C294.085 391.7 293.418 391.907 292.965 392.32C292.525 392.733 292.305 393.453 292.305 394.48V400H289.505V388.92H292.305V390.64ZM306.597 400.18C305.69 400.18 304.877 400.02 304.157 399.7C303.437 399.367 302.863 398.92 302.437 398.36C302.023 397.8 301.797 397.18 301.757 396.5H304.577C304.63 396.927 304.837 397.28 305.197 397.56C305.57 397.84 306.03 397.98 306.577 397.98C307.11 397.98 307.523 397.873 307.817 397.66C308.123 397.447 308.277 397.173 308.277 396.84C308.277 396.48 308.09 396.213 307.717 396.04C307.357 395.853 306.777 395.653 305.977 395.44C305.15 395.24 304.47 395.033 303.937 394.82C303.417 394.607 302.963 394.28 302.577 393.84C302.203 393.4 302.017 392.807 302.017 392.06C302.017 391.447 302.19 390.887 302.537 390.38C302.897 389.873 303.403 389.473 304.057 389.18C304.723 388.887 305.503 388.74 306.397 388.74C307.717 388.74 308.77 389.073 309.557 389.74C310.343 390.393 310.777 391.28 310.857 392.4H308.177C308.137 391.96 307.95 391.613 307.617 391.36C307.297 391.093 306.863 390.96 306.317 390.96C305.81 390.96 305.417 391.053 305.137 391.24C304.87 391.427 304.737 391.687 304.737 392.02C304.737 392.393 304.923 392.68 305.297 392.88C305.67 393.067 306.25 393.26 307.037 393.46C307.837 393.66 308.497 393.867 309.017 394.08C309.537 394.293 309.983 394.627 310.357 395.08C310.743 395.52 310.943 396.107 310.957 396.84C310.957 397.48 310.777 398.053 310.417 398.56C310.07 399.067 309.563 399.467 308.897 399.76C308.243 400.04 307.477 400.18 306.597 400.18ZM323.715 388.92V400H320.895V398.6C320.535 399.08 320.062 399.46 319.475 399.74C318.902 400.007 318.275 400.14 317.595 400.14C316.728 400.14 315.962 399.96 315.295 399.6C314.628 399.227 314.102 398.687 313.715 397.98C313.342 397.26 313.155 396.407 313.155 395.42V388.92H315.955V395.02C315.955 395.9 316.175 396.58 316.615 397.06C317.055 397.527 317.655 397.76 318.415 397.76C319.188 397.76 319.795 397.527 320.235 397.06C320.675 396.58 320.895 395.9 320.895 395.02V388.92H323.715ZM329.278 390.64C329.638 390.053 330.104 389.593 330.678 389.26C331.264 388.927 331.931 388.76 332.678 388.76V391.7H331.938C331.058 391.7 330.391 391.907 329.938 392.32C329.498 392.733 329.278 393.453 329.278 394.48V400H326.478V388.92H329.278V390.64ZM339.184 397.42L341.984 388.92H344.964L340.864 400H337.464L333.384 388.92H336.384L339.184 397.42ZM356.836 394.22C356.836 394.62 356.81 394.98 356.756 395.3H348.656C348.723 396.1 349.003 396.727 349.496 397.18C349.99 397.633 350.596 397.86 351.316 397.86C352.356 397.86 353.096 397.413 353.536 396.52H356.556C356.236 397.587 355.623 398.467 354.716 399.16C353.81 399.84 352.696 400.18 351.376 400.18C350.31 400.18 349.35 399.947 348.496 399.48C347.656 399 346.996 398.327 346.516 397.46C346.05 396.593 345.816 395.593 345.816 394.46C345.816 393.313 346.05 392.307 346.516 391.44C346.983 390.573 347.636 389.907 348.476 389.44C349.316 388.973 350.283 388.74 351.376 388.74C352.43 388.74 353.37 388.967 354.196 389.42C355.036 389.873 355.683 390.52 356.136 391.36C356.603 392.187 356.836 393.14 356.836 394.22ZM353.936 393.42C353.923 392.7 353.663 392.127 353.156 391.7C352.65 391.26 352.03 391.04 351.296 391.04C350.603 391.04 350.016 391.253 349.536 391.68C349.07 392.093 348.783 392.673 348.676 393.42H353.936ZM369.48 388.92L362.62 405.24H359.64L362.04 399.72L357.6 388.92H360.74L363.6 396.66L366.5 388.92H369.48ZM374.609 385.8L374.289 395.46H371.929L371.589 385.8H374.609ZM373.169 400.14C372.663 400.14 372.243 399.987 371.909 399.68C371.589 399.36 371.429 398.967 371.429 398.5C371.429 398.033 371.589 397.647 371.909 397.34C372.243 397.02 372.663 396.86 373.169 396.86C373.663 396.86 374.069 397.02 374.389 397.34C374.709 397.647 374.869 398.033 374.869 398.5C374.869 398.967 374.709 399.36 374.389 399.68C374.069 399.987 373.663 400.14 373.169 400.14ZM19.98 416.04L15.26 425.14V430H12.46V425.14L7.72 416.04H10.88L13.88 422.42L16.86 416.04H19.98ZM26.5148 430.18C25.4482 430.18 24.4882 429.947 23.6348 429.48C22.7815 429 22.1082 428.327 21.6148 427.46C21.1348 426.593 20.8948 425.593 20.8948 424.46C20.8948 423.327 21.1415 422.327 21.6348 421.46C22.1415 420.593 22.8282 419.927 23.6948 419.46C24.5615 418.98 25.5282 418.74 26.5948 418.74C27.6615 418.74 28.6282 418.98 29.4948 419.46C30.3615 419.927 31.0415 420.593 31.5348 421.46C32.0415 422.327 32.2948 423.327 32.2948 424.46C32.2948 425.593 32.0348 426.593 31.5148 427.46C31.0082 428.327 30.3148 429 29.4348 429.48C28.5682 429.947 27.5948 430.18 26.5148 430.18ZM26.5148 427.74C27.0215 427.74 27.4948 427.62 27.9348 427.38C28.3882 427.127 28.7482 426.753 29.0148 426.26C29.2815 425.767 29.4148 425.167 29.4148 424.46C29.4148 423.407 29.1348 422.6 28.5748 422.04C28.0282 421.467 27.3548 421.18 26.5548 421.18C25.7548 421.18 25.0815 421.467 24.5348 422.04C24.0015 422.6 23.7348 423.407 23.7348 424.46C23.7348 425.513 23.9948 426.327 24.5148 426.9C25.0482 427.46 25.7148 427.74 26.5148 427.74ZM44.8088 418.92V430H41.9888V428.6C41.6288 429.08 41.1554 429.46 40.5688 429.74C39.9954 430.007 39.3688 430.14 38.6888 430.14C37.8221 430.14 37.0554 429.96 36.3888 429.6C35.7221 429.227 35.1954 428.687 34.8088 427.98C34.4354 427.26 34.2488 426.407 34.2488 425.42V418.92H37.0488V425.02C37.0488 425.9 37.2688 426.58 37.7088 427.06C38.1488 427.527 38.7488 427.76 39.5088 427.76C40.2821 427.76 40.8888 427.527 41.3288 427.06C41.7688 426.58 41.9888 425.9 41.9888 425.02V418.92H44.8088ZM50.3714 420.64C50.7314 420.053 51.1981 419.593 51.7714 419.26C52.3581 418.927 53.0247 418.76 53.7714 418.76V421.7H53.0314C52.1514 421.7 51.4847 421.907 51.0314 422.32C50.5914 422.733 50.3714 423.453 50.3714 424.48V430H47.5714V418.92H50.3714V420.64ZM63.223 420.64C63.583 420.053 64.0496 419.593 64.623 419.26C65.2096 418.927 65.8763 418.76 66.623 418.76V421.7H65.883C65.003 421.7 64.3363 421.907 63.883 422.32C63.443 422.733 63.223 423.453 63.223 424.48V430H60.423V418.92H63.223V420.64ZM78.8089 424.22C78.8089 424.62 78.7822 424.98 78.7289 425.3H70.6289C70.6956 426.1 70.9756 426.727 71.4689 427.18C71.9622 427.633 72.5689 427.86 73.2889 427.86C74.3289 427.86 75.0689 427.413 75.5089 426.52H78.5289C78.2089 427.587 77.5956 428.467 76.6889 429.16C75.7822 429.84 74.6689 430.18 73.3489 430.18C72.2822 430.18 71.3222 429.947 70.4689 429.48C69.6289 429 68.9689 428.327 68.4889 427.46C68.0222 426.593 67.7889 425.593 67.7889 424.46C67.7889 423.313 68.0222 422.307 68.4889 421.44C68.9556 420.573 69.6089 419.907 70.4489 419.44C71.2889 418.973 72.2556 418.74 73.3489 418.74C74.4022 418.74 75.3422 418.967 76.1689 419.42C77.0089 419.873 77.6556 420.52 78.1089 421.36C78.5756 422.187 78.8089 423.14 78.8089 424.22ZM75.9089 423.42C75.8956 422.7 75.6356 422.127 75.1289 421.7C74.6222 421.26 74.0022 421.04 73.2689 421.04C72.5756 421.04 71.9889 421.253 71.5089 421.68C71.0422 422.093 70.7556 422.673 70.6489 423.42H75.9089ZM85.0927 430.18C84.186 430.18 83.3727 430.02 82.6527 429.7C81.9327 429.367 81.3593 428.92 80.9327 428.36C80.5193 427.8 80.2927 427.18 80.2527 426.5H83.0727C83.126 426.927 83.3327 427.28 83.6927 427.56C84.066 427.84 84.526 427.98 85.0727 427.98C85.606 427.98 86.0193 427.873 86.3127 427.66C86.6193 427.447 86.7727 427.173 86.7727 426.84C86.7727 426.48 86.586 426.213 86.2127 426.04C85.8527 425.853 85.2727 425.653 84.4727 425.44C83.646 425.24 82.966 425.033 82.4327 424.82C81.9127 424.607 81.4593 424.28 81.0727 423.84C80.6993 423.4 80.5127 422.807 80.5127 422.06C80.5127 421.447 80.686 420.887 81.0327 420.38C81.3927 419.873 81.8993 419.473 82.5527 419.18C83.2193 418.887 83.9993 418.74 84.8927 418.74C86.2127 418.74 87.266 419.073 88.0527 419.74C88.8393 420.393 89.2727 421.28 89.3527 422.4H86.6727C86.6327 421.96 86.446 421.613 86.1127 421.36C85.7927 421.093 85.3593 420.96 84.8127 420.96C84.306 420.96 83.9127 421.053 83.6327 421.24C83.366 421.427 83.2327 421.687 83.2327 422.02C83.2327 422.393 83.4193 422.68 83.7927 422.88C84.166 423.067 84.746 423.26 85.5327 423.46C86.3327 423.66 86.9927 423.867 87.5127 424.08C88.0327 424.293 88.4793 424.627 88.8527 425.08C89.2393 425.52 89.4393 426.107 89.4527 426.84C89.4527 427.48 89.2727 428.053 88.9127 428.56C88.566 429.067 88.0593 429.467 87.3927 429.76C86.7393 430.04 85.9727 430.18 85.0927 430.18ZM102.211 418.92V430H99.3911V428.6C99.0311 429.08 98.5578 429.46 97.9711 429.74C97.3978 430.007 96.7711 430.14 96.0911 430.14C95.2244 430.14 94.4578 429.96 93.7911 429.6C93.1244 429.227 92.5978 428.687 92.2111 427.98C91.8378 427.26 91.6511 426.407 91.6511 425.42V418.92H94.4511V425.02C94.4511 425.9 94.6711 426.58 95.1111 427.06C95.5511 427.527 96.1511 427.76 96.9111 427.76C97.6844 427.76 98.2911 427.527 98.7311 427.06C99.1711 426.58 99.3911 425.9 99.3911 425.02V418.92H102.211ZM107.774 415.2V430H104.974V415.2H107.774ZM113.8 421.22V426.58C113.8 426.953 113.887 427.227 114.06 427.4C114.247 427.56 114.553 427.64 114.98 427.64H116.28V430H114.52C112.16 430 110.98 428.853 110.98 426.56V421.22H109.66V418.92H110.98V416.18H113.8V418.92H116.28V421.22H113.8ZM122.534 430.18C121.627 430.18 120.814 430.02 120.094 429.7C119.374 429.367 118.801 428.92 118.374 428.36C117.961 427.8 117.734 427.18 117.694 426.5H120.514C120.567 426.927 120.774 427.28 121.134 427.56C121.507 427.84 121.967 427.98 122.514 427.98C123.047 427.98 123.461 427.873 123.754 427.66C124.061 427.447 124.214 427.173 124.214 426.84C124.214 426.48 124.027 426.213 123.654 426.04C123.294 425.853 122.714 425.653 121.914 425.44C121.087 425.24 120.407 425.033 119.874 424.82C119.354 424.607 118.901 424.28 118.514 423.84C118.141 423.4 117.954 422.807 117.954 422.06C117.954 421.447 118.127 420.887 118.474 420.38C118.834 419.873 119.341 419.473 119.994 419.18C120.661 418.887 121.441 418.74 122.334 418.74C123.654 418.74 124.707 419.073 125.494 419.74C126.281 420.393 126.714 421.28 126.794 422.4H124.114C124.074 421.96 123.887 421.613 123.554 421.36C123.234 421.093 122.801 420.96 122.254 420.96C121.747 420.96 121.354 421.053 121.074 421.24C120.807 421.427 120.674 421.687 120.674 422.02C120.674 422.393 120.861 422.68 121.234 422.88C121.607 423.067 122.187 423.26 122.974 423.46C123.774 423.66 124.434 423.867 124.954 424.08C125.474 424.293 125.921 424.627 126.294 425.08C126.681 425.52 126.881 426.107 126.894 426.84C126.894 427.48 126.714 428.053 126.354 428.56C126.007 429.067 125.501 429.467 124.834 429.76C124.181 430.04 123.414 430.18 122.534 430.18ZM149.318 418.92L146.078 430H143.058L141.038 422.26L139.018 430H135.978L132.718 418.92H135.558L137.518 427.36L139.638 418.92H142.598L144.678 427.34L146.638 418.92H149.318ZM152.253 417.6C151.76 417.6 151.346 417.447 151.013 417.14C150.693 416.82 150.533 416.427 150.533 415.96C150.533 415.493 150.693 415.107 151.013 414.8C151.346 414.48 151.76 414.32 152.253 414.32C152.746 414.32 153.153 414.48 153.473 414.8C153.806 415.107 153.973 415.493 153.973 415.96C153.973 416.427 153.806 416.82 153.473 417.14C153.153 417.447 152.746 417.6 152.253 417.6ZM153.633 418.92V430H150.833V418.92H153.633ZM159.2 415.2V430H156.4V415.2H159.2ZM164.766 415.2V430H161.966V415.2H164.766ZM175.098 420.54C175.458 420.007 175.951 419.573 176.578 419.24C177.218 418.907 177.945 418.74 178.758 418.74C179.705 418.74 180.558 418.973 181.318 419.44C182.091 419.907 182.698 420.573 183.138 421.44C183.591 422.293 183.818 423.287 183.818 424.42C183.818 425.553 183.591 426.56 183.138 427.44C182.698 428.307 182.091 428.98 181.318 429.46C180.558 429.94 179.705 430.18 178.758 430.18C177.931 430.18 177.205 430.02 176.578 429.7C175.965 429.367 175.471 428.94 175.098 428.42V430H172.298V415.2H175.098V420.54ZM180.958 424.42C180.958 423.753 180.818 423.18 180.538 422.7C180.271 422.207 179.911 421.833 179.458 421.58C179.018 421.327 178.538 421.2 178.018 421.2C177.511 421.2 177.031 421.333 176.578 421.6C176.138 421.853 175.778 422.227 175.498 422.72C175.231 423.213 175.098 423.793 175.098 424.46C175.098 425.127 175.231 425.707 175.498 426.2C175.778 426.693 176.138 427.073 176.578 427.34C177.031 427.593 177.511 427.72 178.018 427.72C178.538 427.72 179.018 427.587 179.458 427.32C179.911 427.053 180.271 426.673 180.538 426.18C180.818 425.687 180.958 425.1 180.958 424.42ZM196.153 424.22C196.153 424.62 196.126 424.98 196.073 425.3H187.973C188.039 426.1 188.319 426.727 188.813 427.18C189.306 427.633 189.913 427.86 190.633 427.86C191.673 427.86 192.413 427.413 192.853 426.52H195.873C195.553 427.587 194.939 428.467 194.033 429.16C193.126 429.84 192.013 430.18 190.693 430.18C189.626 430.18 188.666 429.947 187.813 429.48C186.973 429 186.313 428.327 185.833 427.46C185.366 426.593 185.133 425.593 185.133 424.46C185.133 423.313 185.366 422.307 185.833 421.44C186.299 420.573 186.953 419.907 187.793 419.44C188.633 418.973 189.599 418.74 190.693 418.74C191.746 418.74 192.686 418.967 193.513 419.42C194.353 419.873 194.999 420.52 195.453 421.36C195.919 422.187 196.153 423.14 196.153 424.22ZM193.253 423.42C193.239 422.7 192.979 422.127 192.473 421.7C191.966 421.26 191.346 421.04 190.613 421.04C189.919 421.04 189.333 421.253 188.853 421.68C188.386 422.093 188.099 422.673 187.993 423.42H193.253ZM202.242 424.42C202.242 423.3 202.462 422.307 202.902 421.44C203.355 420.573 203.962 419.907 204.722 419.44C205.495 418.973 206.355 418.74 207.302 418.74C208.129 418.74 208.849 418.907 209.462 419.24C210.089 419.573 210.589 419.993 210.962 420.5V418.92H213.782V430H210.962V428.38C210.602 428.9 210.102 429.333 209.462 429.68C208.835 430.013 208.109 430.18 207.282 430.18C206.349 430.18 205.495 429.94 204.722 429.46C203.962 428.98 203.355 428.307 202.902 427.44C202.462 426.56 202.242 425.553 202.242 424.42ZM210.962 424.46C210.962 423.78 210.829 423.2 210.562 422.72C210.295 422.227 209.935 421.853 209.482 421.6C209.029 421.333 208.542 421.2 208.022 421.2C207.502 421.2 207.022 421.327 206.582 421.58C206.142 421.833 205.782 422.207 205.502 422.7C205.235 423.18 205.102 423.753 205.102 424.42C205.102 425.087 205.235 425.673 205.502 426.18C205.782 426.673 206.142 427.053 206.582 427.32C207.035 427.587 207.515 427.72 208.022 427.72C208.542 427.72 209.029 427.593 209.482 427.34C209.935 427.073 210.295 426.7 210.562 426.22C210.829 425.727 210.962 425.14 210.962 424.46ZM221.137 427.42L223.937 418.92H226.917L222.817 430H219.417L215.337 418.92H218.337L221.137 427.42ZM227.769 424.42C227.769 423.3 227.989 422.307 228.429 421.44C228.883 420.573 229.489 419.907 230.249 419.44C231.023 418.973 231.883 418.74 232.829 418.74C233.656 418.74 234.376 418.907 234.989 419.24C235.616 419.573 236.116 419.993 236.489 420.5V418.92H239.309V430H236.489V428.38C236.129 428.9 235.629 429.333 234.989 429.68C234.363 430.013 233.636 430.18 232.809 430.18C231.876 430.18 231.023 429.94 230.249 429.46C229.489 428.98 228.883 428.307 228.429 427.44C227.989 426.56 227.769 425.553 227.769 424.42ZM236.489 424.46C236.489 423.78 236.356 423.2 236.089 422.72C235.823 422.227 235.463 421.853 235.009 421.6C234.556 421.333 234.069 421.2 233.549 421.2C233.029 421.2 232.549 421.327 232.109 421.58C231.669 421.833 231.309 422.207 231.029 422.7C230.763 423.18 230.629 423.753 230.629 424.42C230.629 425.087 230.763 425.673 231.029 426.18C231.309 426.673 231.669 427.053 232.109 427.32C232.563 427.587 233.043 427.72 233.549 427.72C234.069 427.72 234.556 427.593 235.009 427.34C235.463 427.073 235.823 426.7 236.089 426.22C236.356 425.727 236.489 425.14 236.489 424.46ZM243.464 417.6C242.971 417.6 242.557 417.447 242.224 417.14C241.904 416.82 241.744 416.427 241.744 415.96C241.744 415.493 241.904 415.107 242.224 414.8C242.557 414.48 242.971 414.32 243.464 414.32C243.957 414.32 244.364 414.48 244.684 414.8C245.017 415.107 245.184 415.493 245.184 415.96C245.184 416.427 245.017 416.82 244.684 417.14C244.364 417.447 243.957 417.6 243.464 417.6ZM244.844 418.92V430H242.044V418.92H244.844ZM250.41 415.2V430H247.61V415.2H250.41ZM252.457 424.42C252.457 423.3 252.677 422.307 253.117 421.44C253.57 420.573 254.177 419.907 254.937 419.44C255.71 418.973 256.57 418.74 257.517 418.74C258.344 418.74 259.064 418.907 259.677 419.24C260.304 419.573 260.804 419.993 261.177 420.5V418.92H263.997V430H261.177V428.38C260.817 428.9 260.317 429.333 259.677 429.68C259.05 430.013 258.324 430.18 257.497 430.18C256.564 430.18 255.71 429.94 254.937 429.46C254.177 428.98 253.57 428.307 253.117 427.44C252.677 426.56 252.457 425.553 252.457 424.42ZM261.177 424.46C261.177 423.78 261.044 423.2 260.777 422.72C260.51 422.227 260.15 421.853 259.697 421.6C259.244 421.333 258.757 421.2 258.237 421.2C257.717 421.2 257.237 421.327 256.797 421.58C256.357 421.833 255.997 422.207 255.717 422.7C255.45 423.18 255.317 423.753 255.317 424.42C255.317 425.087 255.45 425.673 255.717 426.18C255.997 426.673 256.357 427.053 256.797 427.32C257.25 427.587 257.73 427.72 258.237 427.72C258.757 427.72 259.244 427.593 259.697 427.34C260.15 427.073 260.51 426.7 260.777 426.22C261.044 425.727 261.177 425.14 261.177 424.46ZM269.532 420.54C269.892 420.007 270.385 419.573 271.012 419.24C271.652 418.907 272.378 418.74 273.192 418.74C274.138 418.74 274.992 418.973 275.752 419.44C276.525 419.907 277.132 420.573 277.572 421.44C278.025 422.293 278.252 423.287 278.252 424.42C278.252 425.553 278.025 426.56 277.572 427.44C277.132 428.307 276.525 428.98 275.752 429.46C274.992 429.94 274.138 430.18 273.192 430.18C272.365 430.18 271.638 430.02 271.012 429.7C270.398 429.367 269.905 428.94 269.532 428.42V430H266.732V415.2H269.532V420.54ZM275.392 424.42C275.392 423.753 275.252 423.18 274.972 422.7C274.705 422.207 274.345 421.833 273.892 421.58C273.452 421.327 272.972 421.2 272.452 421.2C271.945 421.2 271.465 421.333 271.012 421.6C270.572 421.853 270.212 422.227 269.932 422.72C269.665 423.213 269.532 423.793 269.532 424.46C269.532 425.127 269.665 425.707 269.932 426.2C270.212 426.693 270.572 427.073 271.012 427.34C271.465 427.593 271.945 427.72 272.452 427.72C272.972 427.72 273.452 427.587 273.892 427.32C274.345 427.053 274.705 426.673 274.972 426.18C275.252 425.687 275.392 425.1 275.392 424.42ZM283.086 415.2V430H280.286V415.2H283.086ZM296.153 424.22C296.153 424.62 296.126 424.98 296.073 425.3H287.973C288.039 426.1 288.319 426.727 288.813 427.18C289.306 427.633 289.913 427.86 290.633 427.86C291.673 427.86 292.413 427.413 292.853 426.52H295.873C295.553 427.587 294.939 428.467 294.033 429.16C293.126 429.84 292.013 430.18 290.693 430.18C289.626 430.18 288.666 429.947 287.813 429.48C286.973 429 286.313 428.327 285.833 427.46C285.366 426.593 285.133 425.593 285.133 424.46C285.133 423.313 285.366 422.307 285.833 421.44C286.299 420.573 286.953 419.907 287.793 419.44C288.633 418.973 289.599 418.74 290.693 418.74C291.746 418.74 292.686 418.967 293.513 419.42C294.353 419.873 294.999 420.52 295.453 421.36C295.919 422.187 296.153 423.14 296.153 424.22ZM293.253 423.42C293.239 422.7 292.979 422.127 292.473 421.7C291.966 421.26 291.346 421.04 290.613 421.04C289.919 421.04 289.333 421.253 288.853 421.68C288.386 422.093 288.099 422.673 287.993 423.42H293.253ZM307.202 430.18C306.295 430.18 305.482 430.02 304.762 429.7C304.042 429.367 303.469 428.92 303.042 428.36C302.629 427.8 302.402 427.18 302.362 426.5H305.182C305.235 426.927 305.442 427.28 305.802 427.56C306.175 427.84 306.635 427.98 307.182 427.98C307.715 427.98 308.129 427.873 308.422 427.66C308.729 427.447 308.882 427.173 308.882 426.84C308.882 426.48 308.695 426.213 308.322 426.04C307.962 425.853 307.382 425.653 306.582 425.44C305.755 425.24 305.075 425.033 304.542 424.82C304.022 424.607 303.569 424.28 303.182 423.84C302.809 423.4 302.622 422.807 302.622 422.06C302.622 421.447 302.795 420.887 303.142 420.38C303.502 419.873 304.009 419.473 304.662 419.18C305.329 418.887 306.109 418.74 307.002 418.74C308.322 418.74 309.375 419.073 310.162 419.74C310.949 420.393 311.382 421.28 311.462 422.4H308.782C308.742 421.96 308.555 421.613 308.222 421.36C307.902 421.093 307.469 420.96 306.922 420.96C306.415 420.96 306.022 421.053 305.742 421.24C305.475 421.427 305.342 421.687 305.342 422.02C305.342 422.393 305.529 422.68 305.902 422.88C306.275 423.067 306.855 423.26 307.642 423.46C308.442 423.66 309.102 423.867 309.622 424.08C310.142 424.293 310.589 424.627 310.962 425.08C311.349 425.52 311.549 426.107 311.562 426.84C311.562 427.48 311.382 428.053 311.022 428.56C310.675 429.067 310.169 429.467 309.502 429.76C308.849 430.04 308.082 430.18 307.202 430.18ZM318.78 430.18C317.714 430.18 316.754 429.947 315.9 429.48C315.047 429 314.374 428.327 313.88 427.46C313.4 426.593 313.16 425.593 313.16 424.46C313.16 423.327 313.407 422.327 313.9 421.46C314.407 420.593 315.094 419.927 315.96 419.46C316.827 418.98 317.794 418.74 318.86 418.74C319.927 418.74 320.894 418.98 321.76 419.46C322.627 419.927 323.307 420.593 323.8 421.46C324.307 422.327 324.56 423.327 324.56 424.46C324.56 425.593 324.3 426.593 323.78 427.46C323.274 428.327 322.58 429 321.7 429.48C320.834 429.947 319.86 430.18 318.78 430.18ZM318.78 427.74C319.287 427.74 319.76 427.62 320.2 427.38C320.654 427.127 321.014 426.753 321.28 426.26C321.547 425.767 321.68 425.167 321.68 424.46C321.68 423.407 321.4 422.6 320.84 422.04C320.294 421.467 319.62 421.18 318.82 421.18C318.02 421.18 317.347 421.467 316.8 422.04C316.267 422.6 316 423.407 316 424.46C316 425.513 316.26 426.327 316.78 426.9C317.314 427.46 317.98 427.74 318.78 427.74ZM331.534 430.18C330.468 430.18 329.508 429.947 328.654 429.48C327.801 429 327.128 428.327 326.634 427.46C326.154 426.593 325.914 425.593 325.914 424.46C325.914 423.327 326.161 422.327 326.654 421.46C327.161 420.593 327.848 419.927 328.714 419.46C329.581 418.98 330.548 418.74 331.614 418.74C332.681 418.74 333.648 418.98 334.514 419.46C335.381 419.927 336.061 420.593 336.554 421.46C337.061 422.327 337.314 423.327 337.314 424.46C337.314 425.593 337.054 426.593 336.534 427.46C336.028 428.327 335.334 429 334.454 429.48C333.588 429.947 332.614 430.18 331.534 430.18ZM331.534 427.74C332.041 427.74 332.514 427.62 332.954 427.38C333.408 427.127 333.768 426.753 334.034 426.26C334.301 425.767 334.434 425.167 334.434 424.46C334.434 423.407 334.154 422.6 333.594 422.04C333.048 421.467 332.374 421.18 331.574 421.18C330.774 421.18 330.101 421.467 329.554 422.04C329.021 422.6 328.754 423.407 328.754 424.46C328.754 425.513 329.014 426.327 329.534 426.9C330.068 427.46 330.734 427.74 331.534 427.74ZM345.508 418.76C346.828 418.76 347.895 419.18 348.708 420.02C349.522 420.847 349.928 422.007 349.928 423.5V430H347.128V423.88C347.128 423 346.908 422.327 346.468 421.86C346.028 421.38 345.428 421.14 344.668 421.14C343.895 421.14 343.282 421.38 342.828 421.86C342.388 422.327 342.168 423 342.168 423.88V430H339.368V418.92H342.168V420.3C342.542 419.82 343.015 419.447 343.588 419.18C344.175 418.9 344.815 418.76 345.508 418.76ZM353.831 430.14C353.324 430.14 352.904 429.987 352.571 429.68C352.251 429.36 352.091 428.967 352.091 428.5C352.091 428.033 352.251 427.647 352.571 427.34C352.904 427.02 353.324 426.86 353.831 426.86C354.324 426.86 354.731 427.02 355.051 427.34C355.371 427.647 355.531 428.033 355.531 428.5C355.531 428.967 355.371 429.36 355.051 429.68C354.731 429.987 354.324 430.14 353.831 430.14Z" fill="black"/>
<rect x="121" y="474" width="188" height="30" rx="15" fill="#3891FF"/>
<path d="M149.89 489.115C150.27 489.175 150.615 489.33 150.925 489.58C151.245 489.83 151.495 490.14 151.675 490.51C151.865 490.88 151.96 491.275 151.96 491.695C151.96 492.225 151.825 492.705 151.555 493.135C151.285 493.555 150.89 493.89 150.37 494.14C149.86 494.38 149.255 494.5 148.555 494.5H144.655V484.045H148.405C149.115 484.045 149.72 484.165 150.22 484.405C150.72 484.635 151.095 484.95 151.345 485.35C151.595 485.75 151.72 486.2 151.72 486.7C151.72 487.32 151.55 487.835 151.21 488.245C150.88 488.645 150.44 488.935 149.89 489.115ZM146.02 488.56H148.315C148.955 488.56 149.45 488.41 149.8 488.11C150.15 487.81 150.325 487.395 150.325 486.865C150.325 486.335 150.15 485.92 149.8 485.62C149.45 485.32 148.945 485.17 148.285 485.17H146.02V488.56ZM148.435 493.375C149.115 493.375 149.645 493.215 150.025 492.895C150.405 492.575 150.595 492.13 150.595 491.56C150.595 490.98 150.395 490.525 149.995 490.195C149.595 489.855 149.06 489.685 148.39 489.685H146.02V493.375H148.435ZM153.344 490.36C153.344 489.52 153.514 488.785 153.854 488.155C154.194 487.515 154.659 487.02 155.249 486.67C155.849 486.32 156.514 486.145 157.244 486.145C157.964 486.145 158.589 486.3 159.119 486.61C159.649 486.92 160.044 487.31 160.304 487.78V486.28H161.684V494.5H160.304V492.97C160.034 493.45 159.629 493.85 159.089 494.17C158.559 494.48 157.939 494.635 157.229 494.635C156.499 494.635 155.839 494.455 155.249 494.095C154.659 493.735 154.194 493.23 153.854 492.58C153.514 491.93 153.344 491.19 153.344 490.36ZM160.304 490.375C160.304 489.755 160.179 489.215 159.929 488.755C159.679 488.295 159.339 487.945 158.909 487.705C158.489 487.455 158.024 487.33 157.514 487.33C157.004 487.33 156.539 487.45 156.119 487.69C155.699 487.93 155.364 488.28 155.114 488.74C154.864 489.2 154.739 489.74 154.739 490.36C154.739 490.99 154.864 491.54 155.114 492.01C155.364 492.47 155.699 492.825 156.119 493.075C156.539 493.315 157.004 493.435 157.514 493.435C158.024 493.435 158.489 493.315 158.909 493.075C159.339 492.825 159.679 492.47 159.929 492.01C160.179 491.54 160.304 490.995 160.304 490.375ZM163.481 490.375C163.481 489.525 163.651 488.785 163.991 488.155C164.331 487.515 164.801 487.02 165.401 486.67C166.011 486.32 166.706 486.145 167.486 486.145C168.496 486.145 169.326 486.39 169.976 486.88C170.636 487.37 171.071 488.05 171.281 488.92H169.811C169.671 488.42 169.396 488.025 168.986 487.735C168.586 487.445 168.086 487.3 167.486 487.3C166.706 487.3 166.076 487.57 165.596 488.11C165.116 488.64 164.876 489.395 164.876 490.375C164.876 491.365 165.116 492.13 165.596 492.67C166.076 493.21 166.706 493.48 167.486 493.48C168.086 493.48 168.586 493.34 168.986 493.06C169.386 492.78 169.661 492.38 169.811 491.86H171.281C171.061 492.7 170.621 493.375 169.961 493.885C169.301 494.385 168.476 494.635 167.486 494.635C166.706 494.635 166.011 494.46 165.401 494.11C164.801 493.76 164.331 493.265 163.991 492.625C163.651 491.985 163.481 491.235 163.481 490.375ZM177.692 494.5L174.467 490.87V494.5H173.102V483.4H174.467V489.925L177.632 486.28H179.537L175.667 490.375L179.552 494.5H177.692ZM186.486 487.405V492.25C186.486 492.65 186.571 492.935 186.741 493.105C186.911 493.265 187.206 493.345 187.626 493.345H188.631V494.5H187.401C186.641 494.5 186.071 494.325 185.691 493.975C185.311 493.625 185.121 493.05 185.121 492.25V487.405H184.056V486.28H185.121V484.21H186.486V486.28H188.631V487.405H186.486ZM193.87 494.635C193.1 494.635 192.4 494.46 191.77 494.11C191.15 493.76 190.66 493.265 190.3 492.625C189.95 491.975 189.775 491.225 189.775 490.375C189.775 489.535 189.955 488.795 190.315 488.155C190.685 487.505 191.185 487.01 191.815 486.67C192.445 486.32 193.15 486.145 193.93 486.145C194.71 486.145 195.415 486.32 196.045 486.67C196.675 487.01 197.17 487.5 197.53 488.14C197.9 488.78 198.085 489.525 198.085 490.375C198.085 491.225 197.895 491.975 197.515 492.625C197.145 493.265 196.64 493.76 196 494.11C195.36 494.46 194.65 494.635 193.87 494.635ZM193.87 493.435C194.36 493.435 194.82 493.32 195.25 493.09C195.68 492.86 196.025 492.515 196.285 492.055C196.555 491.595 196.69 491.035 196.69 490.375C196.69 489.715 196.56 489.155 196.3 488.695C196.04 488.235 195.7 487.895 195.28 487.675C194.86 487.445 194.405 487.33 193.915 487.33C193.415 487.33 192.955 487.445 192.535 487.675C192.125 487.895 191.795 488.235 191.545 488.695C191.295 489.155 191.17 489.715 191.17 490.375C191.17 491.045 191.29 491.61 191.53 492.07C191.78 492.53 192.11 492.875 192.52 493.105C192.93 493.325 193.38 493.435 193.87 493.435ZM207.134 484.045C208.274 484.045 209.259 484.26 210.089 484.69C210.929 485.11 211.569 485.715 212.009 486.505C212.459 487.295 212.684 488.225 212.684 489.295C212.684 490.365 212.459 491.295 212.009 492.085C211.569 492.865 210.929 493.465 210.089 493.885C209.259 494.295 208.274 494.5 207.134 494.5H203.879V484.045H207.134ZM207.134 493.375C208.484 493.375 209.514 493.02 210.224 492.31C210.934 491.59 211.289 490.585 211.289 489.295C211.289 487.995 210.929 486.98 210.209 486.25C209.499 485.52 208.474 485.155 207.134 485.155H205.244V493.375H207.134ZM213.974 490.36C213.974 489.52 214.144 488.785 214.484 488.155C214.824 487.515 215.289 487.02 215.879 486.67C216.479 486.32 217.144 486.145 217.874 486.145C218.594 486.145 219.219 486.3 219.749 486.61C220.279 486.92 220.674 487.31 220.934 487.78V486.28H222.314V494.5H220.934V492.97C220.664 493.45 220.259 493.85 219.719 494.17C219.189 494.48 218.569 494.635 217.859 494.635C217.129 494.635 216.469 494.455 215.879 494.095C215.289 493.735 214.824 493.23 214.484 492.58C214.144 491.93 213.974 491.19 213.974 490.36ZM220.934 490.375C220.934 489.755 220.809 489.215 220.559 488.755C220.309 488.295 219.969 487.945 219.539 487.705C219.119 487.455 218.654 487.33 218.144 487.33C217.634 487.33 217.169 487.45 216.749 487.69C216.329 487.93 215.994 488.28 215.744 488.74C215.494 489.2 215.369 489.74 215.369 490.36C215.369 490.99 215.494 491.54 215.744 492.01C215.994 492.47 216.329 492.825 216.749 493.075C217.169 493.315 217.634 493.435 218.144 493.435C218.654 493.435 219.119 493.315 219.539 493.075C219.969 492.825 220.309 492.47 220.559 492.01C220.809 491.54 220.934 490.995 220.934 490.375ZM227.531 494.635C226.901 494.635 226.336 494.53 225.836 494.32C225.336 494.1 224.941 493.8 224.651 493.42C224.361 493.03 224.201 492.585 224.171 492.085H225.581C225.621 492.495 225.811 492.83 226.151 493.09C226.501 493.35 226.956 493.48 227.516 493.48C228.036 493.48 228.446 493.365 228.746 493.135C229.046 492.905 229.196 492.615 229.196 492.265C229.196 491.905 229.036 491.64 228.716 491.47C228.396 491.29 227.901 491.115 227.231 490.945C226.621 490.785 226.121 490.625 225.731 490.465C225.351 490.295 225.021 490.05 224.741 489.73C224.471 489.4 224.336 488.97 224.336 488.44C224.336 488.02 224.461 487.635 224.711 487.285C224.961 486.935 225.316 486.66 225.776 486.46C226.236 486.25 226.761 486.145 227.351 486.145C228.261 486.145 228.996 486.375 229.556 486.835C230.116 487.295 230.416 487.925 230.456 488.725H229.091C229.061 488.295 228.886 487.95 228.566 487.69C228.256 487.43 227.836 487.3 227.306 487.3C226.816 487.3 226.426 487.405 226.136 487.615C225.846 487.825 225.701 488.1 225.701 488.44C225.701 488.71 225.786 488.935 225.956 489.115C226.136 489.285 226.356 489.425 226.616 489.535C226.886 489.635 227.256 489.75 227.726 489.88C228.316 490.04 228.796 490.2 229.166 490.36C229.536 490.51 229.851 490.74 230.111 491.05C230.381 491.36 230.521 491.765 230.531 492.265C230.531 492.715 230.406 493.12 230.156 493.48C229.906 493.84 229.551 494.125 229.091 494.335C228.641 494.535 228.121 494.635 227.531 494.635ZM236.538 486.13C237.158 486.13 237.718 486.265 238.218 486.535C238.718 486.795 239.108 487.19 239.388 487.72C239.678 488.25 239.823 488.895 239.823 489.655V494.5H238.473V489.85C238.473 489.03 238.268 488.405 237.858 487.975C237.448 487.535 236.888 487.315 236.178 487.315C235.458 487.315 234.883 487.54 234.453 487.99C234.033 488.44 233.823 489.095 233.823 489.955V494.5H232.458V483.4H233.823V487.45C234.093 487.03 234.463 486.705 234.933 486.475C235.413 486.245 235.948 486.13 236.538 486.13ZM243.417 487.81C243.697 487.32 244.107 486.92 244.647 486.61C245.187 486.3 245.802 486.145 246.492 486.145C247.232 486.145 247.897 486.32 248.487 486.67C249.077 487.02 249.542 487.515 249.882 488.155C250.222 488.785 250.392 489.52 250.392 490.36C250.392 491.19 250.222 491.93 249.882 492.58C249.542 493.23 249.072 493.735 248.472 494.095C247.882 494.455 247.222 494.635 246.492 494.635C245.782 494.635 245.157 494.48 244.617 494.17C244.087 493.86 243.687 493.465 243.417 492.985V494.5H242.052V483.4H243.417V487.81ZM248.997 490.36C248.997 489.74 248.872 489.2 248.622 488.74C248.372 488.28 248.032 487.93 247.602 487.69C247.182 487.45 246.717 487.33 246.207 487.33C245.707 487.33 245.242 487.455 244.812 487.705C244.392 487.945 244.052 488.3 243.792 488.77C243.542 489.23 243.417 489.765 243.417 490.375C243.417 490.995 243.542 491.54 243.792 492.01C244.052 492.47 244.392 492.825 244.812 493.075C245.242 493.315 245.707 493.435 246.207 493.435C246.717 493.435 247.182 493.315 247.602 493.075C248.032 492.825 248.372 492.47 248.622 492.01C248.872 491.54 248.997 490.99 248.997 490.36ZM255.774 494.635C255.004 494.635 254.304 494.46 253.674 494.11C253.054 493.76 252.564 493.265 252.204 492.625C251.854 491.975 251.679 491.225 251.679 490.375C251.679 489.535 251.859 488.795 252.219 488.155C252.589 487.505 253.089 487.01 253.719 486.67C254.349 486.32 255.054 486.145 255.834 486.145C256.614 486.145 257.319 486.32 257.949 486.67C258.579 487.01 259.074 487.5 259.434 488.14C259.804 488.78 259.989 489.525 259.989 490.375C259.989 491.225 259.799 491.975 259.419 492.625C259.049 493.265 258.544 493.76 257.904 494.11C257.264 494.46 256.554 494.635 255.774 494.635ZM255.774 493.435C256.264 493.435 256.724 493.32 257.154 493.09C257.584 492.86 257.929 492.515 258.189 492.055C258.459 491.595 258.594 491.035 258.594 490.375C258.594 489.715 258.464 489.155 258.204 488.695C257.944 488.235 257.604 487.895 257.184 487.675C256.764 487.445 256.309 487.33 255.819 487.33C255.319 487.33 254.859 487.445 254.439 487.675C254.029 487.895 253.699 488.235 253.449 488.695C253.199 489.155 253.074 489.715 253.074 490.375C253.074 491.045 253.194 491.61 253.434 492.07C253.684 492.53 254.014 492.875 254.424 493.105C254.834 493.325 255.284 493.435 255.774 493.435ZM261.274 490.36C261.274 489.52 261.444 488.785 261.784 488.155C262.124 487.515 262.589 487.02 263.179 486.67C263.779 486.32 264.444 486.145 265.174 486.145C265.894 486.145 266.519 486.3 267.049 486.61C267.579 486.92 267.974 487.31 268.234 487.78V486.28H269.614V494.5H268.234V492.97C267.964 493.45 267.559 493.85 267.019 494.17C266.489 494.48 265.869 494.635 265.159 494.635C264.429 494.635 263.769 494.455 263.179 494.095C262.589 493.735 262.124 493.23 261.784 492.58C261.444 491.93 261.274 491.19 261.274 490.36ZM268.234 490.375C268.234 489.755 268.109 489.215 267.859 488.755C267.609 488.295 267.269 487.945 266.839 487.705C266.419 487.455 265.954 487.33 265.444 487.33C264.934 487.33 264.469 487.45 264.049 487.69C263.629 487.93 263.294 488.28 263.044 488.74C262.794 489.2 262.669 489.74 262.669 490.36C262.669 490.99 262.794 491.54 263.044 492.01C263.294 492.47 263.629 492.825 264.049 493.075C264.469 493.315 264.934 493.435 265.444 493.435C265.954 493.435 266.419 493.315 266.839 493.075C267.269 492.825 267.609 492.47 267.859 492.01C268.109 491.54 268.234 490.995 268.234 490.375ZM273.286 487.615C273.526 487.145 273.866 486.78 274.306 486.52C274.756 486.26 275.301 486.13 275.941 486.13V487.54H275.581C274.051 487.54 273.286 488.37 273.286 490.03V494.5H271.921V486.28H273.286V487.615ZM277.006 490.36C277.006 489.52 277.176 488.785 277.516 488.155C277.856 487.515 278.321 487.02 278.911 486.67C279.511 486.32 280.181 486.145 280.921 486.145C281.561 486.145 282.156 486.295 282.706 486.595C283.256 486.885 283.676 487.27 283.966 487.75V483.4H285.346V494.5H283.966V492.955C283.696 493.445 283.296 493.85 282.766 494.17C282.236 494.48 281.616 494.635 280.906 494.635C280.176 494.635 279.511 494.455 278.911 494.095C278.321 493.735 277.856 493.23 277.516 492.58C277.176 491.93 277.006 491.19 277.006 490.36ZM283.966 490.375C283.966 489.755 283.841 489.215 283.591 488.755C283.341 488.295 283.001 487.945 282.571 487.705C282.151 487.455 281.686 487.33 281.176 487.33C280.666 487.33 280.201 487.45 279.781 487.69C279.361 487.93 279.026 488.28 278.776 488.74C278.526 489.2 278.401 489.74 278.401 490.36C278.401 490.99 278.526 491.54 278.776 492.01C279.026 492.47 279.361 492.825 279.781 493.075C280.201 493.315 280.666 493.435 281.176 493.435C281.686 493.435 282.151 493.315 282.571 493.075C283.001 492.825 283.341 492.47 283.591 492.01C283.841 491.54 283.966 490.995 283.966 490.375Z" fill="white"/>
</g>
<defs>
<clipPath id="clip0_124_207">
<rect width="410" height="256.666" fill="white" transform="translate(10 358)"/>
</clipPath>
</defs>
</svg>
